<?xml version="1.0" standalone="no"?>
<!DOCTYPE svg PUBLIC "-//W3C//DTD SVG 1.1//EN" "http://www.w3.org/Graphics/SVG/1.1/DTD/svg11.dtd" >
<svg xmlns="http://www.w3.org/2000/svg" xmlns:xlink="http://www.w3.org/1999/xlink" version="1.1">
<metadata>
Created by FontForge 20190801 at Tue Jan  8 22:53:02 2019
 By Jimmy Wärting
Maison Neue is the thoroughly reworked version of our early Maison typeface family. While the original version was constructed on geometric principles, Maison Neue has now been meticulously redrawn and extended. Paying particular attention to harmony, rhythm and flow, the new typeface also accounts for up-to-date display and reproduction technologies to create a distinctly contemporary grotesque, with a classic touch. The whole family contains 40 styles thus far; each includes an extended Latin character set and a variety of OpenType features.
</metadata>
<defs>
<font id="MaisonNeue-Black" horiz-adv-x="650" >
  <font-face 
    font-family="Maison Neue Black"
    font-weight="900"
    font-stretch="normal"
    units-per-em="1000"
    panose-1="2 11 10 4 4 0 0 0 0 0"
    ascent="730"
    descent="-270"
    x-height="530"
    cap-height="700"
    bbox="-696 -341 2077 1106"
    underline-thickness="100"
    underline-position="-120"
    unicode-range="U+000D-FEFF"
  />
<missing-glyph horiz-adv-x="700" 
d="M44 -5v423c0 171 131 292 292 292c161 2 297 -123 294 -292v-423h-28l-65 65l-68 -65l-63 65l-71 -65l-69 65l-63 -65l-67 65l-66 -65h-26zM144 300l63 63l64 -63l14 14l-64 63l64 64l-14 14l-64 -64l-63 64l-14 -14l63 -64l-63 -63zM404 300l63 63l64 -63l14 14l-64 63
l64 64l-14 14l-64 -64l-63 64l-14 -14l63 -64l-63 -63z" />
    <glyph glyph-name="W_W_W" unicode="WWW" horiz-adv-x="2081" 
d="M152 0l-148 700h194l78 -405h2l125 405h130l124 -405h2l125 405h130l124 -405h2l125 405h130l124 -405h2l125 405h130l124 -405h2l79 405h196l-150 -700h-188l-126 384h-2l-126 -384h-127l-127 384h-2l-125 -384h-127l-127 384h-2l-125 -384h-127l-127 384h-2l-125 -384
h-190z" />
    <glyph glyph-name="fi" unicode="fi" horiz-adv-x="694" 
d="M625 759v-141h-156v141h156zM650 530v-530h-187v382h-166v-382h-187v382h-111v148h111v60c0 99 63 157 174 157h116v-147h-65c-25 0 -38 -13 -38 -38v-32h353z" />
    <glyph glyph-name="fl" unicode="fl" horiz-adv-x="694" 
d="M463 730h187v-730h-187v382h-166v-382h-187v382h-111v148h111v60c0 99 63 157 174 157h116v-147h-65c-25 0 -38 -13 -38 -38v-32h166v200z" />
    <glyph glyph-name="w_w_w" unicode="www" horiz-adv-x="1843" 
d="M138 0l-129 530h188l60 -287h2l85 287h160l85 -287h2l85 287h159l85 -287h2l85 287h160l85 -287h2l85 287h159l85 -287h2l60 287h189l-129 -530h-192l-93 314h-2l-94 -314h-142l-94 314h-2l-93 -314h-143l-93 314h-2l-94 -314h-142l-94 314h-2l-94 -314h-191z" />
    <glyph glyph-name=".notdef" horiz-adv-x="700" 
d="M44 -5v423c0 171 131 292 292 292c161 2 297 -123 294 -292v-423h-28l-65 65l-68 -65l-63 65l-71 -65l-69 65l-63 -65l-67 65l-66 -65h-26zM144 300l63 63l64 -63l14 14l-64 63l64 64l-14 14l-64 -64l-63 64l-14 -14l63 -64l-63 -63zM404 300l63 63l64 -63l14 14l-64 63
l64 64l-14 14l-64 -64l-63 64l-14 -14l63 -64l-63 -63z" />
    <glyph glyph-name="NULL" horiz-adv-x="0" 
 />
    <glyph glyph-name="CR" unicode="&#xd;" horiz-adv-x="340" 
 />
    <glyph glyph-name="space" unicode=" " horiz-adv-x="255" 
 />
    <glyph glyph-name="A" unicode="A" horiz-adv-x="655" 
d="M477 0l-28 90h-243l-28 -90h-189l242 700h193l241 -700h-188zM255 250h144l-71 230h-2z" />
    <glyph glyph-name="Aacute" unicode="&#xc1;" horiz-adv-x="655" 
d="M477 0l-28 90h-243l-28 -90h-189l242 700h193l241 -700h-188zM255 250h144l-71 230h-2zM229 760l102 151h176l-132 -151h-146z" />
    <glyph glyph-name="Abreve" unicode="&#x102;" horiz-adv-x="655" 
d="M477 0l-28 90h-243l-28 -90h-189l242 700h193l241 -700h-188zM255 250h144l-71 230h-2zM156 900h95c11 -29 37 -44 78 -44s66 15 76 44h96c-5 -93 -71 -150 -172 -150c-103 0 -168 57 -173 150z" />
    <glyph glyph-name="uni01CD" unicode="&#x1cd;" horiz-adv-x="655" 
d="M477 0l-28 90h-243l-28 -90h-189l242 700h193l241 -700h-188zM255 250h144l-71 230h-2zM394 910l99 -71l-73 -89h-186l-72 89l99 71l66 -85z" />
    <glyph glyph-name="Acircumflex" unicode="&#xc2;" horiz-adv-x="655" 
d="M477 0l-28 90h-243l-28 -90h-189l242 700h193l241 -700h-188zM255 250h144l-71 230h-2zM493 811l-99 -71l-67 85l-66 -85l-99 71l72 89h186z" />
    <glyph glyph-name="uni1EAC" unicode="&#x1eac;" horiz-adv-x="655" 
d="M477 0l-28 90h-243l-28 -90h-189l242 700h193l241 -700h-188zM255 250h144l-71 230h-2zM493 811l-99 -71l-67 85l-66 -85l-99 71l72 89h186zM254 -194v145h145v-145h-145z" />
    <glyph glyph-name="Adieresis" unicode="&#xc4;" horiz-adv-x="655" 
d="M477 0l-28 90h-243l-28 -90h-189l242 700h193l241 -700h-188zM255 250h144l-71 230h-2zM143 750v145h145v-145h-145zM365 750v145h146v-145h-146z" />
    <glyph glyph-name="uni01DE" unicode="&#x1de;" horiz-adv-x="655" 
d="M477 0l-28 90h-243l-28 -90h-189l242 700h193l241 -700h-188zM255 250h144l-71 230h-2zM143 750v145h145v-145h-145zM365 750v145h146v-145h-146zM153 935v109h348v-109h-348z" />
    <glyph glyph-name="uni1EA0" unicode="&#x1ea0;" horiz-adv-x="655" 
d="M477 0l-28 90h-243l-28 -90h-189l242 700h193l241 -700h-188zM255 250h144l-71 230h-2zM254 -194v145h145v-145h-145z" />
    <glyph glyph-name="Agrave" unicode="&#xc0;" horiz-adv-x="655" 
d="M477 0l-28 90h-243l-28 -90h-189l242 700h193l241 -700h-188zM255 250h144l-71 230h-2zM273 760l-134 151h178l100 -151h-144z" />
    <glyph glyph-name="Amacron" unicode="&#x100;" horiz-adv-x="655" 
d="M477 0l-28 90h-243l-28 -90h-189l242 700h193l241 -700h-188zM255 250h144l-71 230h-2zM153 760v109h348v-109h-348z" />
    <glyph glyph-name="Aogonek" unicode="&#x104;" horiz-adv-x="655" 
d="M477 0l-28 90h-243l-28 -90h-189l242 700h193l241 -700h-188zM255 250h144l-71 230h-2zM452 -124c0 47 33 96 106 139l76 -15c-43 -33 -64 -62 -64 -86c0 -15 8 -23 23 -23c16 0 34 5 55 14l38 -101c-36 -16 -74 -24 -113 -24c-75 0 -121 33 -121 96z" />
    <glyph glyph-name="Aring" unicode="&#xc5;" horiz-adv-x="655" 
d="M477 0l-28 90h-243l-28 -90h-189l242 700h193l241 -700h-188zM255 250h144l-71 230h-2zM156 764c0 86 72 150 171 150c98 0 172 -64 172 -150c0 -84 -74 -149 -172 -149c-99 0 -171 65 -171 149zM393 764c0 39 -27 65 -66 65s-65 -26 -65 -65c0 -37 28 -64 65 -64
c39 0 66 27 66 64z" />
    <glyph glyph-name="Aringacute" unicode="&#x1fa;" horiz-adv-x="655" 
d="M477 0l-28 90h-243l-28 -90h-189l242 700h193l241 -700h-188zM255 250h144l-71 230h-2zM156 764c0 86 72 150 171 150c98 0 172 -64 172 -150c0 -84 -74 -149 -172 -149c-99 0 -171 65 -171 149zM393 764c0 39 -27 65 -66 65s-65 -26 -65 -65c0 -37 28 -64 65 -64
c39 0 66 27 66 64zM228 887l102 151h176l-132 -151h-146z" />
    <glyph glyph-name="Atilde" unicode="&#xc3;" horiz-adv-x="655" 
d="M477 0l-28 90h-243l-28 -90h-189l242 700h193l241 -700h-188zM255 250h144l-71 230h-2zM319 779c-23 11 -40 17 -51 17c-19 0 -30 -12 -34 -36h-84c4 93 40 144 104 144c29 0 46 -8 81 -24c23 -12 35 -17 50 -17c19 0 30 12 34 35h84c-3 -93 -39 -144 -103 -144
c-28 0 -50 9 -81 25z" />
    <glyph glyph-name="AE" unicode="&#xc6;" horiz-adv-x="881" 
d="M617 160h230v-160h-408v93h-214l-35 -93h-201l278 700h578v-160h-228v-112h205v-147h-205v-121zM284 249h155v291h-46z" />
    <glyph glyph-name="AEacute" unicode="&#x1fc;" horiz-adv-x="881" 
d="M617 160h230v-160h-408v93h-214l-35 -93h-201l278 700h578v-160h-228v-112h205v-147h-205v-121zM284 249h155v291h-46zM345 760l102 151h176l-132 -151h-146z" />
    <glyph glyph-name="B" unicode="B" horiz-adv-x="651" 
d="M58 0v700h322c131 0 222 -79 222 -190c0 -55 -26 -102 -70 -130v-2c59 -32 95 -91 95 -162c0 -145 -92 -216 -281 -216h-288zM244 433h104c43 0 64 18 64 55c0 35 -21 53 -64 53h-104v-108zM244 159h120c52 0 74 20 74 65c0 43 -25 65 -74 65h-120v-130z" />
    <glyph glyph-name="uni1E04" unicode="&#x1e04;" horiz-adv-x="651" 
d="M58 0v700h322c131 0 222 -79 222 -190c0 -55 -26 -102 -70 -130v-2c59 -32 95 -91 95 -162c0 -145 -92 -216 -281 -216h-288zM244 433h104c43 0 64 18 64 55c0 35 -21 53 -64 53h-104v-108zM244 159h120c52 0 74 20 74 65c0 43 -25 65 -74 65h-120v-130zM251 -194v145
h145v-145h-145z" />
    <glyph glyph-name="C" unicode="C" horiz-adv-x="644" 
d="M12 349c0 219 133 372 326 372c158 0 282 -108 302 -257l-185 -34c-13 73 -56 114 -117 114c-84 0 -134 -72 -134 -195c0 -121 50 -193 134 -193c64 0 106 41 119 122l185 -33c-20 -157 -143 -266 -304 -266c-198 0 -326 151 -326 370z" />
    <glyph glyph-name="Cacute" unicode="&#x106;" horiz-adv-x="644" 
d="M12 349c0 219 133 372 326 372c158 0 282 -108 302 -257l-185 -34c-13 73 -56 114 -117 114c-84 0 -134 -72 -134 -195c0 -121 50 -193 134 -193c64 0 106 41 119 122l185 -33c-20 -157 -143 -266 -304 -266c-198 0 -326 151 -326 370zM240 781l102 151h176l-132 -151
h-146z" />
    <glyph glyph-name="Ccaron" unicode="&#x10c;" horiz-adv-x="644" 
d="M12 349c0 219 133 372 326 372c158 0 282 -108 302 -257l-185 -34c-13 73 -56 114 -117 114c-84 0 -134 -72 -134 -195c0 -121 50 -193 134 -193c64 0 106 41 119 122l185 -33c-20 -157 -143 -266 -304 -266c-198 0 -326 151 -326 370zM405 931l99 -71l-73 -89h-186
l-72 89l99 71l66 -85z" />
    <glyph glyph-name="Ccedilla" unicode="&#xc7;" horiz-adv-x="644" 
d="M12 349c0 219 133 372 326 372c158 0 282 -108 302 -257l-185 -34c-13 73 -56 114 -117 114c-84 0 -134 -72 -134 -195c0 -121 50 -193 134 -193c64 0 106 41 119 122l185 -33c-20 -157 -143 -266 -304 -266c-198 0 -326 151 -326 370zM481 -165
c0 -73 -54 -124 -131 -124c-48 0 -88 11 -128 39l54 86c27 -16 46 -23 67 -23c25 0 39 11 39 31c0 17 -16 31 -37 31c-18 0 -35 -6 -50 -19l-66 26l82 142l62 -37l-21 -36h4c77 0 125 -47 125 -116z" />
    <glyph glyph-name="Ccircumflex" unicode="&#x108;" horiz-adv-x="644" 
d="M12 349c0 219 133 372 326 372c158 0 282 -108 302 -257l-185 -34c-13 73 -56 114 -117 114c-84 0 -134 -72 -134 -195c0 -121 50 -193 134 -193c64 0 106 41 119 122l185 -33c-20 -157 -143 -266 -304 -266c-198 0 -326 151 -326 370zM504 832l-99 -71l-67 85l-66 -85
l-99 71l72 89h186z" />
    <glyph glyph-name="Cdotaccent" unicode="&#x10a;" horiz-adv-x="644" 
d="M12 349c0 219 133 372 326 372c158 0 282 -108 302 -257l-185 -34c-13 73 -56 114 -117 114c-84 0 -134 -72 -134 -195c0 -121 50 -193 134 -193c64 0 106 41 119 122l185 -33c-20 -157 -143 -266 -304 -266c-198 0 -326 151 -326 370zM265 781v145h145v-145h-145z" />
    <glyph glyph-name="D" unicode="D" horiz-adv-x="654" 
d="M58 0v700h280c160 0 304 -110 304 -349c0 -127 -30 -217 -89 -271c-59 -53 -133 -80 -222 -80h-273zM250 176h66c42 0 75 12 98 37c24 25 36 71 36 138c0 124 -49 173 -134 173h-66v-348z" />
    <glyph glyph-name="Eth" unicode="&#xd0;" horiz-adv-x="654" 
d="M58 0v700h280c160 0 304 -110 304 -349c0 -127 -30 -217 -89 -271c-59 -53 -133 -80 -222 -80h-273zM250 176h66c42 0 75 12 98 37c24 25 36 71 36 138c0 124 -49 173 -134 173h-66v-348zM-22 282v138h381v-138h-381z" />
    <glyph glyph-name="Dcaron" unicode="&#x10e;" horiz-adv-x="654" 
d="M58 0v700h280c160 0 304 -110 304 -349c0 -127 -30 -217 -89 -271c-59 -53 -133 -80 -222 -80h-273zM250 176h66c42 0 75 12 98 37c24 25 36 71 36 138c0 124 -49 173 -134 173h-66v-348zM358 910l99 -71l-73 -89h-186l-72 89l99 71l66 -85z" />
    <glyph glyph-name="Dcroat" unicode="&#x110;" horiz-adv-x="654" 
d="M58 0v700h280c160 0 304 -110 304 -349c0 -127 -30 -217 -89 -271c-59 -53 -133 -80 -222 -80h-273zM250 176h66c42 0 75 12 98 37c24 25 36 71 36 138c0 124 -49 173 -134 173h-66v-348zM-22 282v138h381v-138h-381z" />
    <glyph glyph-name="uni1E0C" unicode="&#x1e0c;" horiz-adv-x="654" 
d="M58 0v700h280c160 0 304 -110 304 -349c0 -127 -30 -217 -89 -271c-59 -53 -133 -80 -222 -80h-273zM250 176h66c42 0 75 12 98 37c24 25 36 71 36 138c0 124 -49 173 -134 173h-66v-348zM255 -194v145h145v-145h-145z" />
    <glyph glyph-name="E" unicode="E" horiz-adv-x="568" 
d="M58 0v700h473v-174h-281v-96h258v-156h-258v-100h284v-174h-476z" />
    <glyph glyph-name="Eacute" unicode="&#xc9;" horiz-adv-x="568" 
d="M58 0v700h473v-174h-281v-96h258v-156h-258v-100h284v-174h-476zM192 760l102 151h176l-132 -151h-146z" />
    <glyph glyph-name="Ebreve" unicode="&#x114;" horiz-adv-x="568" 
d="M58 0v700h473v-174h-281v-96h258v-156h-258v-100h284v-174h-476zM119 900h95c11 -29 37 -44 78 -44s66 15 76 44h96c-5 -93 -71 -150 -172 -150c-103 0 -168 57 -173 150z" />
    <glyph glyph-name="Ecaron" unicode="&#x11a;" horiz-adv-x="568" 
d="M58 0v700h473v-174h-281v-96h258v-156h-258v-100h284v-174h-476zM357 910l99 -71l-73 -89h-186l-72 89l99 71l66 -85z" />
    <glyph glyph-name="uni0228" unicode="&#x228;" horiz-adv-x="568" 
d="M58 0v700h473v-174h-281v-96h258v-156h-258v-100h284v-174h-476zM439 -145c0 -73 -54 -124 -131 -124c-48 0 -88 11 -128 39l54 86c27 -16 46 -23 67 -23c25 0 39 11 39 31c0 17 -16 31 -37 31c-18 0 -35 -6 -50 -19l-66 26l82 142l62 -37l-21 -36h4
c77 0 125 -47 125 -116z" />
    <glyph glyph-name="Ecircumflex" unicode="&#xca;" horiz-adv-x="568" 
d="M58 0v700h473v-174h-281v-96h258v-156h-258v-100h284v-174h-476zM456 811l-99 -71l-67 85l-66 -85l-99 71l72 89h186z" />
    <glyph glyph-name="uni1EC6" unicode="&#x1ec6;" horiz-adv-x="568" 
d="M58 0v700h473v-174h-281v-96h258v-156h-258v-100h284v-174h-476zM456 811l-99 -71l-67 85l-66 -85l-99 71l72 89h186zM223 -194v145h145v-145h-145z" />
    <glyph glyph-name="Edieresis" unicode="&#xcb;" horiz-adv-x="568" 
d="M58 0v700h473v-174h-281v-96h258v-156h-258v-100h284v-174h-476zM106 750v145h145v-145h-145zM328 750v145h146v-145h-146z" />
    <glyph glyph-name="Edotaccent" unicode="&#x116;" horiz-adv-x="568" 
d="M58 0v700h473v-174h-281v-96h258v-156h-258v-100h284v-174h-476zM217 760v145h145v-145h-145z" />
    <glyph glyph-name="uni1EB8" unicode="&#x1eb8;" horiz-adv-x="568" 
d="M58 0v700h473v-174h-281v-96h258v-156h-258v-100h284v-174h-476zM223 -194v145h145v-145h-145z" />
    <glyph glyph-name="Egrave" unicode="&#xc8;" horiz-adv-x="568" 
d="M58 0v700h473v-174h-281v-96h258v-156h-258v-100h284v-174h-476zM236 760l-134 151h178l100 -151h-144z" />
    <glyph glyph-name="Emacron" unicode="&#x112;" horiz-adv-x="568" 
d="M58 0v700h473v-174h-281v-96h258v-156h-258v-100h284v-174h-476zM116 760v109h348v-109h-348z" />
    <glyph glyph-name="Eogonek" unicode="&#x118;" horiz-adv-x="568" 
d="M58 0v700h473v-174h-281v-96h258v-156h-258v-100h284v-174h-476zM299 -124c0 47 33 96 106 139l76 -15c-43 -33 -64 -62 -64 -86c0 -15 8 -23 23 -23c16 0 34 5 55 14l38 -101c-36 -16 -74 -24 -113 -24c-75 0 -121 33 -121 96z" />
    <glyph glyph-name="uni018E" unicode="&#x18e;" horiz-adv-x="568" 
d="M510 0h-476v174h284v100h-258v156h258v96h-281v174h473v-700z" />
    <glyph glyph-name="uni1EBC" unicode="&#x1ebc;" horiz-adv-x="568" 
d="M58 0v700h473v-174h-281v-96h258v-156h-258v-100h284v-174h-476zM282 779c-23 11 -40 17 -51 17c-19 0 -30 -12 -34 -36h-84c4 93 40 144 104 144c29 0 46 -8 81 -24c23 -12 35 -17 50 -17c19 0 30 12 34 35h84c-3 -93 -39 -144 -103 -144c-28 0 -50 9 -81 25z" />
    <glyph glyph-name="F" unicode="F" horiz-adv-x="558" 
d="M58 0v700h470v-176h-278v-138h269v-166h-269v-220h-192z" />
    <glyph glyph-name="G" unicode="G" horiz-adv-x="648" 
d="M12 349c-3 217 135 375 327 372c152 0 278 -105 296 -247l-179 -34c-15 67 -57 104 -117 104c-84 0 -135 -72 -135 -195c0 -124 49 -193 145 -193c64 0 100 32 103 89h-118v138h297v-101c0 -183 -113 -303 -292 -303c-196 0 -327 149 -327 370z" />
    <glyph glyph-name="Gbreve" unicode="&#x11e;" horiz-adv-x="648" 
d="M12 349c-3 217 135 375 327 372c152 0 278 -105 296 -247l-179 -34c-15 67 -57 104 -117 104c-84 0 -135 -72 -135 -195c0 -124 49 -193 145 -193c64 0 100 32 103 89h-118v138h297v-101c0 -183 -113 -303 -292 -303c-196 0 -327 149 -327 370zM168 921h95
c11 -29 37 -44 78 -44s66 15 76 44h96c-5 -93 -71 -150 -172 -150c-103 0 -168 57 -173 150z" />
    <glyph glyph-name="Gcircumflex" unicode="&#x11c;" horiz-adv-x="648" 
d="M12 349c-3 217 135 375 327 372c152 0 278 -105 296 -247l-179 -34c-15 67 -57 104 -117 104c-84 0 -135 -72 -135 -195c0 -124 49 -193 145 -193c64 0 100 32 103 89h-118v138h297v-101c0 -183 -113 -303 -292 -303c-196 0 -327 149 -327 370zM505 832l-99 -71l-67 85
l-66 -85l-99 71l72 89h186z" />
    <glyph glyph-name="uni0122" unicode="&#x122;" horiz-adv-x="648" 
d="M12 349c-3 217 135 375 327 372c152 0 278 -105 296 -247l-179 -34c-15 67 -57 104 -117 104c-84 0 -135 -72 -135 -195c0 -124 49 -193 145 -193c64 0 100 32 103 89h-118v138h297v-101c0 -183 -113 -303 -292 -303c-196 0 -327 149 -327 370zM267 -341v71
c40 7 51 22 51 59h-56v141h153v-118c0 -91 -51 -146 -148 -153z" />
    <glyph glyph-name="Gdotaccent" unicode="&#x120;" horiz-adv-x="648" 
d="M12 349c-3 217 135 375 327 372c152 0 278 -105 296 -247l-179 -34c-15 67 -57 104 -117 104c-84 0 -135 -72 -135 -195c0 -124 49 -193 145 -193c64 0 100 32 103 89h-118v138h297v-101c0 -183 -113 -303 -292 -303c-196 0 -327 149 -327 370zM266 781v145h145v-145
h-145z" />
    <glyph glyph-name="H" unicode="H" horiz-adv-x="684" 
d="M58 0v700h192v-253h183v253h192v-700h-192v271h-183v-271h-192z" />
    <glyph glyph-name="Hbar" unicode="&#x126;" horiz-adv-x="684" 
d="M695 629v-137h-70v-492h-186v282h-194v-282h-187v492h-70v137h70v71h187v-71h194v71h186v-71h70zM439 436v56h-194v-56h194z" />
    <glyph glyph-name="Hcircumflex" unicode="&#x124;" horiz-adv-x="684" 
d="M58 0v700h192v-253h183v253h192v-700h-192v271h-183v-271h-192zM508 811l-99 -71l-67 85l-66 -85l-99 71l72 89h186z" />
    <glyph glyph-name="uni1E24" unicode="&#x1e24;" horiz-adv-x="684" 
d="M58 0v700h192v-253h183v253h192v-700h-192v271h-183v-271h-192zM269 -194v145h145v-145h-145z" />
    <glyph glyph-name="I" unicode="I" horiz-adv-x="309" 
d="M58 0v700h192v-700h-192z" />
    <glyph glyph-name="Iacute" unicode="&#xcd;" horiz-adv-x="309" 
d="M58 0v700h192v-700h-192zM57 760l102 151h176l-132 -151h-146z" />
    <glyph glyph-name="Ibreve" unicode="&#x12c;" horiz-adv-x="309" 
d="M58 0v700h192v-700h-192zM-16 900h95c11 -29 37 -44 78 -44s66 15 76 44h96c-5 -93 -71 -150 -172 -150c-103 0 -168 57 -173 150z" />
    <glyph glyph-name="uni01CF" unicode="&#x1cf;" horiz-adv-x="309" 
d="M58 0v700h192v-700h-192zM222 910l99 -71l-73 -89h-186l-72 89l99 71l66 -85z" />
    <glyph glyph-name="Icircumflex" unicode="&#xce;" horiz-adv-x="309" 
d="M58 0v700h192v-700h-192zM321 811l-99 -71l-67 85l-66 -85l-99 71l72 89h186z" />
    <glyph glyph-name="Idieresis" unicode="&#xcf;" horiz-adv-x="309" 
d="M58 0v700h192v-700h-192zM-29 750v145h145v-145h-145zM193 750v145h146v-145h-146z" />
    <glyph glyph-name="Idotaccent" unicode="&#x130;" horiz-adv-x="309" 
d="M58 0v700h192v-700h-192zM82 760v145h145v-145h-145z" />
    <glyph glyph-name="uni1ECA" unicode="&#x1eca;" horiz-adv-x="309" 
d="M58 0v700h192v-700h-192zM82 -194v145h145v-145h-145z" />
    <glyph glyph-name="Igrave" unicode="&#xcc;" horiz-adv-x="309" 
d="M58 0v700h192v-700h-192zM101 760l-134 151h178l100 -151h-144z" />
    <glyph glyph-name="Imacron" unicode="&#x12a;" horiz-adv-x="309" 
d="M58 0v700h192v-700h-192zM-19 760v109h348v-109h-348z" />
    <glyph glyph-name="Iogonek" unicode="&#x12e;" horiz-adv-x="309" 
d="M58 0v700h192v-700h-192zM33 -124c0 47 33 96 106 139l76 -15c-43 -33 -64 -62 -64 -86c0 -15 8 -23 23 -23c16 0 34 5 55 14l38 -101c-36 -16 -74 -24 -113 -24c-75 0 -121 33 -121 96z" />
    <glyph glyph-name="Itilde" unicode="&#x128;" horiz-adv-x="309" 
d="M58 0v700h192v-700h-192zM147 779c-23 11 -40 17 -51 17c-19 0 -30 -12 -34 -36h-84c4 93 40 144 104 144c29 0 46 -8 81 -24c23 -12 35 -17 50 -17c19 0 30 12 34 35h84c-3 -93 -39 -144 -103 -144c-28 0 -50 9 -81 25z" />
    <glyph glyph-name="J" unicode="J" horiz-adv-x="591" 
d="M14 228l188 17c5 -64 26 -89 73 -89s71 30 71 89v455h192v-471c0 -153 -109 -250 -263 -250c-77 0 -139 22 -186 65s-72 105 -75 184z" />
    <glyph glyph-name="Jcircumflex" unicode="&#x134;" horiz-adv-x="591" 
d="M14 228l188 17c5 -64 26 -89 73 -89s71 30 71 89v455h192v-471c0 -153 -109 -250 -263 -250c-77 0 -139 22 -186 65s-72 105 -75 184zM609 811l-99 -71l-67 85l-66 -85l-99 71l72 89h186z" />
    <glyph glyph-name="K" unicode="K" horiz-adv-x="677" 
d="M58 0v700h192v-257h2l195 257h224l-249 -308l265 -392h-231l-150 246h-2l-54 -68v-178h-192z" />
    <glyph glyph-name="uni0136" unicode="&#x136;" horiz-adv-x="677" 
d="M58 0v700h192v-257h2l195 257h224l-249 -308l265 -392h-231l-150 246h-2l-54 -68v-178h-192zM286 -320v71c40 7 51 22 51 59h-56v141h153v-118c0 -91 -51 -146 -148 -153z" />
    <glyph glyph-name="L" unicode="L" horiz-adv-x="543" 
d="M58 0v700h192v-524h280v-176h-472z" />
    <glyph glyph-name="Lacute" unicode="&#x139;" horiz-adv-x="543" 
d="M58 0v700h192v-524h280v-176h-472zM57 760l102 151h176l-132 -151h-146z" />
    <glyph glyph-name="Lcaron" unicode="&#x13d;" horiz-adv-x="560" 
d="M58 0v700h192v-524h280v-176h-472zM412 429v71c40 7 51 22 51 59h-56v141h153v-118c0 -91 -51 -146 -148 -153z" />
    <glyph glyph-name="uni013B" unicode="&#x13b;" horiz-adv-x="543" 
d="M58 0v700h192v-524h280v-176h-472zM223 -320v71c40 7 51 22 51 59h-56v141h153v-118c0 -91 -51 -146 -148 -153z" />
    <glyph glyph-name="Ldot" unicode="&#x13f;" horiz-adv-x="545" 
d="M58 0v700h192v-524h280v-176h-472zM334 319v197h202v-197h-202z" />
    <glyph glyph-name="uni1E36" unicode="&#x1e36;" horiz-adv-x="543" 
d="M58 0v700h192v-524h280v-176h-472zM222 -194v145h145v-145h-145z" />
    <glyph glyph-name="Lslash" unicode="&#x141;" horiz-adv-x="645" 
d="M153 0v700h192v-524h280v-176h-472zM220 218l299 286l-59 62l-220 -210v23l-240 -229l57 -58l163 155v-29z" />
    <glyph glyph-name="M" unicode="M" horiz-adv-x="893" 
d="M58 0v700h219l169 -427h2l168 427h219v-700h-188v383h-2l-151 -383h-95l-151 383h-2v-383h-188z" />
    <glyph glyph-name="N" unicode="N" horiz-adv-x="708" 
d="M58 0v700h187l211 -382h2v382h192v-700h-187l-211 382h-2v-382h-192z" />
    <glyph glyph-name="Nacute" unicode="&#x143;" horiz-adv-x="708" 
d="M58 0v700h187l211 -382h2v382h192v-700h-187l-211 382h-2v-382h-192zM256 760l102 151h176l-132 -151h-146z" />
    <glyph glyph-name="Ncaron" unicode="&#x147;" horiz-adv-x="708" 
d="M58 0v700h187l211 -382h2v382h192v-700h-187l-211 382h-2v-382h-192zM421 910l99 -71l-73 -89h-186l-72 89l99 71l66 -85z" />
    <glyph glyph-name="uni0145" unicode="&#x145;" horiz-adv-x="708" 
d="M58 0v700h187l211 -382h2v382h192v-700h-187l-211 382h-2v-382h-192zM292 -320v71c40 7 51 22 51 59h-56v141h153v-118c0 -91 -51 -146 -148 -153z" />
    <glyph glyph-name="uni1E44" unicode="&#x1e44;" horiz-adv-x="708" 
d="M58 0v700h187l211 -382h2v382h192v-700h-187l-211 382h-2v-382h-192zM281 760v145h145v-145h-145z" />
    <glyph glyph-name="uni1E46" unicode="&#x1e46;" horiz-adv-x="708" 
d="M58 0v700h187l211 -382h2v382h192v-700h-187l-211 382h-2v-382h-192zM291 -194v145h145v-145h-145z" />
    <glyph glyph-name="Eng" unicode="&#x14a;" horiz-adv-x="708" 
d="M457 700h192v-749c0 -113 -55 -173 -186 -173h-88v172h82c16 0 27 9 27 26v24l-232 360h-2v-360h-192v700h165l232 -360h2v360z" />
    <glyph glyph-name="Ntilde" unicode="&#xd1;" horiz-adv-x="708" 
d="M58 0v700h187l211 -382h2v382h192v-700h-187l-211 382h-2v-382h-192zM346 779c-23 11 -40 17 -51 17c-19 0 -30 -12 -34 -36h-84c4 93 40 144 104 144c29 0 46 -8 81 -24c23 -12 35 -17 50 -17c19 0 30 12 34 35h84c-3 -93 -39 -144 -103 -144c-28 0 -50 9 -81 25z" />
    <glyph glyph-name="O" unicode="O" horiz-adv-x="688" 
d="M12 349c0 219 136 372 331 372s332 -153 332 -372s-137 -370 -332 -370s-331 151 -331 370zM483 349c0 121 -55 195 -139 195s-140 -74 -140 -195c0 -120 55 -193 140 -193s139 72 139 193z" />
    <glyph glyph-name="Oacute" unicode="&#xd3;" horiz-adv-x="688" 
d="M12 349c0 219 136 372 331 372s332 -153 332 -372s-137 -370 -332 -370s-331 151 -331 370zM483 349c0 121 -55 195 -139 195s-140 -74 -140 -195c0 -120 55 -193 140 -193s139 72 139 193zM245 781l102 151h176l-132 -151h-146z" />
    <glyph glyph-name="Obreve" unicode="&#x14e;" horiz-adv-x="688" 
d="M12 349c0 219 136 372 331 372s332 -153 332 -372s-137 -370 -332 -370s-331 151 -331 370zM483 349c0 121 -55 195 -139 195s-140 -74 -140 -195c0 -120 55 -193 140 -193s139 72 139 193zM172 921h95c11 -29 37 -44 78 -44s66 15 76 44h96c-5 -93 -71 -150 -172 -150
c-103 0 -168 57 -173 150z" />
    <glyph glyph-name="uni01D1" unicode="&#x1d1;" horiz-adv-x="688" 
d="M12 349c0 219 136 372 331 372s332 -153 332 -372s-137 -370 -332 -370s-331 151 -331 370zM483 349c0 121 -55 195 -139 195s-140 -74 -140 -195c0 -120 55 -193 140 -193s139 72 139 193zM410 931l99 -71l-73 -89h-186l-72 89l99 71l66 -85z" />
    <glyph glyph-name="Ocircumflex" unicode="&#xd4;" horiz-adv-x="688" 
d="M12 349c0 219 136 372 331 372s332 -153 332 -372s-137 -370 -332 -370s-331 151 -331 370zM483 349c0 121 -55 195 -139 195s-140 -74 -140 -195c0 -120 55 -193 140 -193s139 72 139 193zM509 832l-99 -71l-67 85l-66 -85l-99 71l72 89h186z" />
    <glyph glyph-name="uni1ED8" unicode="&#x1ed8;" horiz-adv-x="688" 
d="M12 349c0 219 136 372 331 372s332 -153 332 -372s-137 -370 -332 -370s-331 151 -331 370zM483 349c0 121 -55 195 -139 195s-140 -74 -140 -195c0 -120 55 -193 140 -193s139 72 139 193zM509 832l-99 -71l-67 85l-66 -85l-99 71l72 89h186zM270 -215v145h145v-145
h-145z" />
    <glyph glyph-name="Odieresis" unicode="&#xd6;" horiz-adv-x="688" 
d="M12 349c0 219 136 372 331 372s332 -153 332 -372s-137 -370 -332 -370s-331 151 -331 370zM483 349c0 121 -55 195 -139 195s-140 -74 -140 -195c0 -120 55 -193 140 -193s139 72 139 193zM159 771v145h145v-145h-145zM381 771v145h146v-145h-146z" />
    <glyph glyph-name="uni1ECC" unicode="&#x1ecc;" horiz-adv-x="688" 
d="M12 349c0 219 136 372 331 372s332 -153 332 -372s-137 -370 -332 -370s-331 151 -331 370zM483 349c0 121 -55 195 -139 195s-140 -74 -140 -195c0 -120 55 -193 140 -193s139 72 139 193zM270 -215v145h145v-145h-145z" />
    <glyph glyph-name="Ograve" unicode="&#xd2;" horiz-adv-x="688" 
d="M12 349c0 219 136 372 331 372s332 -153 332 -372s-137 -370 -332 -370s-331 151 -331 370zM483 349c0 121 -55 195 -139 195s-140 -74 -140 -195c0 -120 55 -193 140 -193s139 72 139 193zM289 781l-134 151h178l100 -151h-144z" />
    <glyph glyph-name="Ohungarumlaut" unicode="&#x150;" horiz-adv-x="688" 
d="M12 349c0 219 136 372 331 372s332 -153 332 -372s-137 -370 -332 -370s-331 151 -331 370zM483 349c0 121 -55 195 -139 195s-140 -74 -140 -195c0 -120 55 -193 140 -193s139 72 139 193zM152 781l102 151h165l-132 -151h-135zM368 781l102 151h166l-133 -151h-135z
" />
    <glyph glyph-name="Omacron" unicode="&#x14c;" horiz-adv-x="688" 
d="M12 349c0 219 136 372 331 372s332 -153 332 -372s-137 -370 -332 -370s-331 151 -331 370zM483 349c0 121 -55 195 -139 195s-140 -74 -140 -195c0 -120 55 -193 140 -193s139 72 139 193zM169 781v109h348v-109h-348z" />
    <glyph glyph-name="Oslash" unicode="&#xd8;" horiz-adv-x="688" 
d="M675 349c0 -219 -137 -370 -332 -370c-47 0 -90 8 -131 25l-31 -57l-86 47l34 63c-75 67 -117 169 -117 292c0 219 136 372 331 372c48 0 92 -9 133 -26l32 58l84 -49l-34 -62c75 -67 117 -169 117 -293zM223 229l170 313c-15 6 -31 9 -49 9c-89 0 -144 -78 -144 -202
c0 -47 8 -87 23 -120zM488 349c0 48 -8 88 -23 121l-170 -312c15 -6 32 -9 49 -9c89 0 144 77 144 200z" />
    <glyph glyph-name="Oslashacute" unicode="&#x1fe;" horiz-adv-x="688" 
d="M675 349c0 -219 -137 -370 -332 -370c-47 0 -90 8 -131 25l-31 -57l-86 47l34 63c-75 67 -117 169 -117 292c0 219 136 372 331 372c48 0 92 -9 133 -26l32 58l84 -49l-34 -62c75 -67 117 -169 117 -293zM223 229l170 313c-15 6 -31 9 -49 9c-89 0 -144 -78 -144 -202
c0 -47 8 -87 23 -120zM488 349c0 48 -8 88 -23 121l-170 -312c15 -6 32 -9 49 -9c89 0 144 77 144 200zM245 781l102 151h176l-132 -151h-146z" />
    <glyph glyph-name="Otilde" unicode="&#xd5;" horiz-adv-x="688" 
d="M12 349c0 219 136 372 331 372s332 -153 332 -372s-137 -370 -332 -370s-331 151 -331 370zM483 349c0 121 -55 195 -139 195s-140 -74 -140 -195c0 -120 55 -193 140 -193s139 72 139 193zM335 800c-23 11 -40 17 -51 17c-19 0 -30 -12 -34 -36h-84c4 93 40 144 104 144
c29 0 46 -8 81 -24c23 -12 35 -17 50 -17c19 0 30 12 34 35h84c-3 -93 -39 -144 -103 -144c-28 0 -50 9 -81 25z" />
    <glyph glyph-name="uni1E4C" unicode="&#x1e4c;" horiz-adv-x="688" 
d="M12 349c0 219 136 372 331 372s332 -153 332 -372s-137 -370 -332 -370s-331 151 -331 370zM483 349c0 121 -55 195 -139 195s-140 -74 -140 -195c0 -120 55 -193 140 -193s139 72 139 193zM335 800c-23 11 -40 17 -51 17c-19 0 -30 -12 -34 -36h-84c4 93 40 144 104 144
c29 0 46 -8 81 -24c23 -12 35 -17 50 -17c19 0 30 12 34 35h84c-3 -93 -39 -144 -103 -144c-28 0 -50 9 -81 25zM245 955l102 151h176l-132 -151h-146z" />
    <glyph glyph-name="OE" unicode="&#x152;" horiz-adv-x="932" 
d="M12 350c-3 215 129 368 302 365c57 0 111 -18 139 -46h2v31h440v-170h-253v-101h230v-153h-230v-106h256v-170h-443v31h-2c-28 -28 -82 -46 -139 -46c-173 -3 -305 152 -302 365zM455 217v266c-24 43 -62 64 -113 64c-92 0 -143 -72 -143 -197c0 -123 52 -197 143 -197
c51 0 88 21 113 64z" />
    <glyph glyph-name="P" unicode="P" horiz-adv-x="624" 
d="M58 0v700h302c159 0 254 -90 254 -250s-95 -248 -254 -248h-110v-202h-192zM250 373h90c49 0 82 27 82 80c0 51 -26 76 -79 76h-93v-156z" />
    <glyph glyph-name="Thorn" unicode="&#xde;" horiz-adv-x="624" 
d="M614 356c0 -160 -95 -248 -254 -248h-110v-108h-192v700h192v-94h110c159 0 254 -91 254 -250zM422 359c0 51 -26 76 -79 76h-93v-157h90c49 0 82 26 82 81z" />
    <glyph glyph-name="Q" unicode="Q" horiz-adv-x="686" 
d="M615 124l59 -61l-90 -84l-54 56c-54 -37 -116 -56 -187 -56c-195 0 -331 151 -331 370s136 372 331 372s332 -153 332 -372c0 -87 -20 -162 -60 -225zM401 169l-103 107l92 80l84 -86c6 23 9 50 9 79c0 121 -55 195 -139 195s-140 -74 -140 -195c0 -120 55 -193 140 -193
c21 0 40 4 57 13z" />
    <glyph glyph-name="R" unicode="R" horiz-adv-x="649" 
d="M499 240l131 -240h-204l-106 213h-70v-213h-192v700h306c159 0 250 -86 250 -243c0 -100 -42 -175 -115 -215v-2zM422 457c0 49 -26 72 -81 72h-91v-146h91c52 0 81 27 81 74z" />
    <glyph glyph-name="Racute" unicode="&#x154;" horiz-adv-x="649" 
d="M499 240l131 -240h-204l-106 213h-70v-213h-192v700h306c159 0 250 -86 250 -243c0 -100 -42 -175 -115 -215v-2zM422 457c0 49 -26 72 -81 72h-91v-146h91c52 0 81 27 81 74zM217 760l102 151h176l-132 -151h-146z" />
    <glyph glyph-name="Rcaron" unicode="&#x158;" horiz-adv-x="649" 
d="M499 240l131 -240h-204l-106 213h-70v-213h-192v700h306c159 0 250 -86 250 -243c0 -100 -42 -175 -115 -215v-2zM422 457c0 49 -26 72 -81 72h-91v-146h91c52 0 81 27 81 74zM382 910l99 -71l-73 -89h-186l-72 89l99 71l66 -85z" />
    <glyph glyph-name="uni0156" unicode="&#x156;" horiz-adv-x="649" 
d="M499 240l131 -240h-204l-106 213h-70v-213h-192v700h306c159 0 250 -86 250 -243c0 -100 -42 -175 -115 -215v-2zM422 457c0 49 -26 72 -81 72h-91v-146h91c52 0 81 27 81 74zM253 -320v71c40 7 51 22 51 59h-56v141h153v-118c0 -91 -51 -146 -148 -153z" />
    <glyph glyph-name="S" unicode="S" horiz-adv-x="609" 
d="M8 242l177 27c17 -87 60 -127 137 -127c57 0 91 20 91 52c0 40 -35 62 -165 107c-155 55 -219 116 -219 209c0 123 112 211 263 211s265 -88 289 -223l-178 -31c-19 59 -58 91 -111 91c-47 0 -76 -18 -76 -47c0 -27 28 -40 160 -85c153 -53 224 -126 224 -233
c0 -129 -111 -214 -279 -214c-89 0 -162 23 -217 70s-87 111 -96 193z" />
    <glyph glyph-name="Sacute" unicode="&#x15a;" horiz-adv-x="609" 
d="M8 242l177 27c17 -87 60 -127 137 -127c57 0 91 20 91 52c0 40 -35 62 -165 107c-155 55 -219 116 -219 209c0 123 112 211 263 211s265 -88 289 -223l-178 -31c-19 59 -58 91 -111 91c-47 0 -76 -18 -76 -47c0 -27 28 -40 160 -85c153 -53 224 -126 224 -233
c0 -129 -111 -214 -279 -214c-89 0 -162 23 -217 70s-87 111 -96 193zM194 781l102 151h176l-132 -151h-146z" />
    <glyph glyph-name="Scaron" unicode="&#x160;" horiz-adv-x="609" 
d="M8 242l177 27c17 -87 60 -127 137 -127c57 0 91 20 91 52c0 40 -35 62 -165 107c-155 55 -219 116 -219 209c0 123 112 211 263 211s265 -88 289 -223l-178 -31c-19 59 -58 91 -111 91c-47 0 -76 -18 -76 -47c0 -27 28 -40 160 -85c153 -53 224 -126 224 -233
c0 -129 -111 -214 -279 -214c-89 0 -162 23 -217 70s-87 111 -96 193zM359 931l99 -71l-73 -89h-186l-72 89l99 71l66 -85z" />
    <glyph glyph-name="Scedilla" unicode="&#x15e;" horiz-adv-x="609" 
d="M8 242l177 27c17 -87 60 -127 137 -127c57 0 91 20 91 52c0 40 -35 62 -165 107c-155 55 -219 116 -219 209c0 123 112 211 263 211s265 -88 289 -223l-178 -31c-19 59 -58 91 -111 91c-47 0 -76 -18 -76 -47c0 -27 28 -40 160 -85c153 -53 224 -126 224 -233
c0 -129 -111 -214 -279 -214c-89 0 -162 23 -217 70s-87 111 -96 193zM464 -165c0 -73 -54 -124 -131 -124c-48 0 -88 11 -128 39l54 86c27 -16 46 -23 67 -23c25 0 39 11 39 31c0 17 -16 31 -37 31c-18 0 -35 -6 -50 -19l-66 26l82 142l62 -37l-21 -36h4
c77 0 125 -47 125 -116z" />
    <glyph glyph-name="Scircumflex" unicode="&#x15c;" horiz-adv-x="609" 
d="M8 242l177 27c17 -87 60 -127 137 -127c57 0 91 20 91 52c0 40 -35 62 -165 107c-155 55 -219 116 -219 209c0 123 112 211 263 211s265 -88 289 -223l-178 -31c-19 59 -58 91 -111 91c-47 0 -76 -18 -76 -47c0 -27 28 -40 160 -85c153 -53 224 -126 224 -233
c0 -129 -111 -214 -279 -214c-89 0 -162 23 -217 70s-87 111 -96 193zM458 832l-99 -71l-67 85l-66 -85l-99 71l72 89h186z" />
    <glyph glyph-name="uni0218" unicode="&#x218;" horiz-adv-x="609" 
d="M8 242l177 27c17 -87 60 -127 137 -127c57 0 91 20 91 52c0 40 -35 62 -165 107c-155 55 -219 116 -219 209c0 123 112 211 263 211s265 -88 289 -223l-178 -31c-19 59 -58 91 -111 91c-47 0 -76 -18 -76 -47c0 -27 28 -40 160 -85c153 -53 224 -126 224 -233
c0 -129 -111 -214 -279 -214c-89 0 -162 23 -217 70s-87 111 -96 193zM249 -341v71c40 7 51 22 51 59h-56v141h153v-118c0 -91 -51 -146 -148 -153z" />
    <glyph glyph-name="uni1E62" unicode="&#x1e62;" horiz-adv-x="609" 
d="M8 242l177 27c17 -87 60 -127 137 -127c57 0 91 20 91 52c0 40 -35 62 -165 107c-155 55 -219 116 -219 209c0 123 112 211 263 211s265 -88 289 -223l-178 -31c-19 59 -58 91 -111 91c-47 0 -76 -18 -76 -47c0 -27 28 -40 160 -85c153 -53 224 -126 224 -233
c0 -129 -111 -214 -279 -214c-89 0 -162 23 -217 70s-87 111 -96 193zM248 -215v145h145v-145h-145z" />
    <glyph glyph-name="uni018F" unicode="&#x18f;" horiz-adv-x="664" 
d="M12 349v67h444c-8 80 -55 128 -128 128c-61 0 -100 -31 -116 -92l-182 42c39 144 146 227 298 227c203 0 324 -145 324 -369c0 -233 -123 -373 -323 -373c-198 0 -317 142 -317 370zM451 270h-238c7 -71 49 -114 117 -114c71 0 117 45 121 114z" />
    <glyph glyph-name="T" unicode="T" horiz-adv-x="608" 
d="M208 0v524h-195v176h582v-176h-195v-524h-192z" />
    <glyph glyph-name="T.ordn" horiz-adv-x="608" 
d="M208 0v559h-195v176h582v-176h-195v-559h-192z" />
    <glyph glyph-name="Tbar" unicode="&#x166;" horiz-adv-x="608" 
d="M208 0v524h-195v176h582v-176h-195v-524h-192zM114 250v138h381v-138h-381z" />
    <glyph glyph-name="Tbar.ordn" horiz-adv-x="608" 
d="M208 0v559h-195v176h582v-176h-195v-559h-192zM114 282v138h381v-138h-381z" />
    <glyph glyph-name="Tcaron" unicode="&#x164;" horiz-adv-x="608" 
d="M208 0v524h-195v176h582v-176h-195v-524h-192zM372 910l99 -71l-73 -89h-186l-72 89l99 71l66 -85z" />
    <glyph glyph-name="Tcaron.ordn" horiz-adv-x="608" 
d="M208 0v559h-195v176h582v-176h-195v-559h-192zM372 945l99 -71l-73 -89h-186l-72 89l99 71l66 -85z" />
    <glyph glyph-name="uni0162" unicode="&#x162;" horiz-adv-x="608" 
d="M208 0v524h-195v176h582v-176h-195v-524h-192zM448 -145c0 -73 -54 -124 -131 -124c-48 0 -88 11 -128 39l54 86c27 -16 46 -23 67 -23c25 0 39 11 39 31c0 17 -16 31 -37 31c-18 0 -35 -6 -50 -19l-66 26l82 142l62 -37l-21 -36h4c77 0 125 -47 125 -116z" />
    <glyph glyph-name="uni0162.ordn" horiz-adv-x="608" 
d="M208 0v559h-195v176h582v-176h-195v-559h-192zM448 -145c0 -73 -54 -124 -131 -124c-48 0 -88 11 -128 39l54 86c27 -16 46 -23 67 -23c25 0 39 11 39 31c0 17 -16 31 -37 31c-18 0 -35 -6 -50 -19l-66 26l82 142l62 -37l-21 -36h4c77 0 125 -47 125 -116z" />
    <glyph glyph-name="uni021A" unicode="&#x21a;" horiz-adv-x="608" 
d="M208 0v524h-195v176h582v-176h-195v-524h-192zM233 -320v71c40 7 51 22 51 59h-56v141h153v-118c0 -91 -51 -146 -148 -153z" />
    <glyph glyph-name="uni021A.ordn" horiz-adv-x="608" 
d="M208 0v559h-195v176h582v-176h-195v-559h-192zM233 -320v71c40 7 51 22 51 59h-56v141h153v-118c0 -91 -51 -146 -148 -153z" />
    <glyph glyph-name="uni1E6C" unicode="&#x1e6c;" horiz-adv-x="608" 
d="M208 0v524h-195v176h582v-176h-195v-524h-192zM232 -194v145h145v-145h-145z" />
    <glyph glyph-name="uni1E6C.ordn" horiz-adv-x="608" 
d="M208 0v559h-195v176h582v-176h-195v-559h-192zM232 -194v145h145v-145h-145z" />
    <glyph glyph-name="U" unicode="U" horiz-adv-x="685" 
d="M53 238v462h192v-444c0 -71 29 -100 98 -100c67 0 97 31 97 100v444h192v-462c0 -163 -106 -259 -289 -259c-185 0 -290 94 -290 259z" />
    <glyph glyph-name="Uacute" unicode="&#xda;" horiz-adv-x="685" 
d="M53 238v462h192v-444c0 -71 29 -100 98 -100c67 0 97 31 97 100v444h192v-462c0 -163 -106 -259 -289 -259c-185 0 -290 94 -290 259zM244 760l102 151h176l-132 -151h-146z" />
    <glyph glyph-name="Ubreve" unicode="&#x16c;" horiz-adv-x="685" 
d="M53 238v462h192v-444c0 -71 29 -100 98 -100c67 0 97 31 97 100v444h192v-462c0 -163 -106 -259 -289 -259c-185 0 -290 94 -290 259zM171 900h95c11 -29 37 -44 78 -44s66 15 76 44h96c-5 -93 -71 -150 -172 -150c-103 0 -168 57 -173 150z" />
    <glyph glyph-name="uni01D3" unicode="&#x1d3;" horiz-adv-x="685" 
d="M53 238v462h192v-444c0 -71 29 -100 98 -100c67 0 97 31 97 100v444h192v-462c0 -163 -106 -259 -289 -259c-185 0 -290 94 -290 259zM409 910l99 -71l-73 -89h-186l-72 89l99 71l66 -85z" />
    <glyph glyph-name="Ucircumflex" unicode="&#xdb;" horiz-adv-x="685" 
d="M53 238v462h192v-444c0 -71 29 -100 98 -100c67 0 97 31 97 100v444h192v-462c0 -163 -106 -259 -289 -259c-185 0 -290 94 -290 259zM508 811l-99 -71l-67 85l-66 -85l-99 71l72 89h186z" />
    <glyph glyph-name="Udieresis" unicode="&#xdc;" horiz-adv-x="685" 
d="M53 238v462h192v-444c0 -71 29 -100 98 -100c67 0 97 31 97 100v444h192v-462c0 -163 -106 -259 -289 -259c-185 0 -290 94 -290 259zM158 750v145h145v-145h-145zM380 750v145h146v-145h-146z" />
    <glyph glyph-name="uni01D7" unicode="&#x1d7;" horiz-adv-x="685" 
d="M53 238v462h192v-444c0 -71 29 -100 98 -100c67 0 97 31 97 100v444h192v-462c0 -163 -106 -259 -289 -259c-185 0 -290 94 -290 259zM158 750v145h145v-145h-145zM380 750v145h146v-145h-146zM244 935l102 151h176l-132 -151h-146z" />
    <glyph glyph-name="uni01D9" unicode="&#x1d9;" horiz-adv-x="685" 
d="M53 238v462h192v-444c0 -71 29 -100 98 -100c67 0 97 31 97 100v444h192v-462c0 -163 -106 -259 -289 -259c-185 0 -290 94 -290 259zM158 750v145h145v-145h-145zM380 750v145h146v-145h-146zM409 1085l99 -71l-73 -89h-186l-72 89l99 71l66 -85z" />
    <glyph glyph-name="uni01DB" unicode="&#x1db;" horiz-adv-x="685" 
d="M53 238v462h192v-444c0 -71 29 -100 98 -100c67 0 97 31 97 100v444h192v-462c0 -163 -106 -259 -289 -259c-185 0 -290 94 -290 259zM158 750v145h145v-145h-145zM380 750v145h146v-145h-146zM288 935l-134 151h178l100 -151h-144z" />
    <glyph glyph-name="uni01D5" unicode="&#x1d5;" horiz-adv-x="685" 
d="M53 238v462h192v-444c0 -71 29 -100 98 -100c67 0 97 31 97 100v444h192v-462c0 -163 -106 -259 -289 -259c-185 0 -290 94 -290 259zM158 750v145h145v-145h-145zM380 750v145h146v-145h-146zM168 935v109h348v-109h-348z" />
    <glyph glyph-name="uni1EE4" unicode="&#x1ee4;" horiz-adv-x="685" 
d="M53 238v462h192v-444c0 -71 29 -100 98 -100c67 0 97 31 97 100v444h192v-462c0 -163 -106 -259 -289 -259c-185 0 -290 94 -290 259zM270 -215v145h145v-145h-145z" />
    <glyph glyph-name="Ugrave" unicode="&#xd9;" horiz-adv-x="685" 
d="M53 238v462h192v-444c0 -71 29 -100 98 -100c67 0 97 31 97 100v444h192v-462c0 -163 -106 -259 -289 -259c-185 0 -290 94 -290 259zM288 760l-134 151h178l100 -151h-144z" />
    <glyph glyph-name="Uhungarumlaut" unicode="&#x170;" horiz-adv-x="685" 
d="M53 238v462h192v-444c0 -71 29 -100 98 -100c67 0 97 31 97 100v444h192v-462c0 -163 -106 -259 -289 -259c-185 0 -290 94 -290 259zM151 760l102 151h165l-132 -151h-135zM367 760l102 151h166l-133 -151h-135z" />
    <glyph glyph-name="Umacron" unicode="&#x16a;" horiz-adv-x="685" 
d="M53 238v462h192v-444c0 -71 29 -100 98 -100c67 0 97 31 97 100v444h192v-462c0 -163 -106 -259 -289 -259c-185 0 -290 94 -290 259zM168 760v109h348v-109h-348z" />
    <glyph glyph-name="Uogonek" unicode="&#x172;" horiz-adv-x="685" 
d="M53 238v462h192v-444c0 -71 29 -100 98 -100c67 0 97 31 97 100v444h192v-462c0 -163 -106 -259 -289 -259c-185 0 -290 94 -290 259zM292 -124c0 47 33 96 106 139l76 -15c-43 -33 -64 -62 -64 -86c0 -15 8 -23 23 -23c16 0 34 5 55 14l38 -101
c-36 -16 -74 -24 -113 -24c-75 0 -121 33 -121 96z" />
    <glyph glyph-name="Uring" unicode="&#x16e;" horiz-adv-x="685" 
d="M53 238v462h192v-444c0 -71 29 -100 98 -100c67 0 97 31 97 100v444h192v-462c0 -163 -106 -259 -289 -259c-185 0 -290 94 -290 259zM171 849c0 86 72 150 171 150c98 0 172 -64 172 -150c0 -84 -74 -149 -172 -149c-99 0 -171 65 -171 149zM408 849c0 39 -27 65 -66 65
s-65 -26 -65 -65c0 -37 28 -64 65 -64c39 0 66 27 66 64z" />
    <glyph glyph-name="Utilde" unicode="&#x168;" horiz-adv-x="685" 
d="M53 238v462h192v-444c0 -71 29 -100 98 -100c67 0 97 31 97 100v444h192v-462c0 -163 -106 -259 -289 -259c-185 0 -290 94 -290 259zM334 779c-23 11 -40 17 -51 17c-19 0 -30 -12 -34 -36h-84c4 93 40 144 104 144c29 0 46 -8 81 -24c23 -12 35 -17 50 -17
c19 0 30 12 34 35h84c-3 -93 -39 -144 -103 -144c-28 0 -50 9 -81 25z" />
    <glyph glyph-name="V" unicode="V" horiz-adv-x="663" 
d="M230 0l-241 700h193l149 -469h2l148 469h193l-241 -700h-203z" />
    <glyph glyph-name="W" unicode="W" horiz-adv-x="936" 
d="M152 0l-148 700h194l78 -405h2l125 405h130l124 -405h2l79 405h194l-148 -700h-188l-127 384h-2l-125 -384h-190z" />
    <glyph glyph-name="Wacute" unicode="&#x1e82;" horiz-adv-x="936" 
d="M152 0l-148 700h194l78 -405h2l125 405h130l124 -405h2l79 405h194l-148 -700h-188l-127 384h-2l-125 -384h-190zM369 760l102 151h176l-132 -151h-146z" />
    <glyph glyph-name="Wcircumflex" unicode="&#x174;" horiz-adv-x="936" 
d="M152 0l-148 700h194l78 -405h2l125 405h130l124 -405h2l79 405h194l-148 -700h-188l-127 384h-2l-125 -384h-190zM633 811l-99 -71l-67 85l-66 -85l-99 71l72 89h186z" />
    <glyph glyph-name="Wdieresis" unicode="&#x1e84;" horiz-adv-x="936" 
d="M152 0l-148 700h194l78 -405h2l125 405h130l124 -405h2l79 405h194l-148 -700h-188l-127 384h-2l-125 -384h-190zM283 750v145h145v-145h-145zM505 750v145h146v-145h-146z" />
    <glyph glyph-name="Wgrave" unicode="&#x1e80;" horiz-adv-x="936" 
d="M152 0l-148 700h194l78 -405h2l125 405h130l124 -405h2l79 405h194l-148 -700h-188l-127 384h-2l-125 -384h-190zM413 760l-134 151h178l100 -151h-144z" />
    <glyph glyph-name="X" unicode="X" horiz-adv-x="651" 
d="M-6 0l220 356l-213 344h219l105 -198h2l107 198h218l-214 -344l219 -356h-218l-112 210h-2l-113 -210h-218z" />
    <glyph glyph-name="Y" unicode="Y" horiz-adv-x="656" 
d="M232 0v285l-248 415h216l127 -236h3l126 236h216l-248 -415v-285h-192z" />
    <glyph glyph-name="Yacute" unicode="&#xdd;" horiz-adv-x="656" 
d="M232 0v285l-248 415h216l127 -236h3l126 236h216l-248 -415v-285h-192zM230 760l102 151h176l-132 -151h-146z" />
    <glyph glyph-name="Ycircumflex" unicode="&#x176;" horiz-adv-x="656" 
d="M232 0v285l-248 415h216l127 -236h3l126 236h216l-248 -415v-285h-192zM494 811l-99 -71l-67 85l-66 -85l-99 71l72 89h186z" />
    <glyph glyph-name="Ydieresis" unicode="&#x178;" horiz-adv-x="656" 
d="M232 0v285l-248 415h216l127 -236h3l126 236h216l-248 -415v-285h-192zM144 750v145h145v-145h-145zM366 750v145h146v-145h-146z" />
    <glyph glyph-name="uni1EF4" unicode="&#x1ef4;" horiz-adv-x="656" 
d="M232 0v285l-248 415h216l127 -236h3l126 236h216l-248 -415v-285h-192zM255 -194v145h145v-145h-145z" />
    <glyph glyph-name="Ygrave" unicode="&#x1ef2;" horiz-adv-x="656" 
d="M232 0v285l-248 415h216l127 -236h3l126 236h216l-248 -415v-285h-192zM274 760l-134 151h178l100 -151h-144z" />
    <glyph glyph-name="uni1EF8" unicode="&#x1ef8;" horiz-adv-x="656" 
d="M232 0v285l-248 415h216l127 -236h3l126 236h216l-248 -415v-285h-192zM320 779c-23 11 -40 17 -51 17c-19 0 -30 -12 -34 -36h-84c4 93 40 144 104 144c29 0 46 -8 81 -24c23 -12 35 -17 50 -17c19 0 30 12 34 35h84c-3 -93 -39 -144 -103 -144c-28 0 -50 9 -81 25z" />
    <glyph glyph-name="Z" unicode="Z" horiz-adv-x="591" 
d="M29 0v159l286 363v2h-277v176h523v-159l-286 -363v-2h287v-176h-533z" />
    <glyph glyph-name="Zacute" unicode="&#x179;" horiz-adv-x="591" 
d="M29 0v159l286 363v2h-277v176h523v-159l-286 -363v-2h287v-176h-533zM201 760l102 151h176l-132 -151h-146z" />
    <glyph glyph-name="Zcaron" unicode="&#x17d;" horiz-adv-x="591" 
d="M29 0v159l286 363v2h-277v176h523v-159l-286 -363v-2h287v-176h-533zM366 910l99 -71l-73 -89h-186l-72 89l99 71l66 -85z" />
    <glyph glyph-name="Zdotaccent" unicode="&#x17b;" horiz-adv-x="591" 
d="M29 0v159l286 363v2h-277v176h523v-159l-286 -363v-2h287v-176h-533zM226 760v145h145v-145h-145z" />
    <glyph glyph-name="uni1E92" unicode="&#x1e92;" horiz-adv-x="591" 
d="M29 0v159l286 363v2h-277v176h523v-159l-286 -363v-2h287v-176h-533zM223 -194v145h145v-145h-145z" />
    <glyph glyph-name="a" unicode="a" horiz-adv-x="527" 
d="M18 149c0 81 56 132 177 161c93 23 121 37 121 62c0 23 -20 35 -59 35c-44 0 -68 -25 -77 -78l-162 33c16 108 117 189 239 189c141 0 236 -84 236 -209v-342h-160v46h-2c-19 -37 -70 -61 -130 -61c-115 0 -183 61 -183 164zM318 187v54h-2c-5 -13 -18 -21 -58 -34
c-48 -15 -64 -27 -64 -48s15 -31 45 -31c40 0 79 28 79 59z" />
    <glyph glyph-name="aacute" unicode="&#xe1;" horiz-adv-x="527" 
d="M18 149c0 81 56 132 177 161c93 23 121 37 121 62c0 23 -20 35 -59 35c-44 0 -68 -25 -77 -78l-162 33c16 108 117 189 239 189c141 0 236 -84 236 -209v-342h-160v46h-2c-19 -37 -70 -61 -130 -61c-115 0 -183 61 -183 164zM318 187v54h-2c-5 -13 -18 -21 -58 -34
c-48 -15 -64 -27 -64 -48s15 -31 45 -31c40 0 79 28 79 59zM159 611l102 151h176l-132 -151h-146z" />
    <glyph glyph-name="abreve" unicode="&#x103;" horiz-adv-x="527" 
d="M18 149c0 81 56 132 177 161c93 23 121 37 121 62c0 23 -20 35 -59 35c-44 0 -68 -25 -77 -78l-162 33c16 108 117 189 239 189c141 0 236 -84 236 -209v-342h-160v46h-2c-19 -37 -70 -61 -130 -61c-115 0 -183 61 -183 164zM318 187v54h-2c-5 -13 -18 -21 -58 -34
c-48 -15 -64 -27 -64 -48s15 -31 45 -31c40 0 79 28 79 59zM86 751h95c11 -29 37 -44 78 -44s66 15 76 44h96c-5 -93 -71 -150 -172 -150c-103 0 -168 57 -173 150z" />
    <glyph glyph-name="uni01CE" unicode="&#x1ce;" horiz-adv-x="527" 
d="M18 149c0 81 56 132 177 161c93 23 121 37 121 62c0 23 -20 35 -59 35c-44 0 -68 -25 -77 -78l-162 33c16 108 117 189 239 189c141 0 236 -84 236 -209v-342h-160v46h-2c-19 -37 -70 -61 -130 -61c-115 0 -183 61 -183 164zM318 187v54h-2c-5 -13 -18 -21 -58 -34
c-48 -15 -64 -27 -64 -48s15 -31 45 -31c40 0 79 28 79 59zM324 761l99 -71l-73 -89h-186l-72 89l99 71l66 -85z" />
    <glyph glyph-name="acircumflex" unicode="&#xe2;" horiz-adv-x="527" 
d="M18 149c0 81 56 132 177 161c93 23 121 37 121 62c0 23 -20 35 -59 35c-44 0 -68 -25 -77 -78l-162 33c16 108 117 189 239 189c141 0 236 -84 236 -209v-342h-160v46h-2c-19 -37 -70 -61 -130 -61c-115 0 -183 61 -183 164zM318 187v54h-2c-5 -13 -18 -21 -58 -34
c-48 -15 -64 -27 -64 -48s15 -31 45 -31c40 0 79 28 79 59zM423 662l-99 -71l-67 85l-66 -85l-99 71l72 89h186z" />
    <glyph glyph-name="uni1EAD" unicode="&#x1ead;" horiz-adv-x="527" 
d="M18 149c0 81 56 132 177 161c93 23 121 37 121 62c0 23 -20 35 -59 35c-44 0 -68 -25 -77 -78l-162 33c16 108 117 189 239 189c141 0 236 -84 236 -209v-342h-160v46h-2c-19 -37 -70 -61 -130 -61c-115 0 -183 61 -183 164zM318 187v54h-2c-5 -13 -18 -21 -58 -34
c-48 -15 -64 -27 -64 -48s15 -31 45 -31c40 0 79 28 79 59zM423 662l-99 -71l-67 85l-66 -85l-99 71l72 89h186zM193 -209v145h145v-145h-145z" />
    <glyph glyph-name="adieresis" unicode="&#xe4;" horiz-adv-x="527" 
d="M18 149c0 81 56 132 177 161c93 23 121 37 121 62c0 23 -20 35 -59 35c-44 0 -68 -25 -77 -78l-162 33c16 108 117 189 239 189c141 0 236 -84 236 -209v-342h-160v46h-2c-19 -37 -70 -61 -130 -61c-115 0 -183 61 -183 164zM318 187v54h-2c-5 -13 -18 -21 -58 -34
c-48 -15 -64 -27 -64 -48s15 -31 45 -31c40 0 79 28 79 59zM73 601v145h145v-145h-145zM295 601v145h146v-145h-146z" />
    <glyph glyph-name="uni01DF" unicode="&#x1df;" horiz-adv-x="527" 
d="M18 149c0 81 56 132 177 161c93 23 121 37 121 62c0 23 -20 35 -59 35c-44 0 -68 -25 -77 -78l-162 33c16 108 117 189 239 189c141 0 236 -84 236 -209v-342h-160v46h-2c-19 -37 -70 -61 -130 -61c-115 0 -183 61 -183 164zM318 187v54h-2c-5 -13 -18 -21 -58 -34
c-48 -15 -64 -27 -64 -48s15 -31 45 -31c40 0 79 28 79 59zM73 601v145h145v-145h-145zM295 601v145h146v-145h-146zM83 786v109h348v-109h-348z" />
    <glyph glyph-name="uni1EA1" unicode="&#x1ea1;" horiz-adv-x="527" 
d="M18 149c0 81 56 132 177 161c93 23 121 37 121 62c0 23 -20 35 -59 35c-44 0 -68 -25 -77 -78l-162 33c16 108 117 189 239 189c141 0 236 -84 236 -209v-342h-160v46h-2c-19 -37 -70 -61 -130 -61c-115 0 -183 61 -183 164zM318 187v54h-2c-5 -13 -18 -21 -58 -34
c-48 -15 -64 -27 -64 -48s15 -31 45 -31c40 0 79 28 79 59zM193 -209v145h145v-145h-145z" />
    <glyph glyph-name="agrave" unicode="&#xe0;" horiz-adv-x="527" 
d="M18 149c0 81 56 132 177 161c93 23 121 37 121 62c0 23 -20 35 -59 35c-44 0 -68 -25 -77 -78l-162 33c16 108 117 189 239 189c141 0 236 -84 236 -209v-342h-160v46h-2c-19 -37 -70 -61 -130 -61c-115 0 -183 61 -183 164zM318 187v54h-2c-5 -13 -18 -21 -58 -34
c-48 -15 -64 -27 -64 -48s15 -31 45 -31c40 0 79 28 79 59zM203 611l-134 151h178l100 -151h-144z" />
    <glyph glyph-name="amacron" unicode="&#x101;" horiz-adv-x="527" 
d="M18 149c0 81 56 132 177 161c93 23 121 37 121 62c0 23 -20 35 -59 35c-44 0 -68 -25 -77 -78l-162 33c16 108 117 189 239 189c141 0 236 -84 236 -209v-342h-160v46h-2c-19 -37 -70 -61 -130 -61c-115 0 -183 61 -183 164zM318 187v54h-2c-5 -13 -18 -21 -58 -34
c-48 -15 -64 -27 -64 -48s15 -31 45 -31c40 0 79 28 79 59zM83 611v109h348v-109h-348z" />
    <glyph glyph-name="aogonek" unicode="&#x105;" horiz-adv-x="527" 
d="M18 149c0 81 56 132 177 161c93 23 121 37 121 62c0 23 -20 35 -59 35c-44 0 -68 -25 -77 -78l-162 33c16 108 117 189 239 189c141 0 236 -84 236 -209v-342h-160v46h-2c-19 -37 -70 -61 -130 -61c-115 0 -183 61 -183 164zM318 187v54h-2c-5 -13 -18 -21 -58 -34
c-48 -15 -64 -27 -64 -48s15 -31 45 -31c40 0 79 28 79 59zM298 -124c0 47 33 96 106 139l76 -15c-43 -33 -64 -62 -64 -86c0 -15 8 -23 23 -23c16 0 34 5 55 14l38 -101c-36 -16 -74 -24 -113 -24c-75 0 -121 33 -121 96z" />
    <glyph glyph-name="aring" unicode="&#xe5;" horiz-adv-x="527" 
d="M107 704c0 39 14 72 43 97s66 38 111 38s82 -13 111 -39c29 -25 44 -57 44 -96s-15 -71 -44 -97c-29 -25 -66 -38 -111 -38s-82 13 -111 38s-43 58 -43 97zM320 704c0 35 -24 58 -59 58s-59 -25 -59 -58s24 -58 59 -58s59 23 59 58zM18 149c0 81 56 132 177 161
c93 23 121 37 121 62c0 23 -20 35 -59 35c-44 0 -68 -25 -77 -78l-162 33c16 108 117 189 239 189c141 0 236 -84 236 -209v-342h-160v46h-2c-19 -37 -70 -61 -130 -61c-115 0 -183 61 -183 164zM318 187v54h-2c-5 -13 -18 -21 -58 -34c-48 -15 -64 -27 -64 -48
s15 -31 45 -31c40 0 79 28 79 59z" />
    <glyph glyph-name="aringacute" unicode="&#x1fb;" horiz-adv-x="537" 
d="M107 702c0 56 35 103 88 123l88 130h176l-118 -136c47 -23 75 -65 75 -117c0 -39 -15 -71 -44 -97c-29 -25 -66 -38 -111 -38s-82 13 -111 38s-43 58 -43 97zM320 702c0 35 -24 58 -59 58s-59 -25 -59 -58s24 -58 59 -58s59 23 59 58zM493 342v-342h-160v46h-2
c-19 -37 -70 -61 -130 -61c-115 0 -183 61 -183 164c0 81 56 132 177 161c93 23 121 37 121 62c0 23 -20 35 -59 35c-44 0 -68 -25 -77 -78l-162 33c16 108 117 189 239 189c141 0 236 -84 236 -209zM318 187v54h-2c-5 -13 -18 -21 -58 -34c-48 -15 -64 -27 -64 -48
s15 -31 45 -31c40 0 79 28 79 59z" />
    <glyph glyph-name="atilde" unicode="&#xe3;" horiz-adv-x="527" 
d="M18 149c0 81 56 132 177 161c93 23 121 37 121 62c0 23 -20 35 -59 35c-44 0 -68 -25 -77 -78l-162 33c16 108 117 189 239 189c141 0 236 -84 236 -209v-342h-160v46h-2c-19 -37 -70 -61 -130 -61c-115 0 -183 61 -183 164zM318 187v54h-2c-5 -13 -18 -21 -58 -34
c-48 -15 -64 -27 -64 -48s15 -31 45 -31c40 0 79 28 79 59zM249 630c-23 11 -40 17 -51 17c-19 0 -30 -12 -34 -36h-84c4 93 40 144 104 144c29 0 46 -8 81 -24c23 -12 35 -17 50 -17c19 0 30 12 34 35h84c-3 -93 -39 -144 -103 -144c-28 0 -50 9 -81 25z" />
    <glyph glyph-name="ae" unicode="&#xe6;" horiz-adv-x="843" 
d="M824 265v-52h-338c4 -57 39 -87 98 -87c44 0 82 23 114 68l118 -101c-56 -76 -133 -114 -221 -114c-83 0 -148 26 -194 79c-45 -52 -99 -79 -180 -79c-121 0 -193 64 -193 168c0 37 10 67 29 90c39 45 89 61 169 81c72 19 99 27 99 55c0 24 -21 39 -61 39
c-53 0 -85 -27 -94 -81l-152 31c14 113 120 189 248 189c61 0 118 -20 154 -56c40 37 91 56 154 56c145 0 250 -117 250 -286zM487 330h174c-5 51 -36 79 -87 79c-47 0 -78 -28 -87 -79zM328 185v60h-2c-7 -17 -27 -25 -64 -37c-44 -13 -68 -25 -68 -50s19 -39 54 -39
c45 0 80 29 80 66z" />
    <glyph glyph-name="aeacute" unicode="&#x1fd;" horiz-adv-x="843" 
d="M824 265v-52h-338c4 -57 39 -87 98 -87c44 0 82 23 114 68l118 -101c-56 -76 -133 -114 -221 -114c-83 0 -148 26 -194 79c-45 -52 -99 -79 -180 -79c-121 0 -193 64 -193 168c0 37 10 67 29 90c39 45 89 61 169 81c72 19 99 27 99 55c0 24 -21 39 -61 39
c-53 0 -85 -27 -94 -81l-152 31c14 113 120 189 248 189c61 0 118 -20 154 -56c40 37 91 56 154 56c145 0 250 -117 250 -286zM487 330h174c-5 51 -36 79 -87 79c-47 0 -78 -28 -87 -79zM328 185v60h-2c-7 -17 -27 -25 -64 -37c-44 -13 -68 -25 -68 -50s19 -39 54 -39
c45 0 80 29 80 66zM323 590l102 151h176l-132 -151h-146z" />
    <glyph glyph-name="b" unicode="b" horiz-adv-x="616" 
d="M217 52h-2v-52h-171v730h187v-240h2c29 35 78 55 129 55c135 0 236 -119 236 -278c0 -160 -98 -276 -236 -276c-59 0 -110 21 -145 61zM411 265c0 71 -34 112 -91 112c-49 0 -89 -35 -89 -82v-51c0 -52 37 -88 89 -88c56 0 91 41 91 109z" />
    <glyph glyph-name="uni1E05" unicode="&#x1e05;" horiz-adv-x="616" 
d="M217 52h-2v-52h-171v730h187v-240h2c29 35 78 55 129 55c135 0 236 -119 236 -278c0 -160 -98 -276 -236 -276c-59 0 -110 21 -145 61zM411 265c0 71 -34 112 -91 112c-49 0 -89 -35 -89 -82v-51c0 -52 37 -88 89 -88c56 0 91 41 91 109zM275 -203v145h145v-145h-145z
" />
    <glyph glyph-name="c" unicode="c" horiz-adv-x="560" 
d="M18 265c0 167 117 286 273 286c68 0 125 -19 170 -58c46 -38 74 -89 85 -154l-173 -32c-9 49 -38 76 -81 76c-55 0 -87 -43 -87 -118s32 -118 87 -118c43 0 72 27 81 76l173 -32c-11 -65 -39 -116 -85 -155c-45 -38 -102 -57 -170 -57c-156 0 -273 119 -273 286z" />
    <glyph glyph-name="cacute" unicode="&#x107;" horiz-adv-x="560" 
d="M18 265c0 167 117 286 273 286c68 0 125 -19 170 -58c46 -38 74 -89 85 -154l-173 -32c-9 49 -38 76 -81 76c-55 0 -87 -43 -87 -118s32 -118 87 -118c43 0 72 27 81 76l173 -32c-11 -65 -39 -116 -85 -155c-45 -38 -102 -57 -170 -57c-156 0 -273 119 -273 286zM193 611
l102 151h176l-132 -151h-146z" />
    <glyph glyph-name="ccaron" unicode="&#x10d;" horiz-adv-x="560" 
d="M18 265c0 167 117 286 273 286c68 0 125 -19 170 -58c46 -38 74 -89 85 -154l-173 -32c-9 49 -38 76 -81 76c-55 0 -87 -43 -87 -118s32 -118 87 -118c43 0 72 27 81 76l173 -32c-11 -65 -39 -116 -85 -155c-45 -38 -102 -57 -170 -57c-156 0 -273 119 -273 286zM358 761
l99 -71l-73 -89h-186l-72 89l99 71l66 -85z" />
    <glyph glyph-name="ccedilla" unicode="&#xe7;" horiz-adv-x="560" 
d="M18 265c0 167 117 286 273 286c68 0 125 -19 170 -58c46 -38 74 -89 85 -154l-173 -32c-9 49 -38 76 -81 76c-55 0 -87 -43 -87 -118s32 -118 87 -118c43 0 72 27 81 76l173 -32c-11 -65 -39 -116 -85 -155c-45 -38 -102 -57 -170 -57c-156 0 -273 119 -273 286z
M434 -165c0 -73 -54 -124 -131 -124c-48 0 -88 11 -128 39l54 86c27 -16 46 -23 67 -23c25 0 39 11 39 31c0 17 -16 31 -37 31c-18 0 -35 -6 -50 -19l-66 26l82 142l62 -37l-21 -36h4c77 0 125 -47 125 -116z" />
    <glyph glyph-name="ccircumflex" unicode="&#x109;" horiz-adv-x="560" 
d="M18 265c0 167 117 286 273 286c68 0 125 -19 170 -58c46 -38 74 -89 85 -154l-173 -32c-9 49 -38 76 -81 76c-55 0 -87 -43 -87 -118s32 -118 87 -118c43 0 72 27 81 76l173 -32c-11 -65 -39 -116 -85 -155c-45 -38 -102 -57 -170 -57c-156 0 -273 119 -273 286zM457 662
l-99 -71l-67 85l-66 -85l-99 71l72 89h186z" />
    <glyph glyph-name="cdotaccent" unicode="&#x10b;" horiz-adv-x="560" 
d="M18 265c0 167 117 286 273 286c68 0 125 -19 170 -58c46 -38 74 -89 85 -154l-173 -32c-9 49 -38 76 -81 76c-55 0 -87 -43 -87 -118s32 -118 87 -118c43 0 72 27 81 76l173 -32c-11 -65 -39 -116 -85 -155c-45 -38 -102 -57 -170 -57c-156 0 -273 119 -273 286zM218 611
v145h145v-145h-145z" />
    <glyph glyph-name="d" unicode="d" horiz-adv-x="616" 
d="M18 267c0 159 101 278 236 278c51 0 100 -20 129 -55h2v240h187v-730h-171v52h-2c-35 -40 -86 -61 -145 -61c-138 0 -236 116 -236 276zM385 244v51c0 47 -40 82 -89 82c-57 0 -91 -41 -91 -112c0 -68 35 -109 91 -109c52 0 89 36 89 88z" />
    <glyph glyph-name="eth" unicode="&#xf0;" horiz-adv-x="598" 
d="M580 290c0 -195 -110 -311 -284 -311c-164 0 -278 115 -278 282c0 163 107 283 250 283c41 0 76 -9 106 -28h2c-15 30 -36 63 -63 99l-139 -38l-20 72l106 28c-25 27 -57 59 -97 96v2h179c28 -29 46 -50 55 -61l130 35l20 -71l-101 -27c84 -117 134 -242 134 -361z
M391 264c0 76 -33 119 -93 119s-93 -43 -93 -119c0 -73 33 -117 93 -117s93 44 93 117z" />
    <glyph glyph-name="dcaron" unicode="&#x10f;" horiz-adv-x="786" 
d="M18 267c0 159 101 278 236 278c51 0 100 -20 129 -55h2v240h187v-730h-171v52h-2c-35 -40 -86 -61 -145 -61c-138 0 -236 116 -236 276zM385 244v51c0 47 -40 82 -89 82c-57 0 -91 -41 -91 -112c0 -68 35 -109 91 -109c52 0 89 36 89 88zM627 459v71c40 7 51 22 51 59
h-56v141h153v-118c0 -91 -51 -146 -148 -153z" />
    <glyph glyph-name="dcroat" unicode="&#x111;" horiz-adv-x="616" 
d="M18 267c0 159 101 278 236 278c51 0 100 -20 129 -55h2v240h187v-730h-171v52h-2c-35 -40 -86 -61 -145 -61c-138 0 -236 116 -236 276zM385 244v51c0 47 -40 82 -89 82c-57 0 -91 -41 -91 -112c0 -68 35 -109 91 -109c52 0 89 36 89 88zM209 577v107h411v-107h-411z" />
    <glyph glyph-name="uni1E0D" unicode="&#x1e0d;" horiz-adv-x="616" 
d="M18 267c0 159 101 278 236 278c51 0 100 -20 129 -55h2v240h187v-730h-171v52h-2c-35 -40 -86 -61 -145 -61c-138 0 -236 116 -236 276zM385 244v51c0 47 -40 82 -89 82c-57 0 -91 -41 -91 -112c0 -68 35 -109 91 -109c52 0 89 36 89 88zM237 -194v145h145v-145h-145z
" />
    <glyph glyph-name="e" unicode="e" horiz-adv-x="578" 
d="M18 264c-3 165 115 290 271 287c159 0 271 -117 271 -286v-52h-360c4 -58 38 -87 102 -87c44 0 81 23 120 68l113 -110c-68 -71 -144 -105 -233 -105c-171 0 -284 112 -284 285zM202 329h185c-5 52 -37 81 -93 81c-52 0 -85 -29 -92 -81z" />
    <glyph glyph-name="eacute" unicode="&#xe9;" horiz-adv-x="578" 
d="M18 264c-3 165 115 290 271 287c159 0 271 -117 271 -286v-52h-360c4 -58 38 -87 102 -87c44 0 81 23 120 68l113 -110c-68 -71 -144 -105 -233 -105c-171 0 -284 112 -284 285zM202 329h185c-5 52 -37 81 -93 81c-52 0 -85 -29 -92 -81zM191 611l102 151h176l-132 -151
h-146z" />
    <glyph glyph-name="ebreve" unicode="&#x115;" horiz-adv-x="578" 
d="M18 264c-3 165 115 290 271 287c159 0 271 -117 271 -286v-52h-360c4 -58 38 -87 102 -87c44 0 81 23 120 68l113 -110c-68 -71 -144 -105 -233 -105c-171 0 -284 112 -284 285zM202 329h185c-5 52 -37 81 -93 81c-52 0 -85 -29 -92 -81zM118 751h95
c11 -29 37 -44 78 -44s66 15 76 44h96c-5 -93 -71 -150 -172 -150c-103 0 -168 57 -173 150z" />
    <glyph glyph-name="ecaron" unicode="&#x11b;" horiz-adv-x="578" 
d="M18 264c-3 165 115 290 271 287c159 0 271 -117 271 -286v-52h-360c4 -58 38 -87 102 -87c44 0 81 23 120 68l113 -110c-68 -71 -144 -105 -233 -105c-171 0 -284 112 -284 285zM202 329h185c-5 52 -37 81 -93 81c-52 0 -85 -29 -92 -81zM356 761l99 -71l-73 -89h-186
l-72 89l99 71l66 -85z" />
    <glyph glyph-name="uni0229" unicode="&#x229;" horiz-adv-x="578" 
d="M18 264c-3 165 115 290 271 287c159 0 271 -117 271 -286v-52h-360c4 -58 38 -87 102 -87c44 0 81 23 120 68l113 -110c-68 -71 -144 -105 -233 -105c-171 0 -284 112 -284 285zM202 329h185c-5 52 -37 81 -93 81c-52 0 -85 -29 -92 -81zM445 -165
c0 -73 -54 -124 -131 -124c-48 0 -88 11 -128 39l54 86c27 -16 46 -23 67 -23c25 0 39 11 39 31c0 17 -16 31 -37 31c-18 0 -35 -6 -50 -19l-66 26l82 142l62 -37l-21 -36h4c77 0 125 -47 125 -116z" />
    <glyph glyph-name="ecircumflex" unicode="&#xea;" horiz-adv-x="578" 
d="M18 264c-3 165 115 290 271 287c159 0 271 -117 271 -286v-52h-360c4 -58 38 -87 102 -87c44 0 81 23 120 68l113 -110c-68 -71 -144 -105 -233 -105c-171 0 -284 112 -284 285zM202 329h185c-5 52 -37 81 -93 81c-52 0 -85 -29 -92 -81zM455 662l-99 -71l-67 85l-66 -85
l-99 71l72 89h186z" />
    <glyph glyph-name="uni1EC7" unicode="&#x1ec7;" horiz-adv-x="578" 
d="M18 264c-3 165 115 290 271 287c159 0 271 -117 271 -286v-52h-360c4 -58 38 -87 102 -87c44 0 81 23 120 68l113 -110c-68 -71 -144 -105 -233 -105c-171 0 -284 112 -284 285zM202 329h185c-5 52 -37 81 -93 81c-52 0 -85 -29 -92 -81zM455 662l-99 -71l-67 85l-66 -85
l-99 71l72 89h186zM229 -215v145h145v-145h-145z" />
    <glyph glyph-name="edieresis" unicode="&#xeb;" horiz-adv-x="578" 
d="M18 264c-3 165 115 290 271 287c159 0 271 -117 271 -286v-52h-360c4 -58 38 -87 102 -87c44 0 81 23 120 68l113 -110c-68 -71 -144 -105 -233 -105c-171 0 -284 112 -284 285zM202 329h185c-5 52 -37 81 -93 81c-52 0 -85 -29 -92 -81zM105 601v145h145v-145h-145z
M327 601v145h146v-145h-146z" />
    <glyph glyph-name="edotaccent" unicode="&#x117;" horiz-adv-x="578" 
d="M18 264c-3 165 115 290 271 287c159 0 271 -117 271 -286v-52h-360c4 -58 38 -87 102 -87c44 0 81 23 120 68l113 -110c-68 -71 -144 -105 -233 -105c-171 0 -284 112 -284 285zM202 329h185c-5 52 -37 81 -93 81c-52 0 -85 -29 -92 -81zM216 611v145h145v-145h-145z" />
    <glyph glyph-name="uni1EB9" unicode="&#x1eb9;" horiz-adv-x="578" 
d="M18 264c-3 165 115 290 271 287c159 0 271 -117 271 -286v-52h-360c4 -58 38 -87 102 -87c44 0 81 23 120 68l113 -110c-68 -71 -144 -105 -233 -105c-171 0 -284 112 -284 285zM202 329h185c-5 52 -37 81 -93 81c-52 0 -85 -29 -92 -81zM229 -215v145h145v-145h-145z
" />
    <glyph glyph-name="egrave" unicode="&#xe8;" horiz-adv-x="578" 
d="M18 264c-3 165 115 290 271 287c159 0 271 -117 271 -286v-52h-360c4 -58 38 -87 102 -87c44 0 81 23 120 68l113 -110c-68 -71 -144 -105 -233 -105c-171 0 -284 112 -284 285zM202 329h185c-5 52 -37 81 -93 81c-52 0 -85 -29 -92 -81zM235 611l-134 151h178l100 -151
h-144z" />
    <glyph glyph-name="emacron" unicode="&#x113;" horiz-adv-x="578" 
d="M18 264c-3 165 115 290 271 287c159 0 271 -117 271 -286v-52h-360c4 -58 38 -87 102 -87c44 0 81 23 120 68l113 -110c-68 -71 -144 -105 -233 -105c-171 0 -284 112 -284 285zM202 329h185c-5 52 -37 81 -93 81c-52 0 -85 -29 -92 -81zM115 611v109h348v-109h-348z" />
    <glyph glyph-name="eogonek" unicode="&#x119;" horiz-adv-x="578" 
d="M18 264c-3 165 115 290 271 287c159 0 271 -117 271 -286v-52h-360c4 -58 38 -87 102 -87c44 0 81 23 120 68l113 -110c-68 -71 -144 -105 -233 -105c-171 0 -284 112 -284 285zM202 329h185c-5 52 -37 81 -93 81c-52 0 -85 -29 -92 -81zM233 -124c0 47 33 96 106 139
l76 -15c-43 -33 -64 -62 -64 -86c0 -15 8 -23 23 -23c16 0 34 5 55 14l38 -101c-36 -16 -74 -24 -113 -24c-75 0 -121 33 -121 96z" />
    <glyph glyph-name="uni0258" unicode="&#x258;" horiz-adv-x="578" 
d="M43 84l113 110c39 -45 76 -68 120 -68c64 0 98 29 102 87h-360v52c0 169 112 286 271 286c156 3 274 -122 271 -287c0 -173 -113 -285 -284 -285c-89 0 -165 34 -233 105zM284 410c-56 0 -88 -29 -93 -81h185c-7 52 -40 81 -92 81z" />
    <glyph glyph-name="uni1EBD" unicode="&#x1ebd;" horiz-adv-x="578" 
d="M18 264c-3 165 115 290 271 287c159 0 271 -117 271 -286v-52h-360c4 -58 38 -87 102 -87c44 0 81 23 120 68l113 -110c-68 -71 -144 -105 -233 -105c-171 0 -284 112 -284 285zM202 329h185c-5 52 -37 81 -93 81c-52 0 -85 -29 -92 -81zM281 630c-23 11 -40 17 -51 17
c-19 0 -30 -12 -34 -36h-84c4 93 40 144 104 144c29 0 46 -8 81 -24c23 -12 35 -17 50 -17c19 0 30 12 34 35h84c-3 -93 -39 -144 -103 -144c-28 0 -50 9 -81 25z" />
    <glyph glyph-name="uni0259" unicode="&#x259;" horiz-adv-x="578" 
d="M18 265v52h360c-4 58 -38 87 -102 87c-43 0 -80 -21 -120 -68l-112 111c67 69 144 104 232 104c172 0 284 -112 284 -285c0 -167 -113 -287 -270 -287c-159 0 -272 117 -272 286zM377 201h-185c5 -52 37 -81 92 -81c52 0 85 29 93 81z" />
    <glyph glyph-name="f" unicode="f" horiz-adv-x="434" 
d="M110 0v382h-111v148h111v60c0 99 63 157 174 157h116v-147h-65c-25 0 -38 -13 -38 -38v-32h138v-148h-138v-382h-187z" />
    <glyph glyph-name="g" unicode="g" horiz-adv-x="605" 
d="M41 -118l126 102c47 -55 82 -76 133 -76c60 0 96 41 96 108v42h-2c-27 -35 -77 -55 -140 -55c-138 0 -236 114 -236 276c0 147 106 261 240 261c55 0 101 -20 136 -59h2v49h176v-518c0 -153 -110 -258 -272 -258c-107 0 -203 47 -259 128zM385 251v52c0 40 -38 71 -85 71
c-56 0 -95 -39 -95 -95c0 -69 35 -111 92 -111c55 0 88 32 88 83z" />
    <glyph glyph-name="gbreve" unicode="&#x11f;" horiz-adv-x="615" 
d="M41 -118l126 102c47 -55 82 -76 133 -76c60 0 96 41 96 108v42h-2c-27 -35 -77 -55 -140 -55c-138 0 -236 114 -236 276c0 147 106 261 240 261c55 0 101 -20 136 -59h2v49h176v-518c0 -153 -110 -258 -272 -258c-107 0 -203 47 -259 128zM385 251v52c0 40 -38 71 -85 71
c-56 0 -95 -39 -95 -95c0 -69 35 -111 92 -111c55 0 88 32 88 83zM142 751h95c11 -29 37 -44 78 -44s66 15 76 44h96c-5 -93 -71 -150 -172 -150c-103 0 -168 57 -173 150z" />
    <glyph glyph-name="gcircumflex" unicode="&#x11d;" horiz-adv-x="615" 
d="M41 -118l126 102c47 -55 82 -76 133 -76c60 0 96 41 96 108v42h-2c-27 -35 -77 -55 -140 -55c-138 0 -236 114 -236 276c0 147 106 261 240 261c55 0 101 -20 136 -59h2v49h176v-518c0 -153 -110 -258 -272 -258c-107 0 -203 47 -259 128zM385 251v52c0 40 -38 71 -85 71
c-56 0 -95 -39 -95 -95c0 -69 35 -111 92 -111c55 0 88 32 88 83zM467 662l-99 -71l-67 85l-66 -85l-99 71l72 89h186z" />
    <glyph glyph-name="uni0123" unicode="&#x123;" horiz-adv-x="605" 
d="M41 -118l126 102c47 -55 82 -76 133 -76c60 0 96 41 96 108v42h-2c-27 -35 -77 -55 -140 -55c-138 0 -236 114 -236 276c0 147 106 261 240 261c55 0 101 -20 136 -59h2v49h176v-518c0 -153 -110 -258 -272 -258c-107 0 -203 47 -259 128zM385 251v52c0 40 -38 71 -85 71
c-56 0 -95 -39 -95 -95c0 -69 35 -111 92 -111c55 0 88 32 88 83zM349 871v-71c-45 -7 -58 -22 -58 -59h63v-141h-172v118c0 91 58 146 167 153z" />
    <glyph glyph-name="gdotaccent" unicode="&#x121;" horiz-adv-x="605" 
d="M41 -118l126 102c47 -55 82 -76 133 -76c60 0 96 41 96 108v42h-2c-27 -35 -77 -55 -140 -55c-138 0 -236 114 -236 276c0 147 106 261 240 261c55 0 101 -20 136 -59h2v49h176v-518c0 -153 -110 -258 -272 -258c-107 0 -203 47 -259 128zM385 251v52c0 40 -38 71 -85 71
c-56 0 -95 -39 -95 -95c0 -69 35 -111 92 -111c55 0 88 32 88 83zM195 600v145h145v-145h-145z" />
    <glyph glyph-name="h" unicode="h" horiz-adv-x="598" 
d="M44 0v730h187v-246h2c28 39 80 61 139 61c58 0 105 -18 140 -54s53 -83 53 -142v-349h-187v307c0 45 -28 73 -71 73c-47 0 -76 -29 -76 -73v-307h-187z" />
    <glyph glyph-name="hbar" unicode="&#x127;" horiz-adv-x="598" 
d="M44 0v730h187v-246h2c28 39 80 61 139 61c58 0 105 -18 140 -54s53 -83 53 -142v-349h-187v307c0 45 -28 73 -71 73c-47 0 -76 -29 -76 -73v-307h-187zM-5 577v107h411v-107h-411z" />
    <glyph glyph-name="hcircumflex" unicode="&#x125;" horiz-adv-x="598" 
d="M44 0v730h187v-246h2c28 39 80 61 139 61c58 0 105 -18 140 -54s53 -83 53 -142v-349h-187v307c0 45 -28 73 -71 73c-47 0 -76 -29 -76 -73v-307h-187zM500 811l-99 -71l-67 85l-66 -85l-99 71l72 89h186z" />
    <glyph glyph-name="uni1E25" unicode="&#x1e25;" horiz-adv-x="598" 
d="M44 0v730h187v-246h2c28 39 80 61 139 61c58 0 105 -18 140 -54s53 -83 53 -142v-349h-187v307c0 45 -28 73 -71 73c-47 0 -76 -29 -76 -73v-307h-187zM231 -194v145h145v-145h-145z" />
    <glyph glyph-name="i" unicode="i" horiz-adv-x="275" 
d="M44 0v530h187v-530h-187zM50 609v159h175v-159h-175z" />
    <glyph glyph-name="dotlessi" unicode="&#x131;" horiz-adv-x="275" 
d="M44 0v530h187v-530h-187z" />
    <glyph glyph-name="iacute" unicode="&#xed;" horiz-adv-x="275" 
d="M44 0v530h187v-530h-187zM40 590l102 151h176l-132 -151h-146z" />
    <glyph glyph-name="ibreve" unicode="&#x12d;" horiz-adv-x="275" 
d="M44 0v530h187v-530h-187zM-33 730h95c11 -29 37 -44 78 -44s66 15 76 44h96c-5 -93 -71 -150 -172 -150c-103 0 -168 57 -173 150z" />
    <glyph glyph-name="uni01D0" unicode="&#x1d0;" horiz-adv-x="275" 
d="M44 0v530h187v-530h-187zM205 740l99 -71l-73 -89h-186l-72 89l99 71l66 -85z" />
    <glyph glyph-name="icircumflex" unicode="&#xee;" horiz-adv-x="275" 
d="M44 0v530h187v-530h-187zM304 641l-99 -71l-67 85l-66 -85l-99 71l72 89h186z" />
    <glyph glyph-name="idieresis" unicode="&#xef;" horiz-adv-x="264" 
d="M-40 580v145h145v-145h-145zM158 580v145h146v-145h-146zM44 0v530h187v-530h-187z" />
    <glyph glyph-name="i.locl" horiz-adv-x="275" 
d="M44 0v530h187v-530h-187zM51 609v159h175v-159h-175z" />
    <glyph glyph-name="uni1ECB" unicode="&#x1ecb;" horiz-adv-x="275" 
d="M44 0v530h187v-530h-187zM50 609v159h175v-159h-175zM57 -194v145h145v-145h-145z" />
    <glyph glyph-name="igrave" unicode="&#xec;" horiz-adv-x="275" 
d="M44 0v530h187v-530h-187zM84 590l-134 151h178l100 -151h-144z" />
    <glyph glyph-name="imacron" unicode="&#x12b;" horiz-adv-x="275" 
d="M44 0v530h187v-530h-187zM-36 590v109h348v-109h-348z" />
    <glyph glyph-name="iogonek" unicode="&#x12f;" horiz-adv-x="275" 
d="M44 0v530h187v-530h-187zM14 -124c0 47 33 96 106 139l76 -15c-43 -33 -64 -62 -64 -86c0 -15 8 -23 23 -23c16 0 34 5 55 14l38 -101c-36 -16 -74 -24 -113 -24c-75 0 -121 33 -121 96zM51 609v159h175v-159h-175z" />
    <glyph glyph-name="itilde" unicode="&#x129;" horiz-adv-x="275" 
d="M44 0v530h187v-530h-187zM130 609c-23 11 -40 17 -51 17c-19 0 -30 -12 -34 -36h-84c4 93 40 144 104 144c29 0 46 -8 81 -24c23 -12 35 -17 50 -17c19 0 30 12 34 35h84c-3 -93 -39 -144 -103 -144c-28 0 -50 9 -81 25z" />
    <glyph glyph-name="j" unicode="j" horiz-adv-x="278" 
d="M-64 -229v172h70c29 0 41 9 41 38v549h187v-560c0 -139 -55 -199 -198 -199h-100zM53 609v159h175v-159h-175z" />
    <glyph glyph-name="uni0237" unicode="&#x237;" horiz-adv-x="278" 
d="M-64 -229v172h70c29 0 41 9 41 38v549h187v-560c0 -139 -55 -199 -198 -199h-100z" />
    <glyph glyph-name="jcircumflex" unicode="&#x135;" horiz-adv-x="278" 
d="M-64 -229v172h70c29 0 41 9 41 38v549h187v-560c0 -139 -55 -199 -198 -199h-100zM306 641l-99 -71l-67 85l-66 -85l-99 71l72 89h186z" />
    <glyph glyph-name="k" unicode="k" horiz-adv-x="613" 
d="M44 0v730h187v-377h2l142 177h235l-196 -213l186 -317h-219l-90 187h-2l-58 -66v-121h-187z" />
    <glyph glyph-name="uni0137" unicode="&#x137;" horiz-adv-x="613" 
d="M44 0v730h187v-377h2l142 177h235l-196 -213l186 -317h-219l-90 187h-2l-58 -66v-121h-187zM240 -320v71c40 7 51 22 51 59h-56v141h153v-118c0 -91 -51 -146 -148 -153z" />
    <glyph glyph-name="kgreenlandic" unicode="&#x138;" horiz-adv-x="628" 
d="M44 0v530h187v-169h2l158 169h234l-206 -213l198 -317h-217l-103 187h-2l-64 -66v-121h-187z" />
    <glyph glyph-name="l" unicode="l" horiz-adv-x="275" 
d="M44 0v730h187v-730h-187z" />
    <glyph glyph-name="lacute" unicode="&#x13a;" horiz-adv-x="275" 
d="M44 0v730h187v-730h-187zM40 790l102 151h176l-132 -151h-146z" />
    <glyph glyph-name="lcaron" unicode="&#x13e;" horiz-adv-x="440" 
d="M44 0v730h187v-730h-187zM280 459v71c40 7 51 22 51 59h-56v141h153v-118c0 -91 -51 -146 -148 -153z" />
    <glyph glyph-name="uni013C" unicode="&#x13c;" horiz-adv-x="275" 
d="M44 0v730h187v-730h-187zM66 -320v71c40 7 51 22 51 59h-56v141h153v-118c0 -91 -51 -146 -148 -153z" />
    <glyph glyph-name="ldot" unicode="&#x140;" horiz-adv-x="505" 
d="M44 0v730h187v-730h-187zM281 277v197h202v-197h-202z" />
    <glyph glyph-name="uni1E37" unicode="&#x1e37;" horiz-adv-x="275" 
d="M44 0v730h187v-730h-187zM65 -194v145h145v-145h-145z" />
    <glyph glyph-name="lslash" unicode="&#x142;" horiz-adv-x="420" 
d="M123 0v730h187v-730h-187zM190 302l250 239l-55 57l-195 -183v30l-210 -198l57 -58l153 144v-31z" />
    <glyph glyph-name="m" unicode="m" horiz-adv-x="869" 
d="M44 0v530h174v-48h2c33 40 85 63 140 63c53 0 109 -24 137 -63h2c35 43 86 63 146 63c112 0 191 -75 191 -192v-353h-182v314c0 43 -25 69 -64 69s-64 -28 -64 -68v-315h-172v314c0 43 -24 69 -63 69s-65 -28 -65 -68v-315h-182z" />
    <glyph glyph-name="n" unicode="n" horiz-adv-x="598" 
d="M44 0v530h178v-48h2c37 42 86 63 147 63c117 0 194 -86 194 -210v-335h-187v307c0 45 -28 73 -71 73c-47 0 -76 -29 -76 -73v-307h-187z" />
    <glyph glyph-name="nacute" unicode="&#x144;" horiz-adv-x="598" 
d="M44 0v530h178v-48h2c37 42 86 63 147 63c117 0 194 -86 194 -210v-335h-187v307c0 45 -28 73 -71 73c-47 0 -76 -29 -76 -73v-307h-187zM229 605l102 151h176l-132 -151h-146z" />
    <glyph glyph-name="ncaron" unicode="&#x148;" horiz-adv-x="598" 
d="M44 0v530h178v-48h2c37 42 86 63 147 63c117 0 194 -86 194 -210v-335h-187v307c0 45 -28 73 -71 73c-47 0 -76 -29 -76 -73v-307h-187zM394 755l99 -71l-73 -89h-186l-72 89l99 71l66 -85z" />
    <glyph glyph-name="uni0146" unicode="&#x146;" horiz-adv-x="598" 
d="M44 0v530h178v-48h2c37 42 86 63 147 63c117 0 194 -86 194 -210v-335h-187v307c0 45 -28 73 -71 73c-47 0 -76 -29 -76 -73v-307h-187zM232 -320v71c40 7 51 22 51 59h-56v141h153v-118c0 -91 -51 -146 -148 -153z" />
    <glyph glyph-name="uni1E45" unicode="&#x1e45;" horiz-adv-x="598" 
d="M44 0v530h178v-48h2c37 42 86 63 147 63c117 0 194 -86 194 -210v-335h-187v307c0 45 -28 73 -71 73c-47 0 -76 -29 -76 -73v-307h-187zM254 605v145h145v-145h-145z" />
    <glyph glyph-name="uni1E47" unicode="&#x1e47;" horiz-adv-x="598" 
d="M44 0v530h178v-48h2c37 42 86 63 147 63c117 0 194 -86 194 -210v-335h-187v307c0 45 -28 73 -71 73c-47 0 -76 -29 -76 -73v-307h-187zM231 -194v145h145v-145h-145z" />
    <glyph glyph-name="eng" unicode="&#x14b;" horiz-adv-x="598" 
d="M565 335v-384c0 -113 -57 -173 -186 -173h-89v172h60c17 0 28 9 28 26v331c0 45 -28 73 -71 73c-47 0 -76 -29 -76 -73v-307h-187v530h178v-46h2c38 41 87 61 147 61c117 0 194 -86 194 -210z" />
    <glyph glyph-name="ntilde" unicode="&#xf1;" horiz-adv-x="598" 
d="M44 0v530h178v-48h2c37 42 86 63 147 63c117 0 194 -86 194 -210v-335h-187v307c0 45 -28 73 -71 73c-47 0 -76 -29 -76 -73v-307h-187zM319 624c-23 11 -40 17 -51 17c-19 0 -30 -12 -34 -36h-84c4 93 40 144 104 144c29 0 46 -8 81 -24c23 -12 35 -17 50 -17
c19 0 30 12 34 35h84c-3 -93 -39 -144 -103 -144c-28 0 -50 9 -81 25z" />
    <glyph glyph-name="o" unicode="o" horiz-adv-x="596" 
d="M18 264c0 168 116 287 279 287s281 -119 281 -287c0 -167 -118 -285 -281 -285s-279 118 -279 285zM391 264c0 75 -34 119 -93 119c-60 0 -93 -43 -93 -119c0 -73 33 -117 93 -117c59 0 93 44 93 117z" />
    <glyph glyph-name="oacute" unicode="&#xf3;" horiz-adv-x="596" 
d="M18 264c0 168 116 287 279 287s281 -119 281 -287c0 -167 -118 -285 -281 -285s-279 118 -279 285zM391 264c0 75 -34 119 -93 119c-60 0 -93 -43 -93 -119c0 -73 33 -117 93 -117c59 0 93 44 93 117zM199 611l102 151h176l-132 -151h-146z" />
    <glyph glyph-name="obreve" unicode="&#x14f;" horiz-adv-x="596" 
d="M18 264c0 168 116 287 279 287s281 -119 281 -287c0 -167 -118 -285 -281 -285s-279 118 -279 285zM391 264c0 75 -34 119 -93 119c-60 0 -93 -43 -93 -119c0 -73 33 -117 93 -117c59 0 93 44 93 117zM126 751h95c11 -29 37 -44 78 -44s66 15 76 44h96
c-5 -93 -71 -150 -172 -150c-103 0 -168 57 -173 150z" />
    <glyph glyph-name="uni01D2" unicode="&#x1d2;" horiz-adv-x="596" 
d="M18 264c0 168 116 287 279 287s281 -119 281 -287c0 -167 -118 -285 -281 -285s-279 118 -279 285zM391 264c0 75 -34 119 -93 119c-60 0 -93 -43 -93 -119c0 -73 33 -117 93 -117c59 0 93 44 93 117zM364 761l99 -71l-73 -89h-186l-72 89l99 71l66 -85z" />
    <glyph glyph-name="ocircumflex" unicode="&#xf4;" horiz-adv-x="596" 
d="M18 264c0 168 116 287 279 287s281 -119 281 -287c0 -167 -118 -285 -281 -285s-279 118 -279 285zM391 264c0 75 -34 119 -93 119c-60 0 -93 -43 -93 -119c0 -73 33 -117 93 -117c59 0 93 44 93 117zM463 662l-99 -71l-67 85l-66 -85l-99 71l72 89h186z" />
    <glyph glyph-name="uni1ED9" unicode="&#x1ed9;" horiz-adv-x="596" 
d="M18 264c0 168 116 287 279 287s281 -119 281 -287c0 -167 -118 -285 -281 -285s-279 118 -279 285zM391 264c0 75 -34 119 -93 119c-60 0 -93 -43 -93 -119c0 -73 33 -117 93 -117c59 0 93 44 93 117zM463 662l-99 -71l-67 85l-66 -85l-99 71l72 89h186zM224 -215v145
h145v-145h-145z" />
    <glyph glyph-name="odieresis" unicode="&#xf6;" horiz-adv-x="596" 
d="M18 264c0 168 116 287 279 287s281 -119 281 -287c0 -167 -118 -285 -281 -285s-279 118 -279 285zM391 264c0 75 -34 119 -93 119c-60 0 -93 -43 -93 -119c0 -73 33 -117 93 -117c59 0 93 44 93 117zM113 601v145h145v-145h-145zM335 601v145h146v-145h-146z" />
    <glyph glyph-name="uni1ECD" unicode="&#x1ecd;" horiz-adv-x="596" 
d="M18 264c0 168 116 287 279 287s281 -119 281 -287c0 -167 -118 -285 -281 -285s-279 118 -279 285zM391 264c0 75 -34 119 -93 119c-60 0 -93 -43 -93 -119c0 -73 33 -117 93 -117c59 0 93 44 93 117zM224 -215v145h145v-145h-145z" />
    <glyph glyph-name="ograve" unicode="&#xf2;" horiz-adv-x="596" 
d="M18 264c0 168 116 287 279 287s281 -119 281 -287c0 -167 -118 -285 -281 -285s-279 118 -279 285zM391 264c0 75 -34 119 -93 119c-60 0 -93 -43 -93 -119c0 -73 33 -117 93 -117c59 0 93 44 93 117zM243 611l-134 151h178l100 -151h-144z" />
    <glyph glyph-name="ohungarumlaut" unicode="&#x151;" horiz-adv-x="596" 
d="M18 264c0 168 116 287 279 287s281 -119 281 -287c0 -167 -118 -285 -281 -285s-279 118 -279 285zM391 264c0 75 -34 119 -93 119c-60 0 -93 -43 -93 -119c0 -73 33 -117 93 -117c59 0 93 44 93 117zM106 611l102 151h165l-132 -151h-135zM322 611l102 151h166
l-133 -151h-135z" />
    <glyph glyph-name="omacron" unicode="&#x14d;" horiz-adv-x="596" 
d="M18 264c0 168 116 287 279 287s281 -119 281 -287c0 -167 -118 -285 -281 -285s-279 118 -279 285zM391 264c0 75 -34 119 -93 119c-60 0 -93 -43 -93 -119c0 -73 33 -117 93 -117c59 0 93 44 93 117zM123 611v109h348v-109h-348z" />
    <glyph glyph-name="oslash" unicode="&#xf8;" horiz-adv-x="596" 
d="M578 264c0 -167 -118 -285 -281 -285c-53 0 -100 12 -141 35l-45 -58l-66 51l45 58c-45 51 -72 120 -72 199c0 168 116 287 279 287c52 0 100 -12 144 -36l44 57l65 -50l-45 -58c47 -51 73 -120 73 -200zM206 214l131 168c-11 5 -24 7 -39 7c-64 0 -98 -45 -98 -125
c0 -19 2 -36 6 -50zM396 264c0 19 -2 36 -6 52l-130 -168c10 -5 23 -7 38 -7c63 0 98 46 98 123z" />
    <glyph glyph-name="oslashacute" unicode="&#x1ff;" horiz-adv-x="596" 
d="M578 264c0 -167 -118 -285 -281 -285c-53 0 -100 12 -141 35l-45 -58l-66 51l45 58c-45 51 -72 120 -72 199c0 168 116 287 279 287c52 0 100 -12 144 -36l44 57l65 -50l-45 -58c47 -51 73 -120 73 -200zM206 214l131 168c-11 5 -24 7 -39 7c-64 0 -98 -45 -98 -125
c0 -19 2 -36 6 -50zM396 264c0 19 -2 36 -6 52l-130 -168c10 -5 23 -7 38 -7c63 0 98 46 98 123zM199 611l102 151h176l-132 -151h-146z" />
    <glyph glyph-name="otilde" unicode="&#xf5;" horiz-adv-x="596" 
d="M18 264c0 168 116 287 279 287s281 -119 281 -287c0 -167 -118 -285 -281 -285s-279 118 -279 285zM391 264c0 75 -34 119 -93 119c-60 0 -93 -43 -93 -119c0 -73 33 -117 93 -117c59 0 93 44 93 117zM289 630c-23 11 -40 17 -51 17c-19 0 -30 -12 -34 -36h-84
c4 93 40 144 104 144c29 0 46 -8 81 -24c23 -12 35 -17 50 -17c19 0 30 12 34 35h84c-3 -93 -39 -144 -103 -144c-28 0 -50 9 -81 25z" />
    <glyph glyph-name="uni1E4D" unicode="&#x1e4d;" horiz-adv-x="596" 
d="M18 264c0 168 116 287 279 287s281 -119 281 -287c0 -167 -118 -285 -281 -285s-279 118 -279 285zM391 264c0 75 -34 119 -93 119c-60 0 -93 -43 -93 -119c0 -73 33 -117 93 -117c59 0 93 44 93 117zM289 630c-23 11 -40 17 -51 17c-19 0 -30 -12 -34 -36h-84
c4 93 40 144 104 144c29 0 46 -8 81 -24c23 -12 35 -17 50 -17c19 0 30 12 34 35h84c-3 -93 -39 -144 -103 -144c-28 0 -50 9 -81 25zM199 785l102 151h176l-132 -151h-146z" />
    <glyph glyph-name="oe" unicode="&#x153;" horiz-adv-x="952" 
d="M934 265v-52h-359c4 -55 35 -81 99 -81c43 0 79 20 119 64l115 -116c-72 -68 -147 -101 -234 -101c-79 0 -143 22 -192 65c-47 -41 -110 -65 -182 -65c-165 0 -282 120 -282 285c0 170 117 287 282 287c73 0 134 -22 183 -65c44 41 105 65 176 65
c161 0 275 -117 275 -286zM576 329h179c-5 51 -36 76 -89 76c-52 0 -82 -25 -90 -76zM395 264c0 77 -34 123 -94 123s-95 -46 -95 -123c0 -76 35 -121 95 -121s94 45 94 121z" />
    <glyph glyph-name="p" unicode="p" horiz-adv-x="616" 
d="M44 -225v755h176v-50h2c35 37 81 59 137 59c137 0 239 -119 239 -272c0 -164 -95 -282 -230 -282c-57 0 -99 19 -135 56h-2v-266h-187zM411 265c0 65 -32 106 -91 106c-49 0 -89 -35 -89 -82v-51c0 -52 37 -87 89 -87c57 0 91 42 91 114z" />
    <glyph glyph-name="thorn" unicode="&#xfe;" horiz-adv-x="616" 
d="M598 267c0 -164 -95 -282 -224 -282c-59 0 -106 19 -141 56h-2v-266h-187v967h187v-232c33 27 75 41 128 41c139 0 239 -120 239 -284zM411 265c0 76 -32 118 -91 118c-51 0 -89 -36 -89 -83v-62c0 -52 37 -87 89 -87c57 0 91 42 91 114z" />
    <glyph glyph-name="q" unicode="q" horiz-adv-x="616" 
d="M572 -225h-187v266h-2c-36 -37 -78 -56 -135 -56c-135 0 -230 118 -230 282c0 153 102 272 239 272c56 0 102 -22 137 -59h2v50h176v-755zM385 238v51c0 47 -40 82 -89 82c-59 0 -91 -41 -91 -106c0 -72 34 -114 91 -114c52 0 89 35 89 87z" />
    <glyph glyph-name="r" unicode="r" horiz-adv-x="412" 
d="M44 0v530h177v-48h2c28 40 74 59 123 59c16 0 36 -2 61 -6l-22 -173c-19 2 -35 3 -50 3c-68 0 -104 -40 -104 -120v-245h-187z" />
    <glyph glyph-name="racute" unicode="&#x155;" horiz-adv-x="412" 
d="M44 0v530h177v-48h2c28 40 74 59 123 59c16 0 36 -2 61 -6l-22 -173c-19 2 -35 3 -50 3c-68 0 -104 -40 -104 -120v-245h-187zM101 590l102 151h176l-132 -151h-146z" />
    <glyph glyph-name="rcaron" unicode="&#x159;" horiz-adv-x="412" 
d="M44 0v530h177v-48h2c28 40 74 59 123 59c16 0 36 -2 61 -6l-22 -173c-19 2 -35 3 -50 3c-68 0 -104 -40 -104 -120v-245h-187zM266 740l99 -71l-73 -89h-186l-72 89l99 71l66 -85z" />
    <glyph glyph-name="uni0157" unicode="&#x157;" horiz-adv-x="412" 
d="M44 0v530h177v-48h2c28 40 74 59 123 59c16 0 36 -2 61 -6l-22 -173c-19 2 -35 3 -50 3c-68 0 -104 -40 -104 -120v-245h-187zM66 -320v71c40 7 51 22 51 59h-56v141h153v-118c0 -91 -51 -146 -148 -153z" />
    <glyph glyph-name="s" unicode="s" horiz-adv-x="504" 
d="M8 164l158 40c17 -59 47 -80 107 -80c32 0 52 11 52 28c0 9 -6 16 -17 22c-11 7 -37 16 -76 27c-156 44 -204 94 -204 177c0 101 91 173 220 173c123 0 210 -68 229 -177l-154 -27c-13 43 -38 62 -81 62c-27 0 -47 -12 -47 -29c0 -16 15 -23 87 -43
c165 -48 213 -98 213 -183c0 -103 -93 -175 -222 -175c-143 0 -238 68 -265 185z" />
    <glyph glyph-name="sacute" unicode="&#x15b;" horiz-adv-x="504" 
d="M8 164l158 40c17 -59 47 -80 107 -80c32 0 52 11 52 28c0 9 -6 16 -17 22c-11 7 -37 16 -76 27c-156 44 -204 94 -204 177c0 101 91 173 220 173c123 0 210 -68 229 -177l-154 -27c-13 43 -38 62 -81 62c-27 0 -47 -12 -47 -29c0 -16 15 -23 87 -43
c165 -48 213 -98 213 -183c0 -103 -93 -175 -222 -175c-143 0 -238 68 -265 185zM150 611l102 151h176l-132 -151h-146z" />
    <glyph glyph-name="scaron" unicode="&#x161;" horiz-adv-x="504" 
d="M8 164l158 40c17 -59 47 -80 107 -80c32 0 52 11 52 28c0 9 -6 16 -17 22c-11 7 -37 16 -76 27c-156 44 -204 94 -204 177c0 101 91 173 220 173c123 0 210 -68 229 -177l-154 -27c-13 43 -38 62 -81 62c-27 0 -47 -12 -47 -29c0 -16 15 -23 87 -43
c165 -48 213 -98 213 -183c0 -103 -93 -175 -222 -175c-143 0 -238 68 -265 185zM315 761l99 -71l-73 -89h-186l-72 89l99 71l66 -85z" />
    <glyph glyph-name="scedilla" unicode="&#x15f;" horiz-adv-x="504" 
d="M8 164l158 40c17 -59 47 -80 107 -80c32 0 52 11 52 28c0 9 -6 16 -17 22c-11 7 -37 16 -76 27c-156 44 -204 94 -204 177c0 101 91 173 220 173c123 0 210 -68 229 -177l-154 -27c-13 43 -38 62 -81 62c-27 0 -47 -12 -47 -29c0 -16 15 -23 87 -43
c165 -48 213 -98 213 -183c0 -103 -93 -175 -222 -175c-143 0 -238 68 -265 185zM416 -165c0 -73 -54 -124 -131 -124c-48 0 -88 11 -128 39l54 86c27 -16 46 -23 67 -23c25 0 39 11 39 31c0 17 -16 31 -37 31c-18 0 -35 -6 -50 -19l-66 26l82 142l62 -37l-21 -36h4
c77 0 125 -47 125 -116z" />
    <glyph glyph-name="scircumflex" unicode="&#x15d;" horiz-adv-x="504" 
d="M8 164l158 40c17 -59 47 -80 107 -80c32 0 52 11 52 28c0 9 -6 16 -17 22c-11 7 -37 16 -76 27c-156 44 -204 94 -204 177c0 101 91 173 220 173c123 0 210 -68 229 -177l-154 -27c-13 43 -38 62 -81 62c-27 0 -47 -12 -47 -29c0 -16 15 -23 87 -43
c165 -48 213 -98 213 -183c0 -103 -93 -175 -222 -175c-143 0 -238 68 -265 185zM414 662l-99 -71l-67 85l-66 -85l-99 71l72 89h186z" />
    <glyph glyph-name="uni0219" unicode="&#x219;" horiz-adv-x="504" 
d="M8 164l158 40c17 -59 47 -80 107 -80c32 0 52 11 52 28c0 9 -6 16 -17 22c-11 7 -37 16 -76 27c-156 44 -204 94 -204 177c0 101 91 173 220 173c123 0 210 -68 229 -177l-154 -27c-13 43 -38 62 -81 62c-27 0 -47 -12 -47 -29c0 -16 15 -23 87 -43
c165 -48 213 -98 213 -183c0 -103 -93 -175 -222 -175c-143 0 -238 68 -265 185zM201 -341v71c40 7 51 22 51 59h-56v141h153v-118c0 -91 -51 -146 -148 -153z" />
    <glyph glyph-name="uni1E63" unicode="&#x1e63;" horiz-adv-x="504" 
d="M8 164l158 40c17 -59 47 -80 107 -80c32 0 52 11 52 28c0 9 -6 16 -17 22c-11 7 -37 16 -76 27c-156 44 -204 94 -204 177c0 101 91 173 220 173c123 0 210 -68 229 -177l-154 -27c-13 43 -38 62 -81 62c-27 0 -47 -12 -47 -29c0 -16 15 -23 87 -43
c165 -48 213 -98 213 -183c0 -103 -93 -175 -222 -175c-143 0 -238 68 -265 185zM200 -215v145h145v-145h-145z" />
    <glyph glyph-name="germandbls" unicode="&#xdf;" horiz-adv-x="572" 
d="M44 0v479c0 75 22 134 66 177s104 65 179 65c131 0 233 -82 233 -185c0 -60 -29 -114 -82 -147v-2c75 -36 114 -98 114 -179c0 -121 -104 -208 -253 -208h-36v166h24c53 0 84 26 84 70c0 39 -32 64 -81 64h-27v133h21c43 0 69 21 69 57c0 40 -23 65 -63 65
c-41 0 -67 -28 -67 -71v-484h-181z" />
    <glyph glyph-name="longs" unicode="&#x17f;" horiz-adv-x="349" 
d="M100 0v384h-101v146h101v60c0 99 63 157 174 157h116v-147h-65c-25 0 -38 -13 -38 -38v-562h-187z" />
    <glyph glyph-name="t" unicode="t" horiz-adv-x="425" 
d="M410 382h-127v-166c0 -32 14 -46 47 -46h60v-170h-87c-141 0 -207 66 -207 195v187h-97v148h97v140h187v-140h127v-148z" />
    <glyph glyph-name="tbar" unicode="&#x167;" horiz-adv-x="425" 
d="M410 382h-127v-166c0 -32 14 -46 47 -46h60v-170h-87c-141 0 -207 66 -207 195v187h-97v148h97v140h187v-140h127v-148zM-1 231v107h411v-107h-411z" />
    <glyph glyph-name="tcaron" unicode="&#x165;" horiz-adv-x="443" 
d="M410 382h-127v-166c0 -32 14 -46 47 -46h60v-170h-87c-141 0 -207 66 -207 195v187h-97v148h97v140h187v-140h127v-148zM339 574v71c40 7 51 22 51 59h-56v141h153v-118c0 -91 -51 -146 -148 -153z" />
    <glyph glyph-name="uni0163" unicode="&#x163;" horiz-adv-x="425" 
d="M410 382h-127v-166c0 -32 14 -46 47 -46h60v-170h-87c-141 0 -207 66 -207 195v187h-97v148h97v140h187v-140h127v-148zM384 -145c0 -73 -54 -124 -131 -124c-48 0 -88 11 -128 39l54 86c27 -16 46 -23 67 -23c25 0 39 11 39 31c0 17 -16 31 -37 31c-18 0 -35 -6 -50 -19
l-66 26l82 142l62 -37l-21 -36h4c77 0 125 -47 125 -116z" />
    <glyph glyph-name="uni021B" unicode="&#x21b;" horiz-adv-x="425" 
d="M410 382h-127v-166c0 -32 14 -46 47 -46h60v-170h-87c-141 0 -207 66 -207 195v187h-97v148h97v140h187v-140h127v-148zM169 -320v71c40 7 51 22 51 59h-56v141h153v-118c0 -91 -51 -146 -148 -153z" />
    <glyph glyph-name="uni1E6D" unicode="&#x1e6d;" horiz-adv-x="425" 
d="M410 382h-127v-166c0 -32 14 -46 47 -46h60v-170h-87c-141 0 -207 66 -207 195v187h-97v148h97v140h187v-140h127v-148zM168 -194v145h145v-145h-145z" />
    <glyph glyph-name="u" unicode="u" horiz-adv-x="592" 
d="M34 181v349h187v-304c0 -49 22 -73 67 -73s73 28 73 73v304h187v-530h-178v52h-2c-36 -45 -84 -67 -145 -67c-120 0 -189 72 -189 196z" />
    <glyph glyph-name="uacute" unicode="&#xfa;" horiz-adv-x="592" 
d="M34 181v349h187v-304c0 -49 22 -73 67 -73s73 28 73 73v304h187v-530h-178v52h-2c-36 -45 -84 -67 -145 -67c-120 0 -189 72 -189 196zM193 590l102 151h176l-132 -151h-146z" />
    <glyph glyph-name="ubreve" unicode="&#x16d;" horiz-adv-x="592" 
d="M34 181v349h187v-304c0 -49 22 -73 67 -73s73 28 73 73v304h187v-530h-178v52h-2c-36 -45 -84 -67 -145 -67c-120 0 -189 72 -189 196zM120 730h95c11 -29 37 -44 78 -44s66 15 76 44h96c-5 -93 -71 -150 -172 -150c-103 0 -168 57 -173 150z" />
    <glyph glyph-name="uni01D4" unicode="&#x1d4;" horiz-adv-x="592" 
d="M34 181v349h187v-304c0 -49 22 -73 67 -73s73 28 73 73v304h187v-530h-178v52h-2c-36 -45 -84 -67 -145 -67c-120 0 -189 72 -189 196zM358 740l99 -71l-73 -89h-186l-72 89l99 71l66 -85z" />
    <glyph glyph-name="ucircumflex" unicode="&#xfb;" horiz-adv-x="592" 
d="M34 181v349h187v-304c0 -49 22 -73 67 -73s73 28 73 73v304h187v-530h-178v52h-2c-36 -45 -84 -67 -145 -67c-120 0 -189 72 -189 196zM457 641l-99 -71l-67 85l-66 -85l-99 71l72 89h186z" />
    <glyph glyph-name="udieresis" unicode="&#xfc;" horiz-adv-x="592" 
d="M34 181v349h187v-304c0 -49 22 -73 67 -73s73 28 73 73v304h187v-530h-178v52h-2c-36 -45 -84 -67 -145 -67c-120 0 -189 72 -189 196zM107 580v145h145v-145h-145zM329 580v145h146v-145h-146z" />
    <glyph glyph-name="uni01D8" unicode="&#x1d8;" horiz-adv-x="592" 
d="M34 181v349h187v-304c0 -49 22 -73 67 -73s73 28 73 73v304h187v-530h-178v52h-2c-36 -45 -84 -67 -145 -67c-120 0 -189 72 -189 196zM107 580v145h145v-145h-145zM329 580v145h146v-145h-146zM193 765l102 151h176l-132 -151h-146z" />
    <glyph glyph-name="uni01DA" unicode="&#x1da;" horiz-adv-x="592" 
d="M34 181v349h187v-304c0 -49 22 -73 67 -73s73 28 73 73v304h187v-530h-178v52h-2c-36 -45 -84 -67 -145 -67c-120 0 -189 72 -189 196zM107 580v145h145v-145h-145zM329 580v145h146v-145h-146zM358 915l99 -71l-73 -89h-186l-72 89l99 71l66 -85z" />
    <glyph glyph-name="uni01DC" unicode="&#x1dc;" horiz-adv-x="592" 
d="M34 181v349h187v-304c0 -49 22 -73 67 -73s73 28 73 73v304h187v-530h-178v52h-2c-36 -45 -84 -67 -145 -67c-120 0 -189 72 -189 196zM107 580v145h145v-145h-145zM329 580v145h146v-145h-146zM237 765l-134 151h178l100 -151h-144z" />
    <glyph glyph-name="uni01D6" unicode="&#x1d6;" horiz-adv-x="592" 
d="M34 181v349h187v-304c0 -49 22 -73 67 -73s73 28 73 73v304h187v-530h-178v52h-2c-36 -45 -84 -67 -145 -67c-120 0 -189 72 -189 196zM107 580v145h145v-145h-145zM329 580v145h146v-145h-146zM117 765v109h348v-109h-348z" />
    <glyph glyph-name="uni1EE5" unicode="&#x1ee5;" horiz-adv-x="592" 
d="M34 181v349h187v-304c0 -49 22 -73 67 -73s73 28 73 73v304h187v-530h-178v52h-2c-36 -45 -84 -67 -145 -67c-120 0 -189 72 -189 196zM191 -209v145h145v-145h-145z" />
    <glyph glyph-name="ugrave" unicode="&#xf9;" horiz-adv-x="592" 
d="M34 181v349h187v-304c0 -49 22 -73 67 -73s73 28 73 73v304h187v-530h-178v52h-2c-36 -45 -84 -67 -145 -67c-120 0 -189 72 -189 196zM237 590l-134 151h178l100 -151h-144z" />
    <glyph glyph-name="uhungarumlaut" unicode="&#x171;" horiz-adv-x="592" 
d="M34 181v349h187v-304c0 -49 22 -73 67 -73s73 28 73 73v304h187v-530h-178v52h-2c-36 -45 -84 -67 -145 -67c-120 0 -189 72 -189 196zM100 590l102 151h165l-132 -151h-135zM316 590l102 151h166l-133 -151h-135z" />
    <glyph glyph-name="umacron" unicode="&#x16b;" horiz-adv-x="592" 
d="M34 181v349h187v-304c0 -49 22 -73 67 -73s73 28 73 73v304h187v-530h-178v52h-2c-36 -45 -84 -67 -145 -67c-120 0 -189 72 -189 196zM117 590v109h348v-109h-348z" />
    <glyph glyph-name="uogonek" unicode="&#x173;" horiz-adv-x="592" 
d="M34 181v349h187v-304c0 -49 22 -73 67 -73s73 28 73 73v304h187v-530h-178v52h-2c-36 -45 -84 -67 -145 -67c-120 0 -189 72 -189 196zM337 -124c0 47 33 96 106 139l76 -15c-43 -33 -64 -62 -64 -86c0 -15 8 -23 23 -23c16 0 34 5 55 14l38 -101
c-36 -16 -74 -24 -113 -24c-75 0 -121 33 -121 96z" />
    <glyph glyph-name="uring" unicode="&#x16f;" horiz-adv-x="592" 
d="M34 181v349h187v-304c0 -49 22 -73 67 -73s73 28 73 73v304h187v-530h-178v52h-2c-36 -45 -84 -67 -145 -67c-120 0 -189 72 -189 196zM124 699c0 86 72 150 171 150c98 0 172 -64 172 -150c0 -84 -74 -149 -172 -149c-99 0 -171 65 -171 149zM361 699
c0 39 -27 65 -66 65s-65 -26 -65 -65c0 -37 28 -64 65 -64c39 0 66 27 66 64z" />
    <glyph glyph-name="utilde" unicode="&#x169;" horiz-adv-x="592" 
d="M34 181v349h187v-304c0 -49 22 -73 67 -73s73 28 73 73v304h187v-530h-178v52h-2c-36 -45 -84 -67 -145 -67c-120 0 -189 72 -189 196zM283 609c-23 11 -40 17 -51 17c-19 0 -30 -12 -34 -36h-84c4 93 40 144 104 144c29 0 46 -8 81 -24c23 -12 35 -17 50 -17
c19 0 30 12 34 35h84c-3 -93 -39 -144 -103 -144c-28 0 -50 9 -81 25z" />
    <glyph glyph-name="v" unicode="v" horiz-adv-x="601" 
d="M220 0l-225 530h200l105 -289h2l106 289h199l-224 -530h-163z" />
    <glyph glyph-name="w" unicode="w" horiz-adv-x="848" 
d="M138 0l-129 530h188l60 -287h2l85 287h160l85 -287h2l60 287h188l-128 -530h-192l-94 314h-2l-94 -314h-191z" />
    <glyph glyph-name="wacute" unicode="&#x1e83;" horiz-adv-x="848" 
d="M138 0l-129 530h188l60 -287h2l85 287h160l85 -287h2l60 287h188l-128 -530h-192l-94 314h-2l-94 -314h-191zM326 590l102 151h176l-132 -151h-146z" />
    <glyph glyph-name="wcircumflex" unicode="&#x175;" horiz-adv-x="848" 
d="M138 0l-129 530h188l60 -287h2l85 287h160l85 -287h2l60 287h188l-128 -530h-192l-94 314h-2l-94 -314h-191zM590 641l-99 -71l-67 85l-66 -85l-99 71l72 89h186z" />
    <glyph glyph-name="wdieresis" unicode="&#x1e85;" horiz-adv-x="848" 
d="M138 0l-129 530h188l60 -287h2l85 287h160l85 -287h2l60 287h188l-128 -530h-192l-94 314h-2l-94 -314h-191zM240 580v145h145v-145h-145zM462 580v145h146v-145h-146z" />
    <glyph glyph-name="wgrave" unicode="&#x1e81;" horiz-adv-x="848" 
d="M138 0l-129 530h188l60 -287h2l85 287h160l85 -287h2l60 287h188l-128 -530h-192l-94 314h-2l-94 -314h-191zM370 590l-134 151h178l100 -151h-144z" />
    <glyph glyph-name="x" unicode="x" horiz-adv-x="586" 
d="M-11 0l190 268l-186 262h223l77 -139h2l78 139h220l-184 -262l188 -268h-220l-82 145h-2l-81 -145h-223z" />
    <glyph glyph-name="y" unicode="y" horiz-adv-x="610" 
d="M106 -225l103 251l-214 504h204l107 -294h2l105 294h203l-314 -755h-196z" />
    <glyph glyph-name="yacute" unicode="&#xfd;" horiz-adv-x="610" 
d="M106 -225l103 251l-214 504h204l107 -294h2l105 294h203l-314 -755h-196zM208 590l102 151h176l-132 -151h-146z" />
    <glyph glyph-name="ycircumflex" unicode="&#x177;" horiz-adv-x="610" 
d="M106 -225l103 251l-214 504h204l107 -294h2l105 294h203l-314 -755h-196zM472 641l-99 -71l-67 85l-66 -85l-99 71l72 89h186z" />
    <glyph glyph-name="ydieresis" unicode="&#xff;" horiz-adv-x="610" 
d="M106 -225l103 251l-214 504h204l107 -294h2l105 294h203l-314 -755h-196zM122 580v145h145v-145h-145zM344 580v145h146v-145h-146z" />
    <glyph glyph-name="uni1EF5" unicode="&#x1ef5;" horiz-adv-x="610" 
d="M106 -225l103 251l-214 504h204l107 -294h2l105 294h203l-314 -755h-196zM418 -194v145h145v-145h-145z" />
    <glyph glyph-name="ygrave" unicode="&#x1ef3;" horiz-adv-x="610" 
d="M106 -225l103 251l-214 504h204l107 -294h2l105 294h203l-314 -755h-196zM252 590l-134 151h178l100 -151h-144z" />
    <glyph glyph-name="uni1EF9" unicode="&#x1ef9;" horiz-adv-x="610" 
d="M106 -225l103 251l-214 504h204l107 -294h2l105 294h203l-314 -755h-196zM298 609c-23 11 -40 17 -51 17c-19 0 -30 -12 -34 -36h-84c4 93 40 144 104 144c29 0 46 -8 81 -24c23 -12 35 -17 50 -17c19 0 30 12 34 35h84c-3 -93 -39 -144 -103 -144c-28 0 -50 9 -81 25z
" />
    <glyph glyph-name="z" unicode="z" horiz-adv-x="537" 
d="M19 0v132l233 239v2h-232v157h479v-132l-234 -239v-2h253v-157h-499z" />
    <glyph glyph-name="zacute" unicode="&#x17a;" horiz-adv-x="537" 
d="M19 0v132l233 239v2h-232v157h479v-132l-234 -239v-2h253v-157h-499zM170 590l102 151h176l-132 -151h-146z" />
    <glyph glyph-name="zcaron" unicode="&#x17e;" horiz-adv-x="537" 
d="M19 0v132l233 239v2h-232v157h479v-132l-234 -239v-2h253v-157h-499zM335 740l99 -71l-73 -89h-186l-72 89l99 71l66 -85z" />
    <glyph glyph-name="zdotaccent" unicode="&#x17c;" horiz-adv-x="537" 
d="M19 0v132l233 239v2h-232v157h479v-132l-234 -239v-2h253v-157h-499zM181 609v159h175v-159h-175z" />
    <glyph glyph-name="uni1E93" unicode="&#x1e93;" horiz-adv-x="537" 
d="M19 0v132l233 239v2h-232v157h479v-132l-234 -239v-2h253v-157h-499zM195 -194v145h145v-145h-145z" />
    <glyph glyph-name="A.ordn" horiz-adv-x="281" 
d="M8 497c0 48 32 75 109 91c39 8 50 14 50 26c0 11 -9 16 -28 16c-24 0 -43 -14 -48 -37l-87 20c9 56 65 94 134 94c76 0 124 -46 124 -115v-168h-83v23h-1c-11 -19 -38 -30 -75 -30c-56 0 -95 32 -95 80zM171 523v23h-1c-2 -5 -13 -11 -33 -17c-28 -7 -39 -12 -39 -23
c0 -9 11 -14 28 -14c25 0 45 14 45 31z" />
    <glyph glyph-name="B.ccmp" horiz-adv-x="327" 
d="M323 562c0 -87 -51 -145 -123 -145c-36 0 -64 12 -79 32h-1v-25h-101v380h109v-121h1c17 16 41 24 71 24c72 0 123 -58 123 -145zM215 562c0 33 -18 53 -46 53c-24 0 -41 -18 -41 -45v-16c0 -27 17 -45 41 -45c28 0 46 20 46 53z" />
    <glyph glyph-name="C.ccmp" horiz-adv-x="298" 
d="M4 562c0 42 14 77 42 104s64 41 107 41c79 0 130 -42 141 -110l-101 -17c-5 23 -19 35 -40 35c-24 0 -40 -20 -40 -53s16 -53 40 -53c21 0 35 12 40 35l101 -17c-11 -68 -62 -110 -141 -110c-43 0 -79 14 -107 41s-42 62 -42 104z" />
    <glyph glyph-name="D.ccmp" horiz-adv-x="327" 
d="M198 683h1v121h109v-380h-101v25h-1c-15 -20 -43 -32 -79 -32c-72 0 -123 58 -123 145s51 145 123 145c30 0 54 -8 71 -24zM199 554v16c0 27 -17 45 -41 45c-28 0 -46 -20 -46 -53s18 -53 46 -53c24 0 41 18 41 45z" />
    <glyph glyph-name="E.ccmp" horiz-adv-x="295" 
d="M291 567v-33l-183 1c5 -24 23 -36 53 -36c25 0 49 7 73 22l41 -72c-35 -21 -75 -32 -120 -32c-89 0 -151 59 -151 146c0 41 14 76 41 103c28 27 63 41 105 41c85 0 141 -56 141 -140zM109 595h85c-3 19 -19 33 -40 33c-24 0 -39 -11 -45 -33z" />
    <glyph glyph-name="F.ccmp" horiz-adv-x="247" 
d="M59 424v183h-59v93h59v31c0 60 38 95 106 95h63v-87h-40c-13 0 -20 -7 -20 -20v-19h79v-93h-79v-183h-109z" />
    <glyph glyph-name="G.ccmp" horiz-adv-x="333" 
d="M16 356l63 66c24 -26 50 -39 78 -39c36 0 54 19 54 52v16h-1c-15 -17 -40 -26 -74 -26c-79 0 -132 57 -132 142c0 40 13 73 38 100s57 40 96 40c33 0 59 -12 74 -29h1v22h101v-275c0 -73 -68 -129 -157 -129c-52 0 -105 23 -141 60zM206 555v19c0 27 -19 45 -46 45
c-29 0 -47 -19 -47 -52s18 -54 47 -54c28 0 46 17 46 42z" />
    <glyph glyph-name="H.ccmp" horiz-adv-x="330" 
d="M19 424v380h109v-123h1c19 17 44 26 75 26c72 0 112 -44 112 -117v-166h-108v148c0 28 -12 42 -37 42c-28 0 -43 -17 -43 -42v-148h-109z" />
    <glyph glyph-name="I.ordn" horiz-adv-x="146" 
d="M23 747v97h102v-97h-102zM19 424v276h108v-276h-108z" />
    <glyph glyph-name="J.ordn" horiz-adv-x="153" 
d="M29 747v97h103v-97h-103zM-30 291v103h32c16 0 23 6 23 23v283h109v-288c0 -81 -36 -121 -124 -121h-40z" />
    <glyph glyph-name="K.ccmp" horiz-adv-x="320" 
d="M19 424v380h109v-185h1l70 81h132l-107 -109l98 -167h-120l-47 96h-1l-26 -27v-69h-109z" />
    <glyph glyph-name="L.ccmp" horiz-adv-x="147" 
d="M19 424v380h109v-380h-109z" />
    <glyph glyph-name="M.ccmp" horiz-adv-x="467" 
d="M19 424v276h101v-22h1c13 19 40 29 69 29s57 -11 73 -32h1c15 21 46 32 77 32c65 0 111 -41 111 -105v-178h-105v161c0 20 -11 30 -33 30c-21 0 -31 -11 -31 -33v-158h-95v163c0 19 -10 28 -31 28s-32 -10 -32 -31v-160h-106z" />
    <glyph glyph-name="N.ccmp" horiz-adv-x="330" 
d="M19 424v276h103v-24h1c19 21 46 31 81 31c72 0 112 -44 112 -117v-166h-108v148c0 29 -12 43 -37 43c-28 0 -43 -18 -43 -43v-148h-109z" />
    <glyph glyph-name="O.ordn" horiz-adv-x="312" 
d="M4 562c0 87 61 145 152 145s152 -58 152 -145s-61 -145 -152 -145s-152 58 -152 145zM200 562c0 33 -16 53 -44 53c-27 0 -43 -20 -43 -53s16 -53 43 -53c28 0 44 20 44 53z" />
    <glyph glyph-name="P.ccmp" horiz-adv-x="320" 
d="M316 562c0 -87 -50 -145 -122 -145c-26 0 -48 6 -65 18h-1v-132h-109v397h104v-15h1c17 15 40 22 70 22c72 0 122 -58 122 -145zM208 562c0 33 -17 53 -45 53c-24 0 -41 -18 -41 -45v-16c0 -27 17 -45 41 -45c28 0 45 20 45 53z" />
    <glyph glyph-name="Q.ccmp" horiz-adv-x="320" 
d="M196 685h1v15h104v-397h-109v132h-1c-17 -12 -39 -18 -65 -18c-72 0 -122 58 -122 145s50 145 122 145c30 0 53 -7 70 -22zM198 554v16c0 27 -17 45 -41 45c-28 0 -45 -20 -45 -53s17 -53 45 -53c24 0 41 18 41 45z" />
    <glyph glyph-name="R.ccmp" horiz-adv-x="220" 
d="M230 703l-15 -97c-9 2 -18 3 -27 3c-41 0 -60 -20 -60 -87v-98h-109v276h101v-24h1c14 20 38 30 73 30c6 0 18 -1 36 -3z" />
    <glyph glyph-name="S.ccmp" horiz-adv-x="284" 
d="M14 509l87 24c9 -26 26 -39 51 -39c15 0 25 5 25 13c0 11 -11 18 -48 27c-67 17 -98 43 -98 84c0 53 46 89 114 89c63 0 109 -30 126 -82l-82 -23c-7 21 -21 32 -44 32c-13 0 -24 -6 -24 -13c0 -8 9 -12 42 -21c77 -24 106 -48 106 -89c0 -57 -45 -94 -117 -94
s-126 35 -138 92z" />
    <glyph glyph-name="T.ccmp" horiz-adv-x="225" 
d="M225 612h-67v-75c0 -11 7 -16 21 -16h33v-97h-50c-79 0 -112 29 -112 106v82h-50v88h50v73h108v-73h67v-88z" />
    <glyph glyph-name="U.ccmp" horiz-adv-x="322" 
d="M195 700h108v-276h-103v29h-1c-17 -23 -47 -36 -80 -36c-70 0 -105 40 -105 120v163h109v-154c0 -25 11 -37 33 -37c24 0 39 15 39 42v149z" />
    <glyph glyph-name="V.ccmp" horiz-adv-x="329" 
d="M117 424l-118 276h125l40 -137h1l40 137h125l-118 -276h-95z" />
    <glyph glyph-name="W.ccmp" horiz-adv-x="446" 
d="M69 424l-70 276h108l30 -135h1l41 135h89l40 -135h1l30 135h108l-70 -276h-110l-43 150h-1l-44 -150h-110z" />
    <glyph glyph-name="X.ccmp" horiz-adv-x="336" 
d="M0 424l98 138l-99 138h127l41 -75h1l42 75h127l-99 -138l98 -138h-126l-42 74h-1l-41 -74h-126z" />
    <glyph glyph-name="Y.ccmp" horiz-adv-x="338" 
d="M226 700h113l-171 -397h-113l57 134l-113 263h112l57 -148h1z" />
    <glyph glyph-name="Z.ccmp" horiz-adv-x="267" 
d="M-1 424v76l127 112v1h-123v87h264v-76l-126 -112v-1h126v-87h-268z" />
    <glyph glyph-name="a.salt" horiz-adv-x="609" 
d="M385 530h180v-530h-180v54h-2c-27 -41 -73 -63 -130 -63c-139 0 -235 112 -235 274s96 274 235 274c53 0 103 -21 130 -56h2v47zM378 235v58c0 49 -35 84 -83 84c-55 0 -90 -43 -90 -111c0 -69 32 -110 88 -110c49 0 85 34 85 79z" />
    <glyph glyph-name="aacute.salt" horiz-adv-x="609" 
d="M385 530h180v-530h-180v54h-2c-27 -41 -73 -63 -130 -63c-139 0 -235 112 -235 274s96 274 235 274c53 0 103 -21 130 -56h2v47zM378 235v58c0 49 -35 84 -83 84c-55 0 -90 -43 -90 -111c0 -69 32 -110 88 -110c49 0 85 34 85 79zM208 605l102 151h176l-132 -151h-146z
" />
    <glyph glyph-name="abreve.salt" horiz-adv-x="609" 
d="M385 530h180v-530h-180v54h-2c-27 -41 -73 -63 -130 -63c-139 0 -235 112 -235 274s96 274 235 274c53 0 103 -21 130 -56h2v47zM378 235v58c0 49 -35 84 -83 84c-55 0 -90 -43 -90 -111c0 -69 32 -110 88 -110c49 0 85 34 85 79zM135 745h95c11 -29 37 -44 78 -44
s66 15 76 44h96c-5 -93 -71 -150 -172 -150c-103 0 -168 57 -173 150z" />
    <glyph glyph-name="uni01CE.salt" horiz-adv-x="609" 
d="M385 530h180v-530h-180v54h-2c-27 -41 -73 -63 -130 -63c-139 0 -235 112 -235 274s96 274 235 274c53 0 103 -21 130 -56h2v47zM378 235v58c0 49 -35 84 -83 84c-55 0 -90 -43 -90 -111c0 -69 32 -110 88 -110c49 0 85 34 85 79zM373 755l99 -71l-73 -89h-186l-72 89
l99 71l66 -85z" />
    <glyph glyph-name="acircumflex.salt" horiz-adv-x="609" 
d="M385 530h180v-530h-180v54h-2c-27 -41 -73 -63 -130 -63c-139 0 -235 112 -235 274s96 274 235 274c53 0 103 -21 130 -56h2v47zM378 235v58c0 49 -35 84 -83 84c-55 0 -90 -43 -90 -111c0 -69 32 -110 88 -110c49 0 85 34 85 79zM472 656l-99 -71l-67 85l-66 -85l-99 71
l72 89h186z" />
    <glyph glyph-name="uni1EAD.salt" horiz-adv-x="609" 
d="M385 530h180v-530h-180v54h-2c-27 -41 -73 -63 -130 -63c-139 0 -235 112 -235 274s96 274 235 274c53 0 103 -21 130 -56h2v47zM378 235v58c0 49 -35 84 -83 84c-55 0 -90 -43 -90 -111c0 -69 32 -110 88 -110c49 0 85 34 85 79zM472 656l-99 -71l-67 85l-66 -85l-99 71
l72 89h186zM233 -209v145h145v-145h-145z" />
    <glyph glyph-name="adieresis.salt" horiz-adv-x="609" 
d="M385 530h180v-530h-180v54h-2c-27 -41 -73 -63 -130 -63c-139 0 -235 112 -235 274s96 274 235 274c53 0 103 -21 130 -56h2v47zM378 235v58c0 49 -35 84 -83 84c-55 0 -90 -43 -90 -111c0 -69 32 -110 88 -110c49 0 85 34 85 79zM122 595v145h145v-145h-145zM344 595
v145h146v-145h-146z" />
    <glyph glyph-name="uni01DF.salt" horiz-adv-x="609" 
d="M385 530h180v-530h-180v54h-2c-27 -41 -73 -63 -130 -63c-139 0 -235 112 -235 274s96 274 235 274c53 0 103 -21 130 -56h2v47zM378 235v58c0 49 -35 84 -83 84c-55 0 -90 -43 -90 -111c0 -69 32 -110 88 -110c49 0 85 34 85 79zM122 595v145h145v-145h-145zM344 595
v145h146v-145h-146zM132 780v109h348v-109h-348z" />
    <glyph glyph-name="uni1EA1.salt" horiz-adv-x="609" 
d="M385 530h180v-530h-180v54h-2c-27 -41 -73 -63 -130 -63c-139 0 -235 112 -235 274s96 274 235 274c53 0 103 -21 130 -56h2v47zM378 235v58c0 49 -35 84 -83 84c-55 0 -90 -43 -90 -111c0 -69 32 -110 88 -110c49 0 85 34 85 79zM233 -209v145h145v-145h-145z" />
    <glyph glyph-name="agrave.salt" horiz-adv-x="609" 
d="M385 530h180v-530h-180v54h-2c-27 -41 -73 -63 -130 -63c-139 0 -235 112 -235 274s96 274 235 274c53 0 103 -21 130 -56h2v47zM378 235v58c0 49 -35 84 -83 84c-55 0 -90 -43 -90 -111c0 -69 32 -110 88 -110c49 0 85 34 85 79zM252 605l-134 151h178l100 -151h-144z
" />
    <glyph glyph-name="amacron.salt" horiz-adv-x="609" 
d="M385 530h180v-530h-180v54h-2c-27 -41 -73 -63 -130 -63c-139 0 -235 112 -235 274s96 274 235 274c53 0 103 -21 130 -56h2v47zM378 235v58c0 49 -35 84 -83 84c-55 0 -90 -43 -90 -111c0 -69 32 -110 88 -110c49 0 85 34 85 79zM132 605v109h348v-109h-348z" />
    <glyph glyph-name="aogonek.salt" horiz-adv-x="609" 
d="M385 530h180v-530h-180v54h-2c-27 -41 -73 -63 -130 -63c-139 0 -235 112 -235 274s96 274 235 274c53 0 103 -21 130 -56h2v47zM378 235v58c0 49 -35 84 -83 84c-55 0 -90 -43 -90 -111c0 -69 32 -110 88 -110c49 0 85 34 85 79zM354 -124c0 47 33 96 106 139l76 -15
c-43 -33 -64 -62 -64 -86c0 -15 8 -23 23 -23c16 0 34 5 55 14l38 -101c-36 -16 -74 -24 -113 -24c-75 0 -121 33 -121 96z" />
    <glyph glyph-name="aring.salt" horiz-adv-x="613" 
d="M133 702c0 39 14 72 43 97s66 38 111 38s82 -13 111 -39c29 -25 44 -57 44 -96s-15 -71 -44 -97c-29 -25 -66 -38 -111 -38s-82 13 -111 38s-43 58 -43 97zM346 702c0 35 -24 58 -59 58s-59 -25 -59 -58s24 -58 59 -58s59 23 59 58zM385 530h180v-530h-180v54h-2
c-27 -41 -73 -63 -130 -63c-139 0 -235 112 -235 274s96 274 235 274c53 0 103 -21 130 -56h2v47zM378 235v58c0 49 -35 84 -83 84c-55 0 -90 -43 -90 -111c0 -69 32 -110 88 -110c49 0 85 34 85 79z" />
    <glyph glyph-name="aringacute.salt" horiz-adv-x="603" 
d="M180 690c0 55 32 101 84 122l97 143h176l-127 -146c49 -23 79 -66 79 -119c0 -39 -15 -71 -44 -97c-29 -25 -66 -38 -111 -38s-82 13 -111 38s-43 58 -43 97zM393 690c0 35 -24 58 -59 58s-59 -25 -59 -58s24 -58 59 -58s59 23 59 58zM385 530h180v-530h-180v54h-2
c-27 -41 -73 -63 -130 -63c-139 0 -235 112 -235 274s96 274 235 274c53 0 103 -21 130 -56h2v47zM378 235v58c0 49 -35 84 -83 84c-55 0 -90 -43 -90 -111c0 -69 32 -110 88 -110c49 0 85 34 85 79z" />
    <glyph glyph-name="atilde.salt" horiz-adv-x="609" 
d="M385 530h180v-530h-180v54h-2c-27 -41 -73 -63 -130 -63c-139 0 -235 112 -235 274s96 274 235 274c53 0 103 -21 130 -56h2v47zM378 235v58c0 49 -35 84 -83 84c-55 0 -90 -43 -90 -111c0 -69 32 -110 88 -110c49 0 85 34 85 79zM298 624c-23 11 -40 17 -51 17
c-19 0 -30 -12 -34 -36h-84c4 93 40 144 104 144c29 0 46 -8 81 -24c23 -12 35 -17 50 -17c19 0 30 12 34 35h84c-3 -93 -39 -144 -103 -144c-28 0 -50 9 -81 25z" />
    <glyph glyph-name="aring.ss02" horiz-adv-x="527" 
d="M18 149c0 81 56 132 177 161c93 23 121 37 121 62c0 23 -20 35 -59 35c-44 0 -68 -25 -77 -78l-162 33c16 108 117 189 239 189c141 0 236 -84 236 -209v-342h-160v46h-2c-19 -37 -70 -61 -130 -61c-115 0 -183 61 -183 164zM318 187v54h-2c-5 -13 -18 -21 -58 -34
c-48 -15 -64 -27 -64 -48s15 -31 45 -31c40 0 79 28 79 59zM86 615c0 86 72 150 171 150c98 0 172 -64 172 -150c0 -84 -74 -149 -172 -149c-99 0 -171 65 -171 149zM323 615c0 39 -27 65 -66 65s-65 -26 -65 -65c0 -37 28 -64 65 -64c39 0 66 27 66 64z" />
    <glyph glyph-name="aringacute.ss02" horiz-adv-x="527" 
d="M18 149c0 81 56 132 177 161c93 23 121 37 121 62c0 23 -20 35 -59 35c-44 0 -68 -25 -77 -78l-162 33c16 108 117 189 239 189c141 0 236 -84 236 -209v-342h-160v46h-2c-19 -37 -70 -61 -130 -61c-115 0 -183 61 -183 164zM318 187v54h-2c-5 -13 -18 -21 -58 -34
c-48 -15 -64 -27 -64 -48s15 -31 45 -31c40 0 79 28 79 59zM86 615c0 86 72 150 171 150c98 0 172 -64 172 -150c0 -84 -74 -149 -172 -149c-99 0 -171 65 -171 149zM323 615c0 39 -27 65 -66 65s-65 -26 -65 -65c0 -37 28 -64 65 -64c39 0 66 27 66 64zM158 738l102 151
h176l-132 -151h-146z" />
    <glyph glyph-name="f.ss03" horiz-adv-x="416" 
d="M110 0v382h-111v148h111v60c0 99 63 157 174 157h116v-147h-65c-25 0 -38 -13 -38 -38v-32h98v-148h-98v-382h-187z" />
    <glyph glyph-name="j.ss03" horiz-adv-x="275" 
d="M49 609v159h175v-159h-175zM44 -225v755h187v-755h-187z" />
    <glyph glyph-name="t.ss03" horiz-adv-x="404" 
d="M330 170h60v-170h-87c-141 0 -207 66 -207 195v187h-97v148h97v140h187v-140h84v-148h-84v-166c0 -32 14 -46 47 -46z" />
    <glyph glyph-name="ordfeminine" unicode="&#xaa;" horiz-adv-x="281" 
d="M8 497c0 48 32 75 109 91c39 8 50 14 50 26c0 11 -9 16 -28 16c-24 0 -43 -14 -48 -37l-87 20c9 56 65 94 134 94c76 0 124 -46 124 -115v-168h-83v23h-1c-11 -19 -38 -30 -75 -30c-56 0 -95 32 -95 80zM171 523v23h-1c-2 -5 -13 -11 -33 -17c-28 -7 -39 -12 -39 -23
c0 -9 11 -14 28 -14c25 0 45 14 45 31z" />
    <glyph glyph-name="ordmasculine" unicode="&#xba;" horiz-adv-x="312" 
d="M4 562c0 87 61 145 152 145s152 -58 152 -145s-61 -145 -152 -145s-152 58 -152 145zM200 562c0 33 -16 53 -44 53c-27 0 -43 -20 -43 -53s16 -53 43 -53c28 0 44 20 44 53z" />
    <glyph glyph-name="uni0394" unicode="&#x394;" horiz-adv-x="654" 
d="M424 700l241 -700h-676l242 700h193zM229 165h197l-98 315h-2z" />
    <glyph glyph-name="uni03A9" unicode="&#x3a9;" horiz-adv-x="676" 
d="M550 133v-2h101v-131h-281v122c57 16 102 120 102 237c0 115 -51 185 -134 185s-134 -70 -134 -185c0 -117 45 -223 102 -237v-122h-281v131h101v2c-71 37 -114 127 -114 238c-3 201 138 353 325 350c187 3 330 -149 327 -350c0 -111 -43 -201 -114 -238z" />
    <glyph glyph-name="uni03BC" unicode="&#x3bc;" horiz-adv-x="602" 
d="M371 530h187v-530h-178v46h-2c-15 -41 -43 -61 -95 -61c-18 0 -35 3 -50 10h-2v-220h-187v755h187v-304c0 -49 22 -73 67 -73s73 28 73 73v304z" />
    <glyph glyph-name="pi" unicode="&#x3c0;" horiz-adv-x="753" 
d="M719 362h-111v-151c0 -33 8 -41 41 -41h66v-170h-110c-123 0 -184 58 -184 175v187h-120v-362h-187v362h-115v168h720v-168z" />
    <glyph glyph-name="zero" unicode="0" horiz-adv-x="660" 
d="M12 336c-3 207 138 360 319 357c181 3 320 -150 317 -357c3 -208 -136 -360 -317 -357c-183 -3 -321 149 -319 357zM461 336c0 123 -53 185 -130 185c-79 0 -132 -62 -132 -185s53 -185 132 -185c77 0 130 62 130 185z" />
    <glyph glyph-name="one" unicode="1" horiz-adv-x="448" 
d="M187 0v482l-174 -95v184l183 101h178v-672h-187z" />
    <glyph glyph-name="two" unicode="2" horiz-adv-x="634" 
d="M246 168h347v-168h-556v114c0 59 14 101 43 138c39 45 95 80 188 115c124 47 142 59 145 106c0 37 -31 58 -84 58c-63 0 -110 -44 -113 -105l-183 14c8 150 127 252 300 252c151 0 267 -94 267 -219c0 -114 -54 -177 -221 -234c-53 -18 -93 -36 -118 -54
c-7 -5 -12 -11 -15 -17z" />
    <glyph glyph-name="three" unicode="3" horiz-adv-x="641" 
d="M23 224l186 31c11 -77 49 -110 118 -110c65 0 94 22 94 69c0 40 -36 64 -97 64h-70v129h71c55 0 86 20 86 57s-36 62 -88 62c-61 0 -97 -27 -107 -82l-183 29c18 129 139 220 290 220c156 0 267 -86 267 -208c0 -60 -29 -102 -89 -135v-2c71 -31 107 -83 107 -157
c0 -129 -113 -212 -281 -212c-176 0 -283 93 -304 245z" />
    <glyph glyph-name="four" unicode="4" horiz-adv-x="621" 
d="M344 0v95h-345v176l232 401h300v-404h82v-173h-82v-95h-187zM184 268h160v283h-2z" />
    <glyph glyph-name="five" unicode="5" horiz-adv-x="616" 
d="M18 158l178 70c20 -53 58 -76 121 -76c56 0 99 33 99 78s-43 78 -102 78c-42 0 -80 -15 -114 -46l-169 43l64 367h437v-168h-304l-17 -90l2 -1c37 24 84 36 141 36c141 0 249 -104 249 -231c0 -136 -117 -238 -286 -238c-73 0 -136 16 -190 48c-54 33 -90 76 -109 130z
" />
    <glyph glyph-name="six" unicode="6" horiz-adv-x="616" 
d="M613 213c0 -137 -120 -233 -281 -233c-201 0 -320 134 -320 353c0 211 132 359 328 359c64 0 120 -16 167 -49c47 -32 79 -74 94 -125l-174 -55c-15 37 -48 60 -89 60c-69 0 -112 -45 -120 -114h2c35 25 85 38 149 38c135 0 244 -103 244 -234zM431 228
c0 49 -39 80 -102 80c-61 0 -102 -32 -102 -80s41 -79 102 -79s102 31 102 79z" />
    <glyph glyph-name="seven" unicode="7" horiz-adv-x="545" 
d="M50 0l269 497v2h-321v173h538v-158l-269 -514h-217z" />
    <glyph glyph-name="eight" unicode="8" horiz-adv-x="629" 
d="M3 193c0 39 12 75 37 106c25 32 56 53 93 64v2c-62 27 -93 72 -93 137c0 105 110 190 274 190s274 -85 274 -190c0 -65 -31 -110 -93 -137v-2c37 -11 67 -32 92 -64c25 -31 38 -67 38 -106c0 -138 -145 -214 -311 -214c-161 -1 -314 77 -311 214zM404 480
c0 40 -35 66 -90 66c-53 0 -89 -26 -89 -66c0 -39 36 -64 89 -64c55 0 90 25 90 64zM418 206c0 40 -41 73 -104 73s-104 -33 -104 -73c0 -37 40 -64 104 -64s104 27 104 64z" />
    <glyph glyph-name="nine" unicode="9" horiz-adv-x="604" 
d="M592 360c0 -254 -100 -381 -299 -381c-127 0 -226 65 -263 165l165 63c17 -47 49 -68 98 -68c65 0 105 42 112 123h-2c-31 -25 -76 -37 -135 -37c-162 0 -266 87 -266 225c0 144 117 243 284 243c186 0 306 -129 306 -333zM289 364c67 0 108 31 108 84
c0 52 -43 84 -108 84c-67 0 -108 -32 -108 -84c0 -53 41 -84 108 -84z" />
    <glyph glyph-name="zero.ccmp" horiz-adv-x="670" 
d="M12 350c-3 217 140 373 323 371c183 3 325 -154 322 -371c3 -217 -139 -374 -322 -371c-183 -2 -326 154 -323 371zM465 350c0 124 -54 189 -130 189s-131 -66 -131 -189s55 -189 131 -189s130 65 130 189z" />
    <glyph glyph-name="one.ccmp" horiz-adv-x="454" 
d="M188 0v503l-175 -100v192l184 105h183v-700h-192z" />
    <glyph glyph-name="two.ccmp" horiz-adv-x="640" 
d="M251 175h348v-175h-562v118c0 58 15 105 45 142c39 48 94 84 190 121c120 49 139 63 142 112c0 40 -29 63 -81 63c-60 0 -108 -46 -113 -111l-187 13c8 156 129 263 304 263c153 0 269 -99 269 -227c-3 -123 -52 -178 -224 -246c-60 -23 -99 -41 -116 -55
c-8 -7 -13 -13 -15 -18z" />
    <glyph glyph-name="three.ccmp" horiz-adv-x="646" 
d="M23 233l191 33c9 -81 47 -117 115 -117c58 0 87 24 87 72c0 44 -34 70 -90 70h-70v133h73c53 0 84 22 84 61s-36 65 -88 65c-61 0 -96 -29 -106 -86l-186 30c16 132 140 227 292 227c159 0 270 -88 270 -215c0 -63 -29 -107 -90 -140v-2c72 -32 108 -87 108 -165
c0 -133 -114 -220 -284 -220c-177 0 -283 95 -306 254z" />
    <glyph glyph-name="four.ccmp" horiz-adv-x="625" 
d="M344 0v107h-345v174l231 419h306v-423h81v-170h-81v-107h-192zM186 277h158v298h-2z" />
    <glyph glyph-name="five.ccmp" horiz-adv-x="621" 
d="M18 165l180 70c20 -55 60 -79 121 -79c55 0 97 35 97 83c0 49 -42 84 -101 84c-43 0 -80 -16 -111 -49l-174 45l64 381h441v-173h-305l-18 -96l2 -1c38 25 86 38 144 38c137 3 253 -110 250 -241c0 -143 -119 -248 -289 -248c-73 0 -137 17 -191 50
c-54 34 -91 79 -110 136z" />
    <glyph glyph-name="six.ccmp" horiz-adv-x="616" 
d="M613 223c0 -142 -120 -243 -281 -243c-201 0 -320 141 -320 367c-2 217 133 376 328 373c65 0 120 -17 167 -51c47 -33 79 -77 94 -130l-174 -54c-15 41 -48 66 -89 66c-72 0 -115 -50 -120 -130h2c37 30 87 45 149 45c135 3 246 -110 244 -243zM431 237
c0 53 -39 88 -102 88c-61 0 -102 -35 -102 -88s39 -88 102 -88s102 35 102 88z" />
    <glyph glyph-name="seven.ccmp" horiz-adv-x="549" 
d="M48 0l269 522v2h-319v176h543v-162l-273 -538h-220z" />
    <glyph glyph-name="eight.ccmp" horiz-adv-x="629" 
d="M3 202c0 40 12 77 37 110s56 56 93 68v2c-62 29 -93 76 -93 141c0 110 110 198 274 198s274 -88 274 -198c0 -65 -31 -112 -93 -141v-2c37 -12 67 -35 92 -68s38 -70 38 -110c0 -139 -147 -223 -311 -223c-160 -1 -315 85 -311 223zM404 503c0 43 -35 70 -90 70
c-53 0 -89 -27 -89 -70s36 -70 89 -70c55 0 90 27 90 70zM418 217c0 43 -41 78 -104 78s-104 -35 -104 -78c0 -44 40 -73 104 -73c65 0 104 29 104 73z" />
    <glyph glyph-name="nine.ccmp" horiz-adv-x="607" 
d="M595 375c0 -265 -103 -395 -300 -395c-63 0 -119 15 -166 46s-80 73 -99 126l167 63c17 -51 49 -72 98 -72c64 0 105 44 110 131h-2c-33 -27 -77 -40 -134 -40c-163 0 -267 91 -267 235c0 147 119 251 286 251c187 0 307 -134 307 -345zM291 377c65 0 106 34 106 90
c0 55 -42 90 -106 90c-65 0 -106 -34 -106 -90s41 -90 106 -90z" />
    <glyph glyph-name="zero.tnum" 
d="M3 350c-3 217 139 374 322 371c183 3 325 -154 322 -371c3 -217 -139 -374 -322 -371c-183 -3 -325 154 -322 371zM455 350c0 124 -54 189 -130 189s-130 -65 -130 -189s54 -189 130 -189s130 65 130 189z" />
    <glyph glyph-name="one.tnum" 
d="M426 171h175v-171h-552v171h185v332l-175 -100v192l184 105h183v-529z" />
    <glyph glyph-name="two.tnum" 
d="M256 175h348v-175h-562v118c0 58 15 105 45 142c39 48 94 84 190 121c120 49 139 63 142 112c0 40 -29 63 -81 63c-60 0 -108 -46 -113 -111l-187 13c8 156 129 263 304 263c153 0 269 -99 269 -227c-3 -123 -52 -178 -224 -246c-60 -23 -99 -41 -116 -55
c-8 -7 -13 -13 -15 -18z" />
    <glyph glyph-name="three.tnum" 
d="M30 233l191 33c9 -81 47 -117 115 -117c58 0 87 24 87 72c0 44 -34 70 -90 70h-70v133h73c53 0 84 22 84 61s-36 65 -88 65c-61 0 -96 -29 -106 -86l-186 30c16 132 140 227 292 227c159 0 270 -88 270 -215c0 -63 -29 -107 -90 -140v-2c72 -32 108 -87 108 -165
c0 -133 -114 -220 -284 -220c-177 0 -283 95 -306 254z" />
    <glyph glyph-name="four.tnum" 
d="M361 0v107h-345v174l231 419h306v-423h81v-170h-81v-107h-192zM203 277h158v298h-2z" />
    <glyph glyph-name="five.tnum" 
d="M30 165l180 70c20 -55 60 -79 121 -79c55 0 97 35 97 83c0 49 -42 84 -101 84c-43 0 -80 -16 -111 -49l-174 45l64 381h441v-173h-305l-18 -96l2 -1c38 25 86 38 144 38c137 3 253 -110 250 -241c0 -143 -119 -248 -289 -248c-73 0 -137 17 -191 50
c-54 34 -91 79 -110 136z" />
    <glyph glyph-name="six.tnum" 
d="M621 223c0 -142 -120 -243 -281 -243c-201 0 -320 141 -320 367c-2 217 133 376 328 373c65 0 120 -17 167 -51c47 -33 79 -77 94 -130l-174 -54c-15 41 -48 66 -89 66c-72 0 -115 -50 -120 -130h2c37 30 87 45 149 45c135 3 246 -110 244 -243zM439 237
c0 53 -39 88 -102 88c-61 0 -102 -35 -102 -88s39 -88 102 -88s102 35 102 88z" />
    <glyph glyph-name="seven.tnum" 
d="M104 0l269 522v2h-319v176h543v-162l-273 -538h-220z" />
    <glyph glyph-name="eight.tnum" 
d="M21 202c0 40 12 77 37 110s56 56 93 68v2c-62 29 -93 76 -93 141c0 110 110 198 274 198s274 -88 274 -198c0 -65 -31 -112 -93 -141v-2c37 -12 67 -35 92 -68s38 -70 38 -110c0 -139 -147 -223 -311 -223c-160 -1 -315 85 -311 223zM422 503c0 43 -35 70 -90 70
c-53 0 -89 -27 -89 -70s36 -70 89 -70c55 0 90 27 90 70zM436 217c0 43 -41 78 -104 78s-104 -35 -104 -78c0 -44 40 -73 104 -73c65 0 104 29 104 73z" />
    <glyph glyph-name="nine.tnum" 
d="M617 375c0 -265 -103 -395 -300 -395c-63 0 -119 15 -166 46s-80 73 -99 126l167 63c17 -51 49 -72 98 -72c64 0 105 44 110 131h-2c-33 -27 -77 -40 -134 -40c-163 0 -267 91 -267 235c0 147 119 251 286 251c187 0 307 -134 307 -345zM313 377c65 0 106 34 106 90
c0 55 -42 90 -106 90c-65 0 -106 -34 -106 -90s41 -90 106 -90z" />
    <glyph glyph-name="zero.zero" horiz-adv-x="660" 
d="M648 336c3 -208 -136 -360 -317 -357c-183 -3 -321 149 -319 357c-3 207 138 360 319 357c181 3 320 -150 317 -357zM194 336c0 -43 6 -79 17 -108l144 300c-11 1 -19 2 -24 2c-83 0 -137 -66 -137 -194zM467 336c0 45 -7 84 -21 115l-144 -306c9 -2 19 -3 29 -3
c80 0 136 66 136 194z" />
    <glyph glyph-name="zero.ordn" horiz-adv-x="670" 
d="M657 350c3 -217 -139 -374 -322 -371c-183 -2 -326 154 -323 371c-3 217 140 373 323 371c183 3 325 -154 322 -371zM197 350c0 -45 6 -84 19 -117l151 318c-9 3 -19 4 -32 4c-81 0 -138 -70 -138 -205zM472 350c0 46 -6 84 -18 114l-148 -316c9 -2 19 -3 29 -3
c81 0 137 69 137 205z" />
    <glyph glyph-name="zero.tnum_zero" 
d="M648 350c3 -217 -139 -374 -322 -371c-183 -2 -326 154 -323 371c-3 217 140 373 323 371c183 3 325 -154 322 -371zM188 350c0 -45 6 -84 19 -117l151 318c-9 3 -19 4 -32 4c-81 0 -138 -70 -138 -205zM463 350c0 46 -6 84 -18 114l-148 -316c9 -2 19 -3 29 -3
c81 0 137 69 137 205z" />
    <glyph glyph-name="zero.subs" horiz-adv-x="419" 
d="M19 61c0 135 72 219 191 219s190 -84 190 -219s-71 -219 -190 -219s-191 84 -191 219zM285 61c0 75 -25 112 -75 112c-51 0 -76 -37 -76 -112s25 -112 76 -112c50 0 75 37 75 112z" />
    <glyph glyph-name="one.subs" horiz-adv-x="276" 
d="M102 -149v289l-94 -54v124l104 61h105v-420h-115z" />
    <glyph glyph-name="two.subs" horiz-adv-x="382" 
d="M156 -39h203v-110h-329v78c0 39 9 67 30 92c20 27 56 48 107 65c65 21 80 32 80 55c0 20 -18 35 -49 35c-33 0 -58 -24 -61 -61l-118 7c4 88 81 158 179 158c99 0 165 -58 165 -141c0 -63 -41 -106 -130 -135c-37 -12 -59 -20 -67 -27c-5 -5 -9 -11 -10 -16z" />
    <glyph glyph-name="three.subs" horiz-adv-x="374" 
d="M14 -14l105 26c8 -49 28 -69 69 -69c35 0 53 13 53 38c0 24 -23 40 -55 40h-32v81h35c32 0 47 12 47 39c0 24 -18 38 -49 38c-35 0 -54 -15 -62 -51l-103 18c12 81 77 134 165 134c89 0 155 -50 155 -119c0 -40 -17 -71 -49 -90v-1c39 -21 62 -55 62 -98
c0 -83 -61 -130 -165 -130c-99 0 -163 53 -176 144z" />
    <glyph glyph-name="four.subs" horiz-adv-x="369" 
d="M203 -149v78h-193v106l135 236h174v-235h46v-107h-46v-78h-116zM121 36h82v148h-1z" />
    <glyph glyph-name="five.subs" horiz-adv-x="386" 
d="M19 -61l100 57c16 -35 37 -48 76 -48c35 0 57 22 57 54c0 25 -22 43 -55 43c-23 0 -44 -9 -64 -27l-104 28l38 225h253v-105h-171l-11 -53l1 -1c23 12 49 18 79 18c85 0 149 -55 149 -128c0 -90 -69 -160 -172 -160c-83 0 -143 36 -176 97z" />
    <glyph glyph-name="six.subs" horiz-adv-x="401" 
d="M382 -5c0 -92 -76 -153 -169 -153c-124 0 -194 80 -194 211c0 137 78 227 190 227c84 0 144 -44 163 -112l-110 -25c-7 23 -24 36 -52 36c-39 0 -65 -39 -72 -80c23 20 58 32 95 32c41 0 76 -13 105 -38s44 -57 44 -98zM267 -7c0 31 -23 49 -60 49c-36 0 -58 -18 -58 -49
s23 -50 59 -50s59 19 59 50z" />
    <glyph glyph-name="seven.subs" horiz-adv-x="320" 
d="M27 -149l159 312v1h-186v107h315v-107l-155 -313h-133z" />
    <glyph glyph-name="eight.subs" horiz-adv-x="403" 
d="M19 -27c0 49 32 93 79 108v1c-33 15 -55 46 -55 81c0 65 67 117 159 117c90 0 158 -52 158 -117c0 -35 -22 -66 -55 -81v-1c47 -15 79 -59 79 -108c0 -80 -70 -131 -182 -131s-183 51 -183 131zM249 155c0 21 -18 35 -47 35c-31 0 -48 -14 -48 -35c0 -23 17 -35 48 -35
c29 0 47 12 47 35zM270 -9c0 29 -25 47 -68 47s-68 -18 -68 -47s25 -47 68 -47s68 18 68 47z" />
    <glyph glyph-name="nine.subs" horiz-adv-x="392" 
d="M373 79c0 -153 -65 -237 -181 -237c-76 0 -134 37 -157 97l99 46c12 -28 30 -42 58 -42c32 0 56 29 60 70h-1c-20 -13 -45 -19 -74 -19c-99 0 -158 52 -158 137c0 88 71 149 171 149c113 0 183 -77 183 -201zM192 83c36 0 58 19 58 48s-23 47 -58 47
c-36 0 -58 -19 -58 -48c0 -28 22 -47 58 -47z" />
    <glyph glyph-name="zero.dnom" horiz-adv-x="419" 
d="M19 210c0 135 72 219 191 219s190 -84 190 -219s-71 -219 -190 -219s-191 84 -191 219zM285 210c0 75 -25 112 -75 112c-51 0 -76 -37 -76 -112s25 -112 76 -112c50 0 75 37 75 112z" />
    <glyph glyph-name="one.dnom" horiz-adv-x="276" 
d="M102 0v289l-94 -54v124l104 61h105v-420h-115z" />
    <glyph glyph-name="two.dnom" horiz-adv-x="382" 
d="M156 110h203v-110h-329v78c0 39 9 67 30 92c20 27 56 48 107 65c65 21 80 32 80 55c0 20 -18 35 -49 35c-33 0 -58 -24 -61 -61l-118 7c4 88 81 158 179 158c99 0 165 -58 165 -141c0 -63 -41 -106 -130 -135c-37 -12 -59 -20 -67 -27c-5 -5 -9 -11 -10 -16z" />
    <glyph glyph-name="three.dnom" horiz-adv-x="374" 
d="M14 135l105 26c8 -49 28 -69 69 -69c35 0 53 13 53 38c0 24 -23 40 -55 40h-32v81h35c32 0 47 12 47 39c0 24 -18 38 -49 38c-35 0 -54 -15 -62 -51l-103 18c12 81 77 134 165 134c89 0 155 -50 155 -119c0 -40 -17 -71 -49 -90v-1c39 -21 62 -55 62 -98
c0 -83 -61 -130 -165 -130c-99 0 -163 53 -176 144z" />
    <glyph glyph-name="four.dnom" horiz-adv-x="369" 
d="M203 0v78h-193v106l135 236h174v-235h46v-107h-46v-78h-116zM121 185h82v148h-1z" />
    <glyph glyph-name="five.dnom" horiz-adv-x="386" 
d="M19 88l100 57c16 -35 37 -48 76 -48c35 0 57 22 57 54c0 25 -22 43 -55 43c-23 0 -44 -9 -64 -27l-104 28l38 225h253v-105h-171l-11 -53l1 -1c23 12 49 18 79 18c85 0 149 -55 149 -128c0 -90 -69 -160 -172 -160c-83 0 -143 36 -176 97z" />
    <glyph glyph-name="six.dnom" horiz-adv-x="401" 
d="M382 144c0 -92 -76 -153 -169 -153c-124 0 -194 80 -194 211c0 137 78 227 190 227c84 0 144 -44 163 -112l-110 -25c-7 23 -24 36 -52 36c-39 0 -65 -39 -72 -80c23 20 58 32 95 32c41 0 76 -13 105 -38s44 -57 44 -98zM267 142c0 31 -23 49 -60 49
c-36 0 -58 -18 -58 -49s23 -50 59 -50s59 19 59 50z" />
    <glyph glyph-name="seven.dnom" horiz-adv-x="320" 
d="M27 0l159 312v1h-186v107h315v-107l-155 -313h-133z" />
    <glyph glyph-name="eight.dnom" horiz-adv-x="403" 
d="M19 122c0 49 32 93 79 108v1c-33 15 -55 46 -55 81c0 65 67 117 159 117c90 0 158 -52 158 -117c0 -35 -22 -66 -55 -81v-1c47 -15 79 -59 79 -108c0 -80 -70 -131 -182 -131s-183 51 -183 131zM249 304c0 21 -18 35 -47 35c-31 0 -48 -14 -48 -35c0 -23 17 -35 48 -35
c29 0 47 12 47 35zM270 140c0 29 -25 47 -68 47s-68 -18 -68 -47s25 -47 68 -47s68 18 68 47z" />
    <glyph glyph-name="nine.dnom" horiz-adv-x="392" 
d="M373 228c0 -153 -65 -237 -181 -237c-76 0 -134 37 -157 97l99 46c12 -28 30 -42 58 -42c32 0 56 29 60 70h-1c-20 -13 -45 -19 -74 -19c-99 0 -158 52 -158 137c0 88 71 149 171 149c113 0 183 -77 183 -201zM192 232c36 0 58 19 58 48s-23 47 -58 47
c-36 0 -58 -19 -58 -48c0 -28 22 -47 58 -47z" />
    <glyph glyph-name="zero.numr" horiz-adv-x="419" 
d="M19 490c0 135 72 219 191 219s190 -84 190 -219s-71 -219 -190 -219s-191 84 -191 219zM285 490c0 75 -25 112 -75 112c-51 0 -76 -37 -76 -112s25 -112 76 -112c50 0 75 37 75 112z" />
    <glyph glyph-name="one.numr" horiz-adv-x="276" 
d="M102 280v289l-94 -54v124l104 61h105v-420h-115z" />
    <glyph glyph-name="two.numr" horiz-adv-x="382" 
d="M156 390h203v-110h-329v78c0 39 9 67 30 92c20 27 56 48 107 65c65 21 80 32 80 55c0 20 -18 35 -49 35c-33 0 -58 -24 -61 -61l-118 7c4 88 81 158 179 158c99 0 165 -58 165 -141c0 -63 -41 -106 -130 -135c-37 -12 -59 -20 -67 -27c-5 -5 -9 -11 -10 -16z" />
    <glyph glyph-name="three.numr" horiz-adv-x="374" 
d="M14 415l105 26c8 -49 28 -69 69 -69c35 0 53 13 53 38c0 24 -23 40 -55 40h-32v81h35c32 0 47 12 47 39c0 24 -18 38 -49 38c-35 0 -54 -15 -62 -51l-103 18c12 81 77 134 165 134c89 0 155 -50 155 -119c0 -40 -17 -71 -49 -90v-1c39 -21 62 -55 62 -98
c0 -83 -61 -130 -165 -130c-99 0 -163 53 -176 144z" />
    <glyph glyph-name="four.numr" horiz-adv-x="369" 
d="M203 280v78h-193v106l135 236h174v-235h46v-107h-46v-78h-116zM121 465h82v148h-1z" />
    <glyph glyph-name="five.numr" horiz-adv-x="386" 
d="M19 368l100 57c16 -35 37 -48 76 -48c35 0 57 22 57 54c0 25 -22 43 -55 43c-23 0 -44 -9 -64 -27l-104 28l38 225h253v-105h-171l-11 -53l1 -1c23 12 49 18 79 18c85 0 149 -55 149 -128c0 -90 -69 -160 -172 -160c-83 0 -143 36 -176 97z" />
    <glyph glyph-name="six.numr" horiz-adv-x="401" 
d="M382 424c0 -92 -76 -153 -169 -153c-124 0 -194 80 -194 211c0 137 78 227 190 227c84 0 144 -44 163 -112l-110 -25c-7 23 -24 36 -52 36c-39 0 -65 -39 -72 -80c23 20 58 32 95 32c41 0 76 -13 105 -38s44 -57 44 -98zM267 422c0 31 -23 49 -60 49
c-36 0 -58 -18 -58 -49s23 -50 59 -50s59 19 59 50z" />
    <glyph glyph-name="seven.numr" horiz-adv-x="320" 
d="M27 280l159 312v1h-186v107h315v-107l-155 -313h-133z" />
    <glyph glyph-name="eight.numr" horiz-adv-x="403" 
d="M19 402c0 49 32 93 79 108v1c-33 15 -55 46 -55 81c0 65 67 117 159 117c90 0 158 -52 158 -117c0 -35 -22 -66 -55 -81v-1c47 -15 79 -59 79 -108c0 -80 -70 -131 -182 -131s-183 51 -183 131zM249 584c0 21 -18 35 -47 35c-31 0 -48 -14 -48 -35c0 -23 17 -35 48 -35
c29 0 47 12 47 35zM270 420c0 29 -25 47 -68 47s-68 -18 -68 -47s25 -47 68 -47s68 18 68 47z" />
    <glyph glyph-name="nine.numr" horiz-adv-x="392" 
d="M373 508c0 -153 -65 -237 -181 -237c-76 0 -134 37 -157 97l99 46c12 -28 30 -42 58 -42c32 0 56 29 60 70h-1c-20 -13 -45 -19 -74 -19c-99 0 -158 52 -158 137c0 88 71 149 171 149c113 0 183 -77 183 -201zM192 512c36 0 58 19 58 48s-23 47 -58 47
c-36 0 -58 -19 -58 -48c0 -28 22 -47 58 -47z" />
    <glyph glyph-name="zero.sups" horiz-adv-x="419" 
d="M19 590c0 135 72 219 191 219s190 -84 190 -219s-71 -219 -190 -219s-191 84 -191 219zM285 590c0 75 -25 112 -75 112c-51 0 -76 -37 -76 -112s25 -112 76 -112c50 0 75 37 75 112z" />
    <glyph glyph-name="one.sups" horiz-adv-x="276" 
d="M102 380v289l-94 -54v124l104 61h105v-420h-115z" />
    <glyph glyph-name="two.sups" horiz-adv-x="382" 
d="M156 490h203v-110h-329v78c0 39 9 67 30 92c20 27 56 48 107 65c65 21 80 32 80 55c0 20 -18 35 -49 35c-33 0 -58 -24 -61 -61l-118 7c4 88 81 158 179 158c99 0 165 -58 165 -141c0 -63 -41 -106 -130 -135c-37 -12 -59 -20 -67 -27c-5 -5 -9 -11 -10 -16z" />
    <glyph glyph-name="three.sups" horiz-adv-x="374" 
d="M14 515l105 26c8 -49 28 -69 69 -69c35 0 53 13 53 38c0 24 -23 40 -55 40h-32v81h35c32 0 47 12 47 39c0 24 -18 38 -49 38c-35 0 -54 -15 -62 -51l-103 18c12 81 77 134 165 134c89 0 155 -50 155 -119c0 -40 -17 -71 -49 -90v-1c39 -21 62 -55 62 -98
c0 -83 -61 -130 -165 -130c-99 0 -163 53 -176 144z" />
    <glyph glyph-name="four.sups" horiz-adv-x="369" 
d="M203 380v78h-193v106l135 236h174v-235h46v-107h-46v-78h-116zM121 565h82v148h-1z" />
    <glyph glyph-name="five.sups" horiz-adv-x="386" 
d="M19 468l100 57c16 -35 37 -48 76 -48c35 0 57 22 57 54c0 25 -22 43 -55 43c-23 0 -44 -9 -64 -27l-104 28l38 225h253v-105h-171l-11 -53l1 -1c23 12 49 18 79 18c85 0 149 -55 149 -128c0 -90 -69 -160 -172 -160c-83 0 -143 36 -176 97z" />
    <glyph glyph-name="six.sups" horiz-adv-x="401" 
d="M382 524c0 -92 -76 -153 -169 -153c-124 0 -194 80 -194 211c0 137 78 227 190 227c84 0 144 -44 163 -112l-110 -25c-7 23 -24 36 -52 36c-39 0 -65 -39 -72 -80c23 20 58 32 95 32c41 0 76 -13 105 -38s44 -57 44 -98zM267 522c0 31 -23 49 -60 49
c-36 0 -58 -18 -58 -49s23 -50 59 -50s59 19 59 50z" />
    <glyph glyph-name="seven.sups" horiz-adv-x="320" 
d="M27 380l159 312v1h-186v107h315v-107l-155 -313h-133z" />
    <glyph glyph-name="eight.sups" horiz-adv-x="403" 
d="M19 502c0 49 32 93 79 108v1c-33 15 -55 46 -55 81c0 65 67 117 159 117c90 0 158 -52 158 -117c0 -35 -22 -66 -55 -81v-1c47 -15 79 -59 79 -108c0 -80 -70 -131 -182 -131s-183 51 -183 131zM249 684c0 21 -18 35 -47 35c-31 0 -48 -14 -48 -35c0 -23 17 -35 48 -35
c29 0 47 12 47 35zM270 520c0 29 -25 47 -68 47s-68 -18 -68 -47s25 -47 68 -47s68 18 68 47z" />
    <glyph glyph-name="nine.sups" horiz-adv-x="392" 
d="M373 608c0 -153 -65 -237 -181 -237c-76 0 -134 37 -157 97l99 46c12 -28 30 -42 58 -42c32 0 56 29 60 70h-1c-20 -13 -45 -19 -74 -19c-99 0 -158 52 -158 137c0 88 71 149 171 149c113 0 183 -77 183 -201zM192 612c36 0 58 19 58 48s-23 47 -58 47
c-36 0 -58 -19 -58 -48c0 -28 22 -47 58 -47z" />
    <glyph glyph-name="fraction" unicode="&#x2044;" horiz-adv-x="223" 
d="M-86 -90l-106 61l500 818l106 -61z" />
    <glyph glyph-name="onehalf" unicode="&#xbd;" horiz-adv-x="881" 
d="M102 280v289l-94 -54v124l104 61h105v-420h-115zM190 -90l-106 61l500 818l106 -61zM655 110h203v-110h-329v78c0 39 9 67 30 92c20 27 56 48 107 65c65 21 80 32 80 55c0 20 -18 35 -49 35c-33 0 -58 -24 -61 -61l-118 7c4 88 81 158 179 158c99 0 165 -58 165 -141
c0 -63 -41 -106 -130 -135c-37 -12 -59 -20 -67 -27c-5 -5 -9 -11 -10 -16z" />
    <glyph glyph-name="onequarter" unicode="&#xbc;" horiz-adv-x="826" 
d="M102 280v289l-94 -54v124l104 61h105v-420h-115zM190 -90l-106 61l500 818l106 -61zM660 0v78h-193v106l135 236h174v-235h46v-107h-46v-78h-116zM578 185h82v148h-1z" />
    <glyph glyph-name="threequarters" unicode="&#xbe;" horiz-adv-x="924" 
d="M14 415l105 26c8 -49 28 -69 69 -69c35 0 53 13 53 38c0 24 -23 40 -55 40h-32v81h35c32 0 47 12 47 39c0 24 -18 38 -49 38c-35 0 -54 -15 -62 -51l-103 18c12 81 77 134 165 134c89 0 155 -50 155 -119c0 -40 -17 -71 -49 -90v-1c39 -21 62 -55 62 -98
c0 -83 -61 -130 -165 -130c-99 0 -163 53 -176 144zM288 -90l-106 61l500 818l106 -61zM758 0v78h-193v106l135 236h174v-235h46v-107h-46v-78h-116zM676 185h82v148h-1z" />
    <glyph glyph-name="oneeighth" unicode="&#x215b;" horiz-adv-x="902" 
d="M102 280v289l-94 -54v124l104 61h105v-420h-115zM190 -90l-106 61l500 818l106 -61zM518 122c0 49 32 93 79 108v1c-33 15 -55 46 -55 81c0 65 67 117 159 117c90 0 158 -52 158 -117c0 -35 -22 -66 -55 -81v-1c47 -15 79 -59 79 -108c0 -80 -70 -131 -182 -131
s-183 51 -183 131zM748 304c0 21 -18 35 -47 35c-31 0 -48 -14 -48 -35c0 -23 17 -35 48 -35c29 0 47 12 47 35zM769 140c0 29 -25 47 -68 47s-68 -18 -68 -47s25 -47 68 -47s68 18 68 47z" />
    <glyph glyph-name="threeeighths" unicode="&#x215c;" horiz-adv-x="1000" 
d="M14 415l105 26c8 -49 28 -69 69 -69c35 0 53 13 53 38c0 24 -23 40 -55 40h-32v81h35c32 0 47 12 47 39c0 24 -18 38 -49 38c-35 0 -54 -15 -62 -51l-103 18c12 81 77 134 165 134c89 0 155 -50 155 -119c0 -40 -17 -71 -49 -90v-1c39 -21 62 -55 62 -98
c0 -83 -61 -130 -165 -130c-99 0 -163 53 -176 144zM288 -90l-106 61l500 818l106 -61zM616 122c0 49 32 93 79 108v1c-33 15 -55 46 -55 81c0 65 67 117 159 117c90 0 158 -52 158 -117c0 -35 -22 -66 -55 -81v-1c47 -15 79 -59 79 -108c0 -80 -70 -131 -182 -131
s-183 51 -183 131zM846 304c0 21 -18 35 -47 35c-31 0 -48 -14 -48 -35c0 -23 17 -35 48 -35c29 0 47 12 47 35zM867 140c0 29 -25 47 -68 47s-68 -18 -68 -47s25 -47 68 -47s68 18 68 47z" />
    <glyph glyph-name="fiveeighths" unicode="&#x215d;" horiz-adv-x="1012" 
d="M19 368l100 57c16 -35 37 -48 76 -48c35 0 57 22 57 54c0 25 -22 43 -55 43c-23 0 -44 -9 -64 -27l-104 28l38 225h253v-105h-171l-11 -53l1 -1c23 12 49 18 79 18c85 0 149 -55 149 -128c0 -90 -69 -160 -172 -160c-83 0 -143 36 -176 97zM300 -90l-106 61l500 818
l106 -61zM628 122c0 49 32 93 79 108v1c-33 15 -55 46 -55 81c0 65 67 117 159 117c90 0 158 -52 158 -117c0 -35 -22 -66 -55 -81v-1c47 -15 79 -59 79 -108c0 -80 -70 -131 -182 -131s-183 51 -183 131zM858 304c0 21 -18 35 -47 35c-31 0 -48 -14 -48 -35
c0 -23 17 -35 48 -35c29 0 47 12 47 35zM879 140c0 29 -25 47 -68 47s-68 -18 -68 -47s25 -47 68 -47s68 18 68 47z" />
    <glyph glyph-name="seveneighths" unicode="&#x215e;" horiz-adv-x="904" 
d="M27 280l159 312v1h-186v107h315v-107l-155 -313h-133zM192 -90l-106 61l500 818l106 -61zM520 122c0 49 32 93 79 108v1c-33 15 -55 46 -55 81c0 65 67 117 159 117c90 0 158 -52 158 -117c0 -35 -22 -66 -55 -81v-1c47 -15 79 -59 79 -108c0 -80 -70 -131 -182 -131
s-183 51 -183 131zM750 304c0 21 -18 35 -47 35c-31 0 -48 -14 -48 -35c0 -23 17 -35 48 -35c29 0 47 12 47 35zM771 140c0 29 -25 47 -68 47s-68 -18 -68 -47s25 -47 68 -47s68 18 68 47z" />
    <glyph glyph-name="asterisk" unicode="*" horiz-adv-x="494" 
d="M147 300l-84 73l87 103l-112 64l56 97l98 -57v120h110v-120l97 57l56 -97l-110 -64l86 -103l-84 -73l-100 118z" />
    <glyph glyph-name="backslash" unicode="\" horiz-adv-x="467" 
d="M367 -69l-374 790l104 50l377 -792z" />
    <glyph glyph-name="periodcentered" unicode="&#xb7;" horiz-adv-x="278" 
d="M39 277v197h202v-197h-202z" />
    <glyph glyph-name="bullet" unicode="&#x2022;" horiz-adv-x="424" 
d="M68 358c0 85 57 146 144 146s144 -61 144 -146c0 -84 -57 -146 -144 -146c-85 0 -144 62 -144 146z" />
    <glyph glyph-name="colon" unicode=":" horiz-adv-x="338" 
d="M68 308v197h202v-197h-202zM68 0v197h202v-197h-202z" />
    <glyph glyph-name="comma" unicode="," horiz-adv-x="337" 
d="M74 -172v94c52 9 68 29 68 78h-74v186h201v-155c0 -121 -67 -194 -195 -203z" />
    <glyph glyph-name="ellipsis" unicode="&#x2026;" horiz-adv-x="916" 
d="M357 1v197h202v-197h-202zM68 0v197h202v-197h-202zM646 1v197h202v-197h-202z" />
    <glyph glyph-name="exclam" unicode="!" horiz-adv-x="418" 
d="M113 281v419h192v-419h-192zM108 0v197h202v-197h-202z" />
    <glyph glyph-name="exclamdown" unicode="&#xa1;" horiz-adv-x="338" 
d="M68 530h202v-197h-202v197zM73 249h192v-419h-192v419z" />
    <glyph glyph-name="numbersign" unicode="#" horiz-adv-x="873" 
d="M807 412h-133l-21 -118h135l-27 -153h-135l-25 -141h-174l25 141h-107l-25 -141h-175l25 141h-132l27 153h132l21 118h-131l25 154h133l24 134h175l-24 -134h107l24 134h174l-24 -134h133zM479 294l21 118h-107l-21 -118h107z" />
    <glyph glyph-name="period" unicode="." horiz-adv-x="338" 
d="M68 0v197h202v-197h-202z" />
    <glyph glyph-name="question" unicode="?" horiz-adv-x="652" 
d="M223 249v52c0 51 24 84 89 121c72 43 87 56 87 79c0 32 -29 53 -70 53c-53 0 -87 -36 -90 -100l-191 9c2 154 117 259 286 259c147 0 259 -88 259 -202c0 -73 -46 -121 -135 -173c-49 -28 -61 -48 -61 -84v-14h-174zM212 0v197h202v-197h-202z" />
    <glyph glyph-name="questiondown" unicode="&#xbf;" horiz-adv-x="652" 
d="M440 530v-197h-202v197h202zM429 281v-52c0 -51 -24 -84 -89 -121c-72 -43 -87 -56 -87 -79c0 -32 29 -53 70 -53c53 0 87 36 90 100l191 -9c-2 -154 -117 -259 -286 -259c-147 0 -259 88 -259 202c0 73 46 121 135 173c49 28 61 48 61 84v14h174z" />
    <glyph glyph-name="quotedbl" unicode="&#x22;" horiz-adv-x="501" 
d="M68 434v266h153v-266h-153zM280 434v266h153v-266h-153z" />
    <glyph glyph-name="quotesingle" unicode="'" horiz-adv-x="289" 
d="M68 434v266h153v-266h-153z" />
    <glyph glyph-name="semicolon" unicode=";" horiz-adv-x="337" 
d="M74 -172v94c52 9 68 29 68 78h-74v186h201v-155c0 -121 -67 -194 -195 -203zM67 308v197h202v-197h-202z" />
    <glyph glyph-name="slash" unicode="/" horiz-adv-x="467" 
d="M100 -69l-107 48l377 792l104 -50z" />
    <glyph glyph-name="underscore" unicode="_" horiz-adv-x="598" 
d="M28 -193v135h542v-135h-542z" />
    <glyph glyph-name="braceleft" unicode="{" horiz-adv-x="388" 
d="M121 -21v148c0 45 -12 59 -55 59h-28v196h28c43 0 55 14 55 59v128c0 119 45 161 178 161h91v-143h-73c-40 0 -52 -14 -52 -62v-139c0 -27 -9 -50 -28 -71c-18 -20 -41 -30 -68 -30v-2c27 0 50 -10 68 -31c19 -20 28 -43 28 -70v-158c0 -48 12 -62 52 -62h73v-144h-91
c-133 0 -178 42 -178 161z" />
    <glyph glyph-name="braceright" unicode="}" horiz-adv-x="388" 
d="M89 -182h-91v144h73c40 0 52 14 52 62v158c0 27 9 50 27 70c19 21 42 31 69 31v2c-27 0 -50 10 -69 30c-18 21 -27 44 -27 71v139c0 48 -12 62 -52 62h-73v143h91c133 0 178 -42 178 -161v-128c0 -45 12 -59 55 -59h28v-196h-28c-43 0 -55 -14 -55 -59v-148
c0 -119 -45 -161 -178 -161z" />
    <glyph glyph-name="bracketleft" unicode="[" horiz-adv-x="325" 
d="M58 -182v912h268v-138h-124v-635h124v-139h-268z" />
    <glyph glyph-name="bracketright" unicode="]" horiz-adv-x="325" 
d="M267 -182h-268v139h124v635h-124v138h268v-912z" />
    <glyph glyph-name="parenleft" unicode="(" horiz-adv-x="377" 
d="M68 295c0 169 73 341 206 492l105 -77c-55 -72 -94 -140 -118 -205c-23 -64 -35 -134 -35 -210s12 -146 35 -211c24 -64 63 -132 118 -204l-105 -77c-133 151 -206 323 -206 492z" />
    <glyph glyph-name="parenright" unicode=")" horiz-adv-x="377" 
d="M103 -197l-105 77c55 72 94 140 117 204c24 65 36 135 36 211s-12 146 -36 210c-23 65 -62 133 -117 205l105 77c133 -151 206 -323 206 -492s-73 -341 -206 -492z" />
    <glyph glyph-name="braceleft.case" horiz-adv-x="388" 
d="M121 29v148c0 45 -12 59 -55 59h-28v196h28c43 0 55 14 55 59v128c0 119 45 161 178 161h91v-143h-73c-40 0 -52 -14 -52 -62v-139c0 -27 -9 -50 -28 -71c-18 -20 -41 -30 -68 -30v-2c27 0 50 -10 68 -31c19 -20 28 -43 28 -70v-158c0 -48 12 -62 52 -62h73v-144h-91
c-133 0 -178 42 -178 161z" />
    <glyph glyph-name="braceright.case" horiz-adv-x="388" 
d="M89 -132h-91v144h73c40 0 52 14 52 62v158c0 27 9 50 27 70c19 21 42 31 69 31v2c-27 0 -50 10 -69 30c-18 21 -27 44 -27 71v139c0 48 -12 62 -52 62h-73v143h91c133 0 178 -42 178 -161v-128c0 -45 12 -59 55 -59h28v-196h-28c-43 0 -55 -14 -55 -59v-148
c0 -119 -45 -161 -178 -161z" />
    <glyph glyph-name="bracketleft.case" horiz-adv-x="325" 
d="M58 -132v912h268v-138h-124v-635h124v-139h-268z" />
    <glyph glyph-name="bracketright.case" horiz-adv-x="325" 
d="M267 -132h-268v139h124v635h-124v138h268v-912z" />
    <glyph glyph-name="parenleft.case" horiz-adv-x="377" 
d="M68 345c0 169 73 341 206 492l105 -77c-55 -72 -94 -140 -118 -205c-23 -64 -35 -134 -35 -210s12 -146 35 -211c24 -64 63 -132 118 -204l-105 -77c-133 151 -206 323 -206 492z" />
    <glyph glyph-name="parenright.case" horiz-adv-x="377" 
d="M103 -147l-105 77c55 72 94 140 117 204c24 65 36 135 36 211s-12 146 -36 210c-23 65 -62 133 -117 205l105 77c133 -151 206 -323 206 -492s-73 -341 -206 -492z" />
    <glyph glyph-name="emdash" unicode="&#x2014;" horiz-adv-x="851" 
d="M28 215v153h794v-153h-794z" />
    <glyph glyph-name="endash" unicode="&#x2013;" horiz-adv-x="566" 
d="M28 215v153h510v-153h-510z" />
    <glyph glyph-name="hyphen" unicode="-" horiz-adv-x="343" 
d="M28 215v153h287v-153h-287z" />
    <glyph glyph-name="uni00AD" unicode="&#xad;" horiz-adv-x="343" 
d="M28 215v153h287v-153h-287z" />
    <glyph glyph-name="emdash.ccmp" horiz-adv-x="851" 
d="M28 280v153h794v-153h-794z" />
    <glyph glyph-name="endash.ccmp" horiz-adv-x="566" 
d="M28 280v153h510v-153h-510z" />
    <glyph glyph-name="hyphen.ccmp" horiz-adv-x="343" 
d="M28 280v153h287v-153h-287z" />
    <glyph glyph-name="uni00AD.ccmp" horiz-adv-x="343" 
d="M28 280v153h287v-153h-287z" />
    <glyph glyph-name="guillemotleft" unicode="&#xab;" horiz-adv-x="591" 
d="M389 77l-111 196l111 195h164l-119 -195l119 -196h-164zM159 77l-111 196l111 195h164l-119 -195l119 -196h-164z" />
    <glyph glyph-name="guillemotright" unicode="&#xbb;" horiz-adv-x="591" 
d="M202 77h-164l119 196l-119 195h164l111 -195zM432 77h-164l119 196l-119 195h164l111 -195z" />
    <glyph glyph-name="guilsinglleft" unicode="&#x2039;" horiz-adv-x="361" 
d="M159 77l-111 196l111 195h164l-119 -195l119 -196h-164z" />
    <glyph glyph-name="guilsinglright" unicode="&#x203a;" horiz-adv-x="361" 
d="M202 77h-164l119 196l-119 195h164l111 -195z" />
    <glyph glyph-name="quotedblbase" unicode="&#x201e;" horiz-adv-x="605" 
d="M74 -172v94c52 9 68 29 68 78h-74v186h201v-155c0 -121 -67 -194 -195 -203zM342 -172v94c52 9 68 29 68 78h-74v186h201v-155c0 -121 -67 -194 -195 -203z" />
    <glyph glyph-name="quotedblleft" unicode="&#x201c;" horiz-adv-x="605" 
d="M263 700v-94c-52 -9 -68 -29 -68 -78h74v-186h-201v155c0 121 67 194 195 203zM531 700v-94c-52 -9 -68 -29 -68 -78h74v-186h-201v155c0 121 67 194 195 203z" />
    <glyph glyph-name="quotedblright" unicode="&#x201d;" horiz-adv-x="605" 
d="M74 342v94c52 9 68 29 68 78h-74v186h201v-155c0 -121 -67 -194 -195 -203zM342 342v94c52 9 68 29 68 78h-74v186h201v-155c0 -121 -67 -194 -195 -203z" />
    <glyph glyph-name="quoteleft" unicode="&#x2018;" horiz-adv-x="297" 
d="M243 700v-94c-52 -9 -68 -29 -68 -78h74v-186h-201v155c0 121 67 194 195 203z" />
    <glyph glyph-name="quoteright" unicode="&#x2019;" horiz-adv-x="297" 
d="M54 342v94c52 9 68 29 68 78h-74v186h201v-155c0 -121 -67 -194 -195 -203z" />
    <glyph glyph-name="quotesinglbase" unicode="&#x201a;" horiz-adv-x="337" 
d="M74 -172v94c52 9 68 29 68 78h-74v186h201v-155c0 -121 -67 -194 -195 -203z" />
    <glyph glyph-name="guillemotleft.case" horiz-adv-x="591" 
d="M389 127l-111 196l111 195h164l-119 -195l119 -196h-164zM159 127l-111 196l111 195h164l-119 -195l119 -196h-164z" />
    <glyph glyph-name="guillemotright.case" horiz-adv-x="591" 
d="M202 127h-164l119 196l-119 195h164l111 -195zM432 127h-164l119 196l-119 195h164l111 -195z" />
    <glyph glyph-name="guilsinglleft.case" horiz-adv-x="361" 
d="M159 127l-111 196l111 195h164l-119 -195l119 -196h-164z" />
    <glyph glyph-name="guilsinglright.case" horiz-adv-x="361" 
d="M202 127h-164l119 196l-119 195h164l111 -195z" />
    <glyph glyph-name="uni2003" unicode="&#x2003;" horiz-adv-x="1018" 
 />
    <glyph glyph-name="uni2002" unicode="&#x2002;" horiz-adv-x="763" 
 />
    <glyph glyph-name="uni2007" unicode="&#x2007;" 
 />
    <glyph glyph-name="uni2005" unicode="&#x2005;" horiz-adv-x="254" 
 />
    <glyph glyph-name="uni200A" unicode="&#x200a;" horiz-adv-x="76" 
 />
    <glyph glyph-name="uni2008" unicode="&#x2008;" horiz-adv-x="338" 
 />
    <glyph glyph-name="uni00A0" unicode="&#xa0;" horiz-adv-x="255" 
 />
    <glyph glyph-name="uni2009" unicode="&#x2009;" horiz-adv-x="153" 
 />
    <glyph glyph-name="uni2004" unicode="&#x2004;" horiz-adv-x="356" 
 />
    <glyph glyph-name="uni200B" unicode="&#x200b;" horiz-adv-x="0" 
 />
    <glyph glyph-name="uniFEFF" unicode="&#xfeff;" horiz-adv-x="0" 
 />
    <glyph glyph-name="uni0E3F" unicode="&#xe3f;" horiz-adv-x="671" 
d="M380 0v-118h-83v118h-229v700h229v107h83v-107h10c131 0 222 -79 222 -190c0 -55 -26 -102 -70 -130v-2c59 -32 95 -91 95 -162c0 -140 -84 -209 -257 -216zM237 541v-108h60v108h-60zM380 541v-108c39 1 59 20 59 55c0 34 -20 52 -59 53zM237 159h60v130h-60v-130z
M465 224c0 43 -24 65 -73 65h-12v-130h12c51 0 73 20 73 65z" />
    <glyph glyph-name="cent" unicode="&#xa2;" horiz-adv-x="614" 
d="M422 220l169 -31c-20 -113 -105 -191 -226 -206v-101h-82v100c-150 14 -255 129 -255 283s105 269 255 283v89h82v-90c121 -15 206 -93 226 -206l-169 -31c-9 35 -28 58 -57 69v-229c30 12 49 35 57 70zM283 148v234c-47 -15 -73 -56 -73 -117s26 -102 73 -117z" />
    <glyph glyph-name="currency" unicode="&#xa4;" horiz-adv-x="557" 
d="M471 184l67 -67l-48 -49l-68 65c-40 -31 -87 -47 -142 -47c-57 0 -105 17 -146 50l-67 -68l-49 50l69 69c-27 42 -41 90 -41 143s13 101 40 142l-68 68l49 48l63 -66c41 35 91 53 150 53c55 0 104 -17 147 -51l64 64l48 -48l-66 -67c27 -42 41 -90 41 -143
c0 -54 -14 -103 -43 -146zM358 329c0 68 -26 102 -77 102c-53 0 -79 -34 -79 -102c0 -64 27 -99 79 -99c49 0 77 35 77 99z" />
    <glyph glyph-name="dollar" unicode="$" 
d="M369 -19v-99h-83v101c-151 19 -249 109 -268 258l177 27c13 -68 42 -106 91 -121v149c-51 17 -93 33 -126 49c-67 32 -120 86 -120 166c0 113 101 198 246 208v88h83v-90c135 -17 229 -101 249 -218l-176 -31c-14 43 -38 71 -73 84v-118c51 -17 94 -34 131 -53
c73 -36 132 -98 132 -189c0 -120 -104 -205 -263 -211zM286 462v97c-39 -5 -62 -23 -62 -48c0 -19 22 -34 62 -49zM448 193c0 32 -27 53 -79 74v-127c51 5 79 25 79 53z" />
    <glyph glyph-name="Euro" unicode="&#x20ac;" horiz-adv-x="801" 
d="M607 277l182 -32c-22 -158 -150 -265 -321 -265c-167 0 -288 92 -332 241h-111v111h94v17v22h-94v111h113c44 148 166 238 330 238c167 0 299 -108 317 -256l-181 -33c-16 76 -64 118 -136 118c-57 0 -100 -22 -129 -67h140v-111h-171c-1 -5 -1 -12 -1 -22v-17h124v-111
h-94c29 -47 73 -70 131 -70c75 0 123 43 139 126z" />
    <glyph glyph-name="florin" unicode="&#x192;" horiz-adv-x="476" 
d="M332 555l-3 -25h125v-148h-151l-78 -442c-20 -109 -86 -162 -198 -162h-88v147h51c32 0 48 13 53 44l3 20h1l69 393h-118v148h144l8 54c19 109 84 163 197 163h110v-147h-73c-31 0 -48 -15 -52 -45z" />
    <glyph glyph-name="lira" unicode="&#x20a4;" horiz-adv-x="665" 
d="M465 370h192c3 -217 -140 -373 -333 -370h-192v290l-79 -29l-35 102l114 42v45l-79 -29l-35 102l114 42v135h192v-65l116 42l35 -101l-151 -55v-46l116 42l35 -102l-151 -55v-184c87 0 141 73 141 194z" />
    <glyph glyph-name="uni20BD" unicode="&#x20bd;" horiz-adv-x="703" 
d="M310 203v-38h141v-101h-141v-64h-192v64h-100v101h100v38h-100v102h100v395h302c159 0 254 -90 254 -250s-94 -247 -254 -247h-110zM310 529v-156h90c49 0 82 27 82 80c0 51 -26 76 -79 76h-93z" />
    <glyph glyph-name="uni20A8" unicode="&#x20a8;" horiz-adv-x="550" 
d="M532 598h-137v-2c22 -25 37 -54 45 -89h92v-100h-91c-11 -75 -48 -130 -113 -164v-2l133 -241h-204l-106 213h-113v159h133c41 0 69 12 82 35h-215v100h216c-12 24 -39 34 -83 34h-133v159h494v-102z" />
    <glyph glyph-name="sterling" unicode="&#xa3;" horiz-adv-x="639" 
d="M323 177v-2h289v-175h-564v175h24c64 0 104 32 104 83c0 5 0 9 -1 10h-127v132h57c-27 45 -40 75 -40 111c0 129 107 210 273 210c151 0 260 -78 288 -207l-186 -46c-15 51 -49 76 -103 76c-43 0 -75 -26 -75 -62c0 -21 10 -46 33 -82h192v-132h-133l1 -20
c0 -28 -11 -52 -32 -71z" />
    <glyph glyph-name="uni20A9" unicode="&#x20a9;" horiz-adv-x="1008" 
d="M1004 476h-86l-9 -43h95v-99h-116l-72 -334h-183l-104 334h-48l-106 -334h-181l-72 334h-118v99h97l-10 43h-87v99h66l-27 125h184l25 -125h148l37 125h134l37 -125h149l26 125h183l-27 -125h65v-99zM272 476l9 -43h77l12 43h-98zM728 433l9 43h-99l12 -43h78zM313 283
l15 51h-27l10 -51h2zM697 283l11 51h-28l15 -51h2z" />
    <glyph glyph-name="yen" unicode="&#xa5;" horiz-adv-x="676" 
d="M682 700l-211 -353h147v-111h-184v-39h184v-111h-184v-86h-192v86h-185v111h185v39h-185v111h148l-211 353h216l127 -236h3l126 236h216z" />
    <glyph glyph-name="uni0E3F.tnum" 
d="M366 1v-119h-83v118h-215v700h215v107h83v-107c128 0 221 -79 221 -190c0 -56 -27 -103 -71 -130v-2c60 -31 96 -91 96 -162c0 -136 -81 -207 -246 -215zM237 541v-108h46v108h-46zM366 540v-106c32 4 48 22 48 54c0 31 -16 48 -48 52zM237 159h46v130h-46v-130zM440 224
c0 43 -24 65 -73 65h-1v-130h1c51 0 73 20 73 65z" />
    <glyph glyph-name="cent.tnum" 
d="M437 220l169 -31c-20 -113 -105 -191 -226 -206v-101h-82v100c-150 14 -255 129 -255 283s105 269 255 283v89h82v-90c121 -15 206 -93 226 -206l-169 -31c-9 35 -28 58 -57 69v-229c30 12 49 35 57 70zM298 148v234c-47 -15 -73 -56 -73 -117s26 -102 73 -117z" />
    <glyph glyph-name="currency.tnum" 
d="M517 184l67 -67l-48 -49l-67 66c-41 -32 -89 -48 -143 -48c-57 0 -105 17 -146 50l-67 -68l-48 50l69 69c-28 41 -42 88 -42 143c0 53 13 100 40 143l-67 67l48 48l64 -65c42 35 92 52 149 52c55 0 104 -17 147 -51l64 64l49 -48l-67 -68c27 -41 41 -88 41 -142
s-14 -103 -43 -146zM404 329c0 68 -26 102 -77 102c-53 0 -79 -34 -79 -102c0 -64 27 -99 79 -99c51 0 77 35 77 99z" />
    <glyph glyph-name="dollar.tnum" 
d="M369 -19v-99h-83v101c-151 19 -249 109 -268 258l177 27c13 -68 42 -106 91 -121v149c-51 17 -93 33 -126 49c-67 32 -120 86 -120 166c0 113 101 198 246 208v88h83v-90c135 -17 229 -101 249 -218l-176 -31c-14 43 -38 71 -73 84v-118c51 -17 94 -34 131 -53
c73 -36 132 -98 132 -189c0 -120 -104 -205 -263 -211zM286 462v97c-39 -5 -62 -23 -62 -48c0 -19 22 -34 62 -49zM448 193c0 32 -27 53 -79 74v-127c51 5 79 25 79 53z" />
    <glyph glyph-name="Euro.tnum" 
d="M449 278l183 -33c-21 -168 -121 -266 -272 -266c-141 0 -243 90 -278 242h-78v111h64v17v22h-64v111h79c39 149 140 239 277 239c146 0 255 -101 271 -257l-184 -34c-9 73 -40 114 -87 114c-35 0 -63 -21 -82 -62h111v-111h-134v-22v-17h108v-111h-87
c19 -43 47 -65 84 -65c49 0 79 41 89 122z" />
    <glyph glyph-name="florin.tnum" 
d="M459 555l-3 -25h125v-148h-151l-78 -442c-20 -109 -86 -162 -198 -162h-88v147h52c31 0 47 13 52 44l3 20h1l69 393h-118v148h144l8 54c19 109 84 163 197 163h110v-147h-73c-31 0 -48 -15 -52 -45z" />
    <glyph glyph-name="lira.tnum" 
d="M452 370h192c0 -219 -137 -370 -332 -370h-192v290l-80 -29l-34 102l114 42v45l-80 -29l-34 102l114 42v135h192v-65l116 42l34 -101l-150 -55v-46l116 42l34 -102l-150 -55v-184c85 0 140 73 140 194z" />
    <glyph glyph-name="uni20BD.tnum" 
d="M316 203v-38h81v-101h-81v-64h-192v64h-106v101h106v38h-106v102h106v395h243c159 0 255 -91 255 -250c0 -160 -95 -247 -255 -247h-51zM316 529v-156h37c49 0 83 27 83 80c0 51 -26 76 -79 76h-41z" />
    <glyph glyph-name="uni20A8.tnum" 
d="M572 598h-137v-2c22 -25 37 -54 45 -89h92v-100h-91c-11 -75 -48 -130 -113 -164v-2l133 -241h-204l-106 213h-113v159h134c41 0 68 12 81 35h-215v100h217c-12 23 -40 34 -83 34h-134v159h494v-102z" />
    <glyph glyph-name="sterling.tnum" 
d="M310 177v-2h289v-175h-563v175h23c64 0 104 32 104 83c0 1 1 5 0 10h-127v132h56c-27 44 -39 75 -39 111c0 129 107 210 272 210c152 0 261 -78 288 -207l-185 -46c-16 51 -50 76 -103 76c-44 0 -75 -26 -75 -62c0 -19 11 -47 32 -82h192v-132h-133c1 -3 1 -7 1 -12
c0 -34 -11 -60 -32 -79z" />
    <glyph glyph-name="uni20A9.tnum" 
d="M656 478h-49l-5 -44h54v-98h-66l-42 -336h-157l-65 304h-2l-65 -304h-157l-42 336h-66v98h54l-5 44h-49v99h36l-15 123h163l12 -123h270l12 123h163l-15 -123h36v-99zM199 478l4 -44h51l9 44h-64zM446 434l4 44h-64l9 -44h51zM219 267h2l14 69h-23zM430 267l7 69h-23
l14 -69h2z" />
    <glyph glyph-name="yen.tnum" 
d="M636 700l-177 -353h147v-111h-184v-39h184v-111h-184v-86h-193v86h-185v111h185v39h-185v111h148l-178 353h216l94 -250h2l94 250h216z" />
    <glyph glyph-name="uni207B" unicode="&#x207b;" horiz-adv-x="367" 
d="M38 157v103h290v-103h-290z" />
    <glyph glyph-name="plus" unicode="+" horiz-adv-x="616" 
d="M578 429v-144h-192v-208h-155v208h-193v144h193v208h155v-208h192z" />
    <glyph glyph-name="minus" unicode="&#x2212;" horiz-adv-x="566" 
d="M38 285v144h490v-144h-490z" />
    <glyph glyph-name="multiply" unicode="&#xd7;" horiz-adv-x="597" 
d="M143 89l-105 103l157 156l-157 156l105 103l155 -157l155 157l105 -103l-157 -156l157 -156l-105 -103l-155 158z" />
    <glyph glyph-name="divide" unicode="&#xf7;" horiz-adv-x="566" 
d="M172 587c0 64 47 111 111 111s111 -47 111 -111s-47 -110 -111 -110s-111 46 -111 110zM38 285v144h490v-144h-490zM172 123c0 65 47 111 111 111s111 -46 111 -111c0 -63 -47 -110 -111 -110s-111 47 -111 110z" />
    <glyph glyph-name="equal" unicode="=" horiz-adv-x="559" 
d="M38 378v145h483v-145h-483zM38 161v145h483v-145h-483z" />
    <glyph glyph-name="notequal" unicode="&#x2260;" horiz-adv-x="559" 
d="M521 378h-169l-42 -72h211v-145h-295l-69 -120l-78 45l44 75h-85v145h169l42 72h-211v145h295l70 121l77 -45l-44 -76h85v-145z" />
    <glyph glyph-name="greater" unicode="&#x3e;" horiz-adv-x="552" 
d="M125 61l-87 140l264 149l-264 148l87 141l389 -233v-115z" />
    <glyph glyph-name="less" unicode="&#x3c;" horiz-adv-x="552" 
d="M427 61l-389 230v115l389 233l87 -141l-264 -148l264 -149z" />
    <glyph glyph-name="greaterequal" unicode="&#x2265;" horiz-adv-x="559" 
d="M132 170l-73 133l265 126l-265 125l73 134l389 -207v-106zM38 0v144h483v-144h-483z" />
    <glyph glyph-name="lessequal" unicode="&#x2264;" horiz-adv-x="559" 
d="M427 170l-389 205v106l389 207l73 -134l-265 -125l265 -126zM521 0h-483v144h483v-144z" />
    <glyph glyph-name="plusminus" unicode="&#xb1;" horiz-adv-x="617" 
d="M231 232v154h-193v145h193v154h155v-154h192v-145h-192v-154h-155zM39 174h540v-145h-540v145z" />
    <glyph glyph-name="approxequal" unicode="&#x2248;" horiz-adv-x="693" 
d="M184 371l-146 61c33 116 100 174 199 174c43 0 76 -16 129 -45c37 -20 57 -30 76 -30c27 0 50 25 68 75l144 -63c-33 -115 -99 -172 -199 -172c-43 0 -73 15 -129 44c-37 20 -57 30 -76 30c-27 0 -49 -25 -66 -74zM184 103l-146 61c33 116 100 174 199 174
c43 0 76 -16 129 -45c37 -20 57 -30 76 -30c27 0 50 25 68 75l144 -63c-33 -115 -99 -172 -199 -172c-43 0 -73 15 -129 44c-37 20 -57 30 -76 30c-27 0 -49 -25 -66 -74z" />
    <glyph glyph-name="asciitilde" unicode="~" horiz-adv-x="723" 
d="M191 220l-153 65c34 121 104 182 209 182c44 0 81 -16 136 -47c41 -21 59 -31 79 -31c29 0 52 26 71 78l152 -66c-35 -121 -105 -181 -209 -181c-44 0 -81 16 -136 47l-24 12c-24 13 -41 19 -56 19c-28 0 -51 -26 -69 -78z" />
    <glyph glyph-name="logicalnot" unicode="&#xac;" horiz-adv-x="685" 
d="M454 116v175h-416v177h608v-352h-192z" />
    <glyph glyph-name="infinity" unicode="&#x221e;" horiz-adv-x="690" 
d="M38 303c0 120 76 209 178 209c47 0 101 -28 129 -67c28 39 82 67 129 67c102 0 178 -89 178 -209s-76 -209 -178 -209c-47 0 -101 28 -129 67c-28 -39 -82 -67 -129 -67c-102 0 -178 89 -178 209zM296 303c-14 46 -36 69 -67 69c-32 0 -52 -26 -52 -69s20 -69 52 -69
c31 0 53 23 67 69zM513 303c0 43 -20 69 -53 69c-30 0 -52 -23 -66 -69c14 -46 36 -69 66 -69c33 0 53 26 53 69z" />
    <glyph glyph-name="emptyset" unicode="&#x2205;" horiz-adv-x="844" 
d="M816 350c4 -213 -171 -374 -394 -371c-79 0 -149 17 -210 52l-88 -99l-89 72l87 98c-60 64 -94 151 -94 248c-4 213 171 374 394 371c75 0 144 -16 206 -49l88 99l94 -73l-88 -99c60 -65 94 -152 94 -249zM247 243l256 288c-23 9 -50 13 -81 13c-61 0 -111 -18 -148 -53
s-55 -82 -55 -141c0 -41 9 -77 28 -107zM626 350c0 41 -10 78 -30 109l-259 -289c26 -9 54 -14 85 -14c61 0 111 18 148 53s56 82 56 141z" />
    <glyph glyph-name="integral" unicode="&#x222b;" horiz-adv-x="473" 
d="M38 -240v175c77 1 102 28 102 109v419c3 222 63 278 294 282v-175c-77 -3 -102 -28 -102 -109v-419c-4 -222 -63 -278 -294 -282z" />
    <glyph glyph-name="product" unicode="&#x220f;" horiz-adv-x="820" 
d="M142 -141v665h-129v176h794v-176h-129v-665h-192v665h-152v-665h-192z" />
    <glyph glyph-name="summation" unicode="&#x2211;" horiz-adv-x="613" 
d="M43 -100v154l226 246l-226 246v154h547v-176h-277l204 -224l-204 -224h277v-176h-547z" />
    <glyph glyph-name="radical" unicode="&#x221a;" horiz-adv-x="751" 
d="M537 700h215l-285 -700h-190l-114 275h-165v176h301l70 -202h2z" />
    <glyph glyph-name="partialdiff" unicode="&#x2202;" horiz-adv-x="573" 
d="M561 406c0 -284 -95 -426 -284 -426c-163 0 -259 92 -259 249c0 172 93 278 248 278c36 0 69 -4 98 -11c-12 84 -43 116 -95 116c-21 0 -44 -15 -69 -46l-124 119c64 72 127 103 206 103c168 0 279 -139 279 -382zM367 338c-19 6 -43 9 -73 9c-51 0 -84 -42 -84 -107
c0 -55 22 -83 65 -83c55 0 85 57 92 181z" />
    <glyph glyph-name="percent" unicode="%" horiz-adv-x="1089" 
d="M354 -101l-129 75l504 820l130 -74zM38 490c0 133 75 219 192 219s191 -84 191 -219s-74 -219 -191 -219s-192 86 -192 219zM284 490c0 61 -18 91 -54 91s-54 -30 -54 -91c0 -60 18 -90 54 -90s54 30 54 90zM669 210c0 135 74 219 191 219s191 -84 191 -219
s-74 -219 -191 -219s-191 84 -191 219zM914 210c0 60 -19 91 -54 91s-54 -31 -54 -91c0 -59 19 -90 54 -90s54 31 54 90z" />
    <glyph glyph-name="perthousand" unicode="&#x2030;" horiz-adv-x="1499" 
d="M354 -101l-129 75l504 820l130 -74zM38 490c0 133 75 219 192 219s191 -84 191 -219s-74 -219 -191 -219s-192 86 -192 219zM284 490c0 61 -18 91 -54 91s-54 -30 -54 -91c0 -60 18 -90 54 -90s54 30 54 90zM669 210c0 135 74 219 191 219s191 -84 191 -219
s-74 -219 -191 -219s-191 84 -191 219zM1079 210c0 135 74 219 191 219s191 -84 191 -219s-74 -219 -191 -219s-191 84 -191 219zM914 210c0 60 -19 91 -54 91s-54 -31 -54 -91c0 -59 19 -90 54 -90s54 31 54 90zM1324 210c0 60 -19 91 -54 91s-54 -31 -54 -91
c0 -59 19 -90 54 -90s54 31 54 90z" />
    <glyph glyph-name="uni207A" unicode="&#x207a;" horiz-adv-x="418" 
d="M380 260v-103h-116v-128h-108v128h-118v103h118v124h108v-124h116z" />
    <glyph glyph-name="plus.tnum" 
d="M594 429v-144h-192v-208h-155v208h-193v144h193v208h155v-208h192z" />
    <glyph glyph-name="minus.tnum" 
d="M79 285v144h490v-144h-490z" />
    <glyph glyph-name="multiply.tnum" 
d="M170 89l-105 103l157 156l-157 156l105 103l155 -157l155 157l105 -103l-157 -156l157 -156l-105 -103l-155 158z" />
    <glyph glyph-name="divide.tnum" 
d="M213 587c0 64 47 111 111 111s111 -47 111 -111s-47 -110 -111 -110s-111 46 -111 110zM79 285v144h490v-144h-490zM213 123c0 65 47 111 111 111s111 -46 111 -111c0 -63 -47 -110 -111 -110s-111 47 -111 110z" />
    <glyph glyph-name="equal.tnum" 
d="M84 378v145h483v-145h-483zM84 161v145h483v-145h-483z" />
    <glyph glyph-name="notequal.tnum" 
d="M567 378h-169l-42 -72h211v-145h-295l-69 -120l-78 45l44 75h-85v145h169l42 72h-211v145h295l70 121l77 -45l-44 -76h85v-145z" />
    <glyph glyph-name="greater.tnum" 
d="M174 61l-87 140l264 149l-264 148l87 141l389 -233v-115z" />
    <glyph glyph-name="less.tnum" 
d="M476 61l-389 230v115l389 233l87 -141l-264 -148l264 -149z" />
    <glyph glyph-name="greaterequal.tnum" 
d="M177 170l-73 133l265 126l-265 125l73 134l389 -207v-106zM83 0v144h483v-144h-483z" />
    <glyph glyph-name="lessequal.tnum" 
d="M472 170l-389 205v106l389 207l73 -134l-265 -125l265 -126zM566 0h-483v144h483v-144z" />
    <glyph glyph-name="plusminus.tnum" 
d="M247 232v154h-193v145h193v154h155v-154h192v-145h-192v-154h-155zM55 174h540v-145h-540v145z" />
    <glyph glyph-name="approxequal.tnum" 
d="M163 371l-146 61c33 116 100 174 199 174c43 0 76 -16 129 -45c37 -20 57 -30 76 -30c27 0 50 25 68 75l144 -63c-33 -115 -99 -172 -199 -172c-43 0 -73 15 -129 44c-37 20 -57 30 -76 30c-27 0 -49 -25 -66 -74zM163 103l-146 61c33 116 100 174 199 174
c43 0 76 -16 129 -45c37 -20 57 -30 76 -30c27 0 50 25 68 75l144 -63c-33 -115 -99 -172 -199 -172c-43 0 -73 15 -129 44c-37 20 -57 30 -76 30c-27 0 -49 -25 -66 -74z" />
    <glyph glyph-name="percent.tnum" 
d="M-2 660c0 135 76 219 200 219c125 0 199 -84 199 -219s-74 -219 -199 -219c-124 0 -200 84 -200 219zM259 660c0 61 -18 91 -61 91s-62 -30 -62 -91c0 -60 19 -90 62 -90s61 30 61 90zM111 151l-69 120l463 266l71 -119zM254 40c0 135 75 219 200 219
c123 0 198 -84 198 -219s-75 -219 -198 -219c-125 0 -200 84 -200 219zM515 40c0 61 -20 91 -61 91c-44 0 -63 -30 -63 -91s19 -91 63 -91c41 0 61 30 61 91z" />
    <glyph glyph-name="perthousand.tnum" 
d="M14 706c0 135 76 219 200 219c125 0 199 -84 199 -219s-74 -219 -199 -219c-124 0 -200 84 -200 219zM275 706c0 61 -18 90 -61 90s-62 -29 -62 -90c0 -60 19 -91 62 -91s61 31 61 91zM73 236l-43 118l491 178l46 -119zM-1 -16c0 135 76 219 200 219c33 0 54 -2 75 -10
c33 73 93 110 179 110c124 0 198 -84 198 -219s-74 -219 -198 -219c-33 0 -53 1 -76 12c-31 -73 -91 -112 -178 -112c-124 0 -200 84 -200 219zM514 84c0 61 -22 91 -65 91s-62 -30 -62 -91c0 -60 19 -90 62 -90s65 30 65 90zM264 -16c0 61 -19 91 -62 91s-65 -30 -65 -91
c0 -60 21 -90 65 -90c43 0 62 30 62 90z" />
    <glyph glyph-name="arrowup" unicode="&#x2191;" horiz-adv-x="709" 
d="M681 350l-122 -124l-114 128v-346h-181v345l-114 -127l-122 124l327 342z" />
    <glyph glyph-name="uni2197" unicode="&#x2197;" horiz-adv-x="599" 
d="M28 195l253 253l-184 -13l2 173l472 10l-10 -472l-174 -1l14 182l-253 -252z" />
    <glyph glyph-name="arrowright" unicode="&#x2192;" horiz-adv-x="740" 
d="M370 670l342 -326l-342 -327l-122 121l137 120h-357v171h359l-139 121z" />
    <glyph glyph-name="uni2198" unicode="&#x2198;" horiz-adv-x="599" 
d="M28 498l120 120l253 -252l-14 182l174 -1l10 -472l-472 10l-2 173l184 -13z" />
    <glyph glyph-name="arrowdown" unicode="&#x2193;" horiz-adv-x="709" 
d="M559 475l122 -124l-326 -342l-327 342l122 124l114 -127v345h181v-346z" />
    <glyph glyph-name="uni2199" unicode="&#x2199;" horiz-adv-x="599" 
d="M571 506l-253 -253l184 13l-2 -173l-472 -10l10 472l174 1l-14 -182l253 252z" />
    <glyph glyph-name="arrowleft" unicode="&#x2190;" horiz-adv-x="740" 
d="M712 429v-171h-357l137 -120l-122 -121l-342 327l342 326l122 -120l-139 -121h359z" />
    <glyph glyph-name="uni2196" unicode="&#x2196;" horiz-adv-x="599" 
d="M571 195l-120 -120l-253 252l14 -182l-174 1l-10 472l472 -10l2 -173l-184 13z" />
    <glyph glyph-name="arrowboth" unicode="&#x2194;" horiz-adv-x="1069" 
d="M699 670l342 -326l-342 -327l-117 115l158 139h-411l158 -139l-117 -115l-342 327l342 326l117 -115l-155 -136h405l-155 136z" />
    <glyph glyph-name="arrowupdn" unicode="&#x2195;" horiz-adv-x="710" 
d="M435 187l127 145l120 -123l-326 -341l-328 342l121 123l127 -146v325l-128 -145l-119 123l327 340l326 -342l-120 -122l-127 146v-325z" />
    <glyph glyph-name="uni21B3" unicode="&#x21b3;" horiz-adv-x="818" 
d="M448 670l342 -326l-342 -327l-122 121l137 120h-385v425h180v-254h207l-139 121z" />
    <glyph glyph-name="lozenge" unicode="&#x25ca;" horiz-adv-x="733" 
d="M276 0l-238 350l238 350h181l238 -350l-238 -350h-181zM366 142l139 208l-139 208l-138 -208z" />
    <glyph glyph-name="uniF8FF" unicode="&#xf8ff;" horiz-adv-x="686" 
d="M50 0v423c-4 154 139 295 292 292c155 3 298 -138 294 -292v-423h-28l-65 65l-68 -65l-63 65l-71 -65l-69 65l-63 -65l-67 65l-66 -65h-26zM287 377c0 40 -31 72 -71 72c-39 0 -71 -32 -71 -72c0 -39 32 -70 71 -70s71 31 71 70zM542 377c0 40 -32 72 -72 72
c-39 0 -70 -32 -70 -72c0 -37 33 -70 70 -70c39 0 72 33 72 70z" />
    <glyph glyph-name="at" unicode="@" horiz-adv-x="766" 
d="M38 286c-3 219 156 379 352 376c201 0 338 -138 338 -346c0 -159 -52 -229 -152 -229c-40 0 -76 19 -97 50h-2c-24 -32 -66 -50 -113 -50c-89 0 -139 48 -139 113c0 64 32 101 115 121c71 17 86 28 86 47c0 16 -13 27 -37 27c-28 0 -47 -19 -54 -51l-109 29
c15 72 77 123 161 123c101 0 158 -61 158 -160v-106c0 -29 10 -43 31 -43c25 0 45 40 45 129c0 142 -83 249 -231 249c-147 0 -245 -121 -245 -279c0 -180 91 -269 240 -269c63 0 113 10 169 37l35 -93c-79 -31 -132 -41 -204 -41c-219 0 -347 136 -347 366zM423 228v43h-1
c-3 -7 -18 -14 -49 -26c-19 -7 -29 -17 -29 -31c0 -19 9 -26 32 -26c28 0 47 16 47 40z" />
    <glyph glyph-name="ampersand" unicode="&#x26;" horiz-adv-x="734" 
d="M731 139l-122 -143l-64 56c-53 -48 -126 -74 -211 -74c-189 0 -296 78 -296 215c0 80 46 155 123 196c-45 44 -67 86 -67 141c0 111 98 191 239 191c133 0 230 -72 246 -193l-182 -18c-5 37 -25 55 -64 55c-33 0 -54 -15 -54 -40c0 -16 4 -27 28 -44l154 -124v81h161
v-211zM413 168l-141 123c-29 -20 -47 -46 -47 -70c0 -47 44 -78 109 -78c33 0 60 8 79 25z" />
    <glyph glyph-name="paragraph" unicode="&#xb6;" horiz-adv-x="739" 
d="M172 -136v501c-93 2 -164 71 -164 168c0 51 16 92 48 122s72 45 120 45h495v-836h-192v660h-115v-660h-192z" />
    <glyph glyph-name="section" unicode="&#xa7;" horiz-adv-x="652" 
d="M567 -17c0 -110 -101 -196 -231 -196c-68 0 -124 18 -167 54c-43 35 -68 83 -73 142l177 19c7 -44 27 -62 64 -62c29 0 50 14 50 39c0 14 -6 25 -19 34s-38 22 -77 38l-115 47c-79 33 -118 79 -118 138c0 68 25 114 88 159c-41 35 -61 78 -61 131c0 111 101 195 231 195
c68 0 124 -18 167 -54c43 -35 68 -83 73 -142l-177 -19c-7 45 -27 63 -64 63c-29 0 -50 -15 -50 -40c0 -13 6 -25 18 -34c13 -9 39 -21 78 -38l115 -47c79 -33 118 -79 118 -138c0 -68 -25 -114 -88 -158c41 -35 61 -78 61 -131zM275 221l115 -45c36 23 49 37 49 61
c0 20 -17 33 -62 50l-114 45c-37 -23 -50 -37 -50 -61c0 -20 17 -33 62 -50z" />
    <glyph glyph-name="copyright" unicode="&#xa9;" horiz-adv-x="681" 
d="M28 323c-3 171 132 310 312 307c179 3 316 -136 313 -307c3 -171 -136 -310 -313 -307c-180 -3 -315 136 -312 307zM562 323c0 126 -89 226 -222 226c-132 0 -221 -100 -221 -226s89 -226 221 -226c133 0 222 102 222 226zM184 324c0 107 63 176 160 176
c81 0 141 -54 146 -130l-95 -16c-7 37 -23 55 -56 55c-35 0 -55 -29 -55 -85s20 -85 55 -85c33 0 49 18 56 55l95 -16c-5 -76 -65 -130 -146 -130c-97 0 -160 69 -160 176z" />
    <glyph glyph-name="registered" unicode="&#xae;" horiz-adv-x="681" 
d="M653 323c3 -171 -136 -310 -313 -307c-180 -3 -315 136 -312 307c-3 171 132 310 312 307c179 3 316 -136 313 -307zM562 323c0 126 -89 226 -222 226c-132 0 -221 -100 -221 -226s89 -226 221 -226c133 0 222 102 222 226zM416 277l58 -118h-97l-49 111h-15v-111h-91
v336h145c75 0 119 -43 119 -114c0 -51 -26 -89 -70 -104zM314 413v-66h46c23 0 34 11 34 34c0 21 -11 32 -34 32h-46z" />
    <glyph glyph-name="uni2117" unicode="&#x2117;" horiz-adv-x="681" 
d="M28 323c-3 171 132 310 312 307c179 3 316 -136 313 -307c3 -171 -136 -310 -313 -307c-180 -3 -315 136 -312 307zM562 323c0 126 -89 226 -222 226c-132 0 -221 -100 -221 -226s89 -226 221 -226c133 0 222 102 222 226zM239 152v338h131c73 0 118 -46 118 -121
s-43 -119 -115 -119h-41v-98h-93zM332 330h28c25 0 35 11 35 39c0 29 -11 40 -34 40h-29v-79z" />
    <glyph glyph-name="trademark" unicode="&#x2122;" horiz-adv-x="879" 
d="M117 361v221h-99v118h327v-118h-99v-221h-129zM391 361v339h142l87 -189h1l88 189h141v-339h-123v142h-1l-71 -142h-68l-71 142h-1v-142h-124z" />
    <glyph glyph-name="degree" unicode="&#xb0;" horiz-adv-x="469" 
d="M18 508c0 111 92 197 217 197c123 0 216 -86 216 -197c0 -114 -92 -198 -216 -198c-125 0 -217 84 -217 198zM313 508c0 45 -29 73 -78 73c-47 0 -78 -28 -78 -73s30 -74 78 -74c49 0 78 27 78 74z" />
    <glyph glyph-name="bar" unicode="|" horiz-adv-x="275" 
d="M78 -300v1075h119v-1075h-119z" />
    <glyph glyph-name="brokenbar" unicode="&#xa6;" horiz-adv-x="275" 
d="M78 350v425h119v-425h-119zM78 -300v425h119v-425h-119z" />
    <glyph glyph-name="dagger" unicode="&#x2020;" horiz-adv-x="693" 
d="M251 -196v550h-223v176h223v229h192v-229h222v-176h-222v-550h-192z" />
    <glyph glyph-name="daggerdbl" unicode="&#x2021;" horiz-adv-x="693" 
d="M251 -196v215h-223v177h223v158h-223v176h223v229h192v-229h222v-176h-222v-158h222v-177h-222v-215h-192z" />
    <glyph glyph-name="uni2116" unicode="&#x2116;" horiz-adv-x="1115" 
d="M707 490c0 135 72 219 185 219s184 -84 184 -219s-71 -219 -184 -219s-185 84 -185 219zM58 0v700h187l211 -382h2v382h192v-700h-187l-211 382h-2v-382h-192zM951 490c0 61 -20 95 -59 95s-60 -34 -60 -95s21 -95 60 -95s59 34 59 95zM707 83v143h370v-143h-370z" />
    <glyph glyph-name="asciicircum" unicode="^" horiz-adv-x="696" 
d="M648 325h-190l-110 252l-110 -252h-190l178 375h244z" />
    <glyph glyph-name="at.case" horiz-adv-x="766" 
d="M38 345c-3 219 156 379 352 376c201 0 338 -138 338 -346c0 -159 -52 -229 -152 -229c-40 0 -76 19 -97 50h-2c-24 -32 -66 -50 -113 -50c-89 0 -139 48 -139 113c0 64 32 101 115 121c71 17 86 28 86 47c0 16 -13 27 -37 27c-28 0 -47 -19 -54 -51l-109 29
c15 72 77 123 161 123c101 0 158 -61 158 -160v-106c0 -29 10 -43 31 -43c25 0 45 40 45 129c0 142 -83 249 -231 249c-147 0 -245 -121 -245 -279c0 -180 91 -269 240 -269c63 0 113 10 169 37l35 -93c-79 -31 -132 -41 -204 -41c-219 0 -347 136 -347 366zM423 287v43h-1
c-3 -7 -18 -14 -49 -26c-19 -7 -29 -17 -29 -31c0 -19 9 -26 32 -26c28 0 47 16 47 40z" />
    <glyph glyph-name="uni0308" unicode="&#x308;" horiz-adv-x="0" 
d="M-368 580v145h145v-145h-145zM-146 580v145h146v-145h-146z" />
    <glyph glyph-name="uni0307" unicode="&#x307;" horiz-adv-x="0" 
d="M-145 590v145h145v-145h-145z" />
    <glyph glyph-name="gravecomb" unicode="&#x300;" horiz-adv-x="0" 
d="M-144 590l-134 151h178l100 -151h-144z" />
    <glyph glyph-name="acutecomb" unicode="&#x301;" horiz-adv-x="0" 
d="M-278 590l102 151h176l-132 -151h-146z" />
    <glyph glyph-name="uni030B" unicode="&#x30b;" horiz-adv-x="0" 
d="M-484 590l102 151h165l-132 -151h-135zM-268 590l102 151h166l-133 -151h-135z" />
    <glyph glyph-name="uni0302" unicode="&#x302;" horiz-adv-x="0" 
d="M0 641l-99 -71l-67 85l-66 -85l-99 71l72 89h186z" />
    <glyph glyph-name="uni030C" unicode="&#x30c;" horiz-adv-x="0" 
d="M-99 740l99 -71l-73 -89h-186l-72 89l99 71l66 -85z" />
    <glyph glyph-name="uni0306" unicode="&#x306;" horiz-adv-x="0" 
d="M-345 730h95c11 -29 37 -44 78 -44s66 15 76 44h96c-5 -93 -71 -150 -172 -150c-103 0 -168 57 -173 150z" />
    <glyph glyph-name="uni030A" unicode="&#x30a;" horiz-adv-x="0" 
d="M-343 594c0 86 72 150 171 150c98 0 172 -64 172 -150c0 -84 -74 -149 -172 -149c-99 0 -171 65 -171 149zM-106 594c0 39 -27 65 -66 65s-65 -26 -65 -65c0 -37 28 -64 65 -64c39 0 66 27 66 64z" />
    <glyph glyph-name="tildecomb" unicode="&#x303;" horiz-adv-x="0" 
d="M-184 609c-23 11 -40 17 -51 17c-19 0 -30 -12 -34 -36h-84c4 93 40 144 104 144c29 0 46 -8 81 -24c23 -12 35 -17 50 -17c19 0 30 12 34 35h84c-3 -93 -39 -144 -103 -144c-28 0 -50 9 -81 25z" />
    <glyph glyph-name="uni0304" unicode="&#x304;" horiz-adv-x="0" 
d="M-348 590v109h348v-109h-348z" />
    <glyph glyph-name="uni0312" unicode="&#x312;" horiz-adv-x="0" 
d="M-5 861v-71c-45 -8 -58 -22 -58 -59h63v-141h-172v118c0 91 58 146 167 153z" />
    <glyph glyph-name="dotbelowcomb" unicode="&#x323;" horiz-adv-x="0" 
d="M-145 -194v145h145v-145h-145z" />
    <glyph glyph-name="uni0326" unicode="&#x326;" horiz-adv-x="0" 
d="M-148 -321v71c40 8 51 22 51 59h-56v141h153v-118c0 -91 -51 -146 -148 -153z" />
    <glyph glyph-name="uni0327" unicode="&#x327;" horiz-adv-x="0" 
d="M-5 -145c0 -73 -54 -124 -131 -124c-48 0 -88 11 -128 39l54 86c27 -16 46 -23 67 -23c25 0 39 11 39 31c0 17 -16 31 -37 31c-18 0 -35 -6 -50 -19l-66 26l82 142l62 -37l-21 -36h4c77 0 125 -47 125 -116z" />
    <glyph glyph-name="uni0328" unicode="&#x328;" horiz-adv-x="0" 
d="M-234 -124c0 47 33 96 106 139l76 -15c-43 -33 -64 -62 -64 -86c0 -15 8 -23 23 -23c16 0 34 5 55 14l38 -101c-36 -16 -74 -24 -113 -24c-75 0 -121 33 -121 96z" />
    <glyph glyph-name="uni0335" unicode="&#x335;" horiz-adv-x="0" 
d="M-381 287v138h381v-138h-381z" />
    <glyph glyph-name="uni0336" unicode="&#x336;" horiz-adv-x="0" 
d="M-696 286v137h707v-137h-707z" />
    <glyph glyph-name="uni0337" unicode="&#x337;" horiz-adv-x="0" 
d="M-439 -44l-66 51l440 565l65 -50z" />
    <glyph glyph-name="_646" horiz-adv-x="0" 
d="M0 449l-250 -239v31l-153 -144l-57 58l210 198v-30l195 183z" />
    <glyph glyph-name="uni0338" unicode="&#x338;" horiz-adv-x="0" 
d="M-412 -52l-85 47l413 759l84 -49z" />
    <glyph glyph-name="_648" horiz-adv-x="0" 
d="M0 480l-299 -286v29l-163 -155l-57 58l240 229v-23l220 210z" />
    <glyph glyph-name="_649" horiz-adv-x="0" 
d="M-175 609v159h175v-159h-175z" />
    <glyph glyph-name="_650" horiz-adv-x="0" 
d="M-411 308v107h411v-107h-411z" />
    <glyph glyph-name="acute" unicode="&#xb4;" horiz-adv-x="355" 
d="M38 590l102 151h176l-132 -151h-146z" />
    <glyph glyph-name="breve" unicode="&#x2d8;" horiz-adv-x="394" 
d="M38 730h95c11 -29 37 -44 78 -44s66 15 76 44h96c-5 -93 -71 -150 -172 -150c-103 0 -168 57 -173 150z" />
    <glyph glyph-name="caron" unicode="&#x2c7;" horiz-adv-x="407" 
d="M270 740l99 -71l-73 -89h-186l-72 89l99 71l66 -85z" />
    <glyph glyph-name="cedilla" unicode="&#xb8;" horiz-adv-x="340" 
d="M297 -145c0 -73 -54 -124 -131 -124c-48 0 -88 11 -128 39l54 86c27 -16 46 -23 67 -23c25 0 39 11 39 31c0 17 -16 31 -37 31c-18 0 -35 -6 -50 -19l-66 26l82 142l62 -37l-21 -36h4c77 0 125 -47 125 -116z" />
    <glyph glyph-name="circumflex" unicode="&#x2c6;" horiz-adv-x="407" 
d="M369 641l-99 -71l-67 85l-66 -85l-99 71l72 89h186z" />
    <glyph glyph-name="dieresis" unicode="&#xa8;" horiz-adv-x="444" 
d="M38 580v145h145v-145h-145zM260 580v145h146v-145h-146z" />
    <glyph glyph-name="dotaccent" unicode="&#x2d9;" horiz-adv-x="222" 
d="M38 590v145h145v-145h-145z" />
    <glyph glyph-name="grave" unicode="`" horiz-adv-x="355" 
d="M172 590l-134 151h178l100 -151h-144z" />
    <glyph glyph-name="hungarumlaut" unicode="&#x2dd;" horiz-adv-x="571" 
d="M38 590l102 151h165l-132 -151h-135zM254 590l102 151h166l-133 -151h-135z" />
    <glyph glyph-name="macron" unicode="&#xaf;" horiz-adv-x="424" 
d="M38 590v109h348v-109h-348z" />
    <glyph glyph-name="ogonek" unicode="&#x2db;" horiz-adv-x="310" 
d="M34 -124c0 47 33 96 106 139l76 -15c-43 -33 -64 -62 -64 -86c0 -15 8 -23 23 -23c16 0 34 5 55 14l38 -101c-36 -16 -74 -24 -113 -24c-75 0 -121 33 -121 96z" />
    <glyph glyph-name="ring" unicode="&#x2da;" horiz-adv-x="419" 
d="M38 594c0 86 72 150 171 150c98 0 172 -64 172 -150c0 -84 -74 -149 -172 -149c-99 0 -171 65 -171 149zM275 594c0 39 -27 65 -66 65s-65 -26 -65 -65c0 -37 28 -64 65 -64c39 0 66 27 66 64z" />
    <glyph glyph-name="tilde" unicode="&#x2dc;" horiz-adv-x="430" 
d="M207 609c-23 11 -40 17 -51 17c-19 0 -30 -12 -34 -36h-84c4 93 40 144 104 144c29 0 46 -8 81 -24c23 -12 35 -17 50 -17c19 0 30 12 34 35h84c-3 -93 -39 -144 -103 -144c-28 0 -50 9 -81 25z" />
    </font>
</defs>
</svg>
